<svg width="1024" height="1024" version="1.1" viewBox="0 0 271 271" xmlns="http://www.w3.org/2000/svg" xmlns:osb="http://www.openswatchbook.org/uri/2009/osb" xmlns:xlink="http://www.w3.org/1999/xlink"><g stroke-linecap="round" stroke-linejoin="round"><path transform="translate(0 -26.1)" d="m0 238h271v-112h-271z" display="none" fill="none" stroke="#346990" stroke-width="2.65" style="paint-order:normal"/><rect transform="scale(1,-1)" x=".0772" y="-203" width="271" height="106" fill="#fff" stroke="#346990" stroke-width="2.68" style="paint-order:normal"/><rect transform="scale(1,-1)" x=".0472" y="-203" width="271" height="102" fill="#4eadb8" stroke="#4eadb8" stroke-width="2.62" style="paint-order:normal"/></g><g fill="#fff" stroke="#fff" stroke-linejoin="round" stroke-width="2.65"><g><path d="m2.31 116c5.57 0.105 15.3-1.58 21.1-1.62 5.82-0.0375 8.81 1.99 14.8 1.85 5.96-0.139 10.5-2.17 16.5-2.37 5.99-0.2 13.4 1.43 19.3 1.21 5.9-0.22 11.9-1.88 17.6-2.08 5.7-0.199 11.1 1.89 16.5 1.75 5.39-0.137 10.5-1.4 15.4-1.44 0 0-10.3-1.01-15.4-1.15-8.52-0.23-13.4 0.138-25.6 0.511-5.85 0.159-9.82-1.14-15.5-0.903-5.64 0.238-12.9 1.6-18.3 1.82-5.41 0.224-13.2-1.47-18.4-1.35-5.16 0.117-8.93 0.966-13.8 0.885-4.91-0.0816-9.45 0.38-14.1 8e-3z"/><path d="m156 115c9.12 0.311 15.4-1.62 24.5-1.51 9.1 0.1 18.8 1.41 28.1 1.35 9.38-0.06 15.5-1.49 25.4-1.66 9.97-0.17 24.3 0.919 35.2 0.69l-0.129-2.04c-7.92-0.572-12.9-0.455-22.1 0.126-4.56 0.29-12.6-0.0645-17.7 0.57-5.04 0.635-10.5-0.475-15.5-0.46-4.94 0.0154-16.6 1.5-21.4 1.08-4.78-0.422-12.8-0.7-17.8-0.296-8.97 0.716-13.1 1.89-18.8 2.16z"/><path d="m50.2 134c28.3 0.645 19.1 5.65 36.4 6.17 8.66 0.256 28.4-3.16 37-2.93 8.57 0.229 19.9-0.698 28.3-0.552 8.4 0.146 17-3.28 25.1-3.27 8.14 9e-3 15.9 3.75 23.7 4.86 16.5 2.38 31.9-2.81 45.6-4.27-20.6-2.07-23.5-2.45-33.2-2.58-6.28-0.102-28.9 3.59-41 0.762-12.9-3-27-1.62-36.8 0.587-18.4 4.14-28.1 4.22-41.3 2.68-16.4-1.9-23.7-4.22-43.8-1.45z"/><path d="m2.33 165s3.22 1.2 7.28 1.4c4.06 0.197 8.99-1.36 12.7-1.29 3.72 0.0658 13.8 4.11 17.5 4.08 7.8 1.16 13.8-3.87 20.8-4.42 3.59-0.165 5.67 1.96 9.11 2.78 8.1 1.94 8.97-1.94 21.5-4.84-11.4-3.34-17.4-1.6-26.6 0.369-7.91 1.68-15.4-2.68-23.4-3.21s-12 4.33-19 4.7c-7.05 0.365-14.8-7.32-19.8-5.92z"/></g><path d="m120 165c5.72 2.33 8.04 5.02 15.2 5.65 7.16 0.631 11.5-7.72 17.6-7.37 6.13 0.351 9.81 4.3 16.3 4.44s11.8-3.08 17.9-2.98c6.14 0.0952 24.6 4.84 29.3 4.94 4.71 0.0961 19.1-4.98 25.3-5.65 12.1 0.967 21.1 5.97 27.8 5.77l2e-5 -5.75c-6.99-2.75-16-1.11-24.8-0.65-8.82 0.461-23-5.54-32.4-3.77-9.36 1.77-13.9 3.37-22.5 4.55s-15-5.18-21.6-6.5c-5.65-1.13-12.1 3.54-16.9 3.73-4.8 0.188-13.9 2.81-16.7 2.61s-8.12 0.0997-14.5 0.989z" stroke-linecap="round"/></g><g><path transform="translate(0 -26.1)" d="m0 212s17.5 0.712 27.5 0.205c10-0.507 25.6-5.95 38.1-5.6 12.5 0.347 27.4 11.6 39.4 12.5 12.1 0.859 22-5.74 33-5.63 11.1 0.109 19.4 5.86 31 5.47 11.7-0.392 20-8.03 31.9-7.93 11.9 0.103 20.2 8.21 35.4 9.69s34.5-5.6 34.5-5.6l4e-4 37.5h-271z" fill="#fff" stroke="#fff" stroke-linecap="round" stroke-linejoin="round" stroke-width="2.65" style="paint-order:normal"/></g><g><path transform="translate(0 -26.1)" d="m0 218s4.38 2.87 9.51 2.38c5.13-0.485 11-4.32 16-4.65s12 4.19 17.9 3.85c5.84-0.333 10.5-5.51 16.7-5.29 6.23 0.223 12.7 5.57 19.6 6.5 6.91 0.94 14.3-2.52 20.3-1.97 6.03 0.553 12.3 5.57 17.5 5.98 5.2 0.411 9.28-3.78 14.8-3.71 5.53 0.0701 11 2.36 16.6 2.03s11.5-3.29 17.3-3.54c5.83-0.252 15.4 1.17 21.5 0.842s8.71-2.42 14.7-2.35c5.97 0.0662 13.5 6.14 19 6.45s8.82-5.13 16.4-4.18c7.6 0.951 15.9 6.26 22.2 6.35 6.36 0.0873 10.8-5.05 10.8-5.05l0.0607 39.5h-271z" fill="#ccc5ba" stroke="#ccc5ba" stroke-linecap="round" stroke-linejoin="round" stroke-width="2.65" style="paint-order:normal"/></g><g><path transform="translate(0 -26.1)" d="m1.32e-8 245c4.31e-9 17.4-1.32e-8 34.8-1.32e-8 52.2h271v-52.2s-31.7-0.486-61.2 3.66-56.9-6.27-79.5-6.27c-22.6 0-44.4 11.9-72.3 6.05s-57.9-3.41-57.9-3.41z" fill="#f6f2e9" stroke="#f6f2e9" stroke-dasharray="5.29166667, 2.64583333" stroke-linecap="square" stroke-linejoin="round" stroke-width="2.65" style="paint-order:normal"/></g><g transform="translate(0 -26.1)"><path d="m0 26.1h271c1e-5 33.5 0 67-1e-5 100h-271v-100z" fill="#0070c4" stroke="#0070c4" stroke-linecap="square" stroke-linejoin="round" stroke-width="2.65" style="paint-order:normal"/></g></svg>
