<svg width="257" height="78" viewBox="0 0 257 78" fill="none" xmlns="http://www.w3.org/2000/svg"><style xmlns="" type="text/css" id="block-image-video"/>
<path d="M120.824 47.8012C120.749 47.9716 120.632 48.1198 120.484 48.2316C120.336 48.3434 120.163 48.4151 119.98 48.4399H124.201C124.019 48.4184 123.846 48.3498 123.698 48.2409C123.55 48.132 123.433 47.9864 123.357 47.8182C123.128 47.2397 123.03 46.6172 123.07 45.9958V32.1825C123.047 31.9214 123.112 31.6602 123.255 31.4416C123.348 31.3496 123.46 31.2802 123.583 31.2388C123.705 31.1975 123.836 31.1853 123.965 31.2031C125.018 31.1003 126.078 31.3178 127.008 31.8278C127.938 32.3378 128.695 33.1168 129.183 34.0646L128.338 30.8114H115.834L115.032 34.0646C115.524 33.1249 116.28 32.3523 117.205 31.8434C118.13 31.3345 119.183 31.1118 120.233 31.2031C120.361 31.1877 120.49 31.2019 120.612 31.2447C120.733 31.2875 120.843 31.3578 120.934 31.4501C121.054 31.6744 121.109 31.928 121.094 32.1825V45.9873C121.125 46.6013 121.033 47.2153 120.824 47.7927V47.8012ZM176.862 45.9873C176.495 46.3846 176.078 46.7312 175.62 47.0177C174.707 47.5848 173.653 47.8801 172.581 47.8693C171.639 47.8721 170.713 47.6327 169.888 47.1737C169.064 46.7148 168.369 46.0514 167.87 45.2463C166.603 43.2887 165.972 40.9821 166.063 38.6463C165.968 36.6189 166.473 34.6088 167.515 32.8723C167.902 32.2066 168.452 31.653 169.114 31.2651C169.775 30.8771 170.524 30.6681 171.289 30.6581C172.445 30.632 173.567 31.0559 174.422 31.8418C175.373 32.7335 176.102 33.8395 176.549 35.0695L177.334 32.3954C176.47 31.7783 175.531 31.2746 174.54 30.8965C173.667 30.5676 172.744 30.3919 171.813 30.377C170.93 30.373 170.053 30.5228 169.221 30.8199C168.834 30.9717 168.461 31.1569 168.106 31.3734C167.773 31.583 167.462 31.8255 167.177 32.0973C166.179 33.0803 165.401 34.2682 164.898 35.5804C164.632 36.2772 164.437 36.999 164.315 37.735C164.187 38.5261 164.124 39.3266 164.129 40.1281C164.012 42.4152 164.73 44.6662 166.147 46.4556C166.807 47.2267 167.629 47.8389 168.554 48.2471C169.479 48.6554 170.483 48.8493 171.492 48.8146C172.815 48.8414 174.117 48.4805 175.241 47.7757C176.402 46.961 177.366 45.8926 178.061 44.6502C177.702 45.1315 177.301 45.5791 176.862 45.9873ZM187.728 48.457H191.882C191.727 48.3875 191.587 48.2892 191.468 48.1674C191.308 48.0407 191.175 47.8811 191.08 47.699C190.715 47.0708 190.432 46.3983 190.236 45.6977L185.6 30.4026H184.435L180.214 44.1137C179.943 45.1741 179.534 46.1936 178.998 47.1455C178.651 47.6959 178.164 48.1428 177.588 48.4399H181.303C180.955 48.3248 180.658 48.0934 180.458 47.7842C180.24 47.3897 180.134 46.9413 180.155 46.4897L180.197 45.851L180.349 45.1442L184.359 32.1484L188.285 45.9873L188.37 46.3024C188.437 46.5408 188.496 46.7282 188.53 46.8985C188.557 47.0302 188.571 47.1643 188.572 47.2988C188.577 47.5761 188.481 47.8456 188.302 48.0567C188.165 48.2464 187.978 48.3938 187.762 48.4825L187.728 48.457ZM106.639 48.4825C106.295 48.3616 105.999 48.1315 105.795 47.8268C105.572 47.4338 105.467 46.9843 105.491 46.5323V45.8936L105.643 45.1867L109.653 32.191L113.588 45.9873L113.681 46.3024C113.748 46.5408 113.807 46.7282 113.841 46.8985C113.854 47.0316 113.854 47.1657 113.841 47.2988C113.841 47.5739 113.749 47.8408 113.58 48.0567C113.435 48.243 113.246 48.3894 113.031 48.4825H117.176C117.024 48.4088 116.884 48.3111 116.763 48.193C116.607 48.0635 116.478 47.9044 116.383 47.7246C116.018 47.0964 115.734 46.4238 115.538 45.7233L110.945 30.4026H109.763L105.542 44.1137C105.258 45.1762 104.835 46.1958 104.284 47.1455C103.938 47.6976 103.451 48.1449 102.873 48.4399L106.639 48.4825ZM96.9125 48.8828C98.2355 48.9095 99.5377 48.5486 100.661 47.8438C101.825 47.0322 102.79 45.9632 103.481 44.7183C103.109 45.1752 102.7 45.5996 102.257 45.9873C101.872 46.39 101.438 46.7419 100.965 47.0348C100.052 47.6027 98.9984 47.898 97.9257 47.8864C96.9841 47.8891 96.0574 47.6497 95.233 47.1908C94.4087 46.7318 93.7139 46.0685 93.2144 45.2634C91.9479 43.3057 91.3164 40.9991 91.4076 38.6633C91.3236 36.6348 91.8346 34.6264 92.8767 32.8893C93.2264 32.3114 93.6981 31.8183 94.2582 31.4452C94.8183 31.072 95.4531 30.828 96.1174 30.7304C96.7816 30.6328 97.459 30.6841 98.1014 30.8806C98.7438 31.0772 99.3353 31.4141 99.8339 31.8674C100.783 32.7614 101.511 33.8666 101.962 35.095L102.747 32.4209C101.884 31.806 100.948 31.3025 99.9606 30.9221C99.0844 30.5939 98.1594 30.4182 97.2249 30.4026C96.3394 30.3993 95.4598 30.5491 94.6244 30.8454C94.2405 30.9972 93.8704 31.1825 93.5184 31.399C93.1845 31.6107 92.8708 31.853 92.5812 32.1229C91.5856 33.1082 90.8086 34.2954 90.3015 35.606C90.043 36.3043 89.8507 37.0257 89.7273 37.7606C89.599 38.5516 89.5368 39.3521 89.5416 40.1537C89.4248 42.4407 90.1427 44.6917 91.5595 46.4812C92.219 47.2523 93.0414 47.8645 93.9663 48.2727C94.8912 48.6809 95.8951 48.8749 96.9041 48.8402L96.9125 48.8828ZM162.888 48.4144C162.708 48.3869 162.537 48.316 162.39 48.2078C162.243 48.0996 162.125 47.9572 162.044 47.7927C161.836 47.2121 161.747 46.595 161.782 45.9787V33.2811C161.739 32.6547 161.834 32.0265 162.061 31.4416C162.13 31.2771 162.24 31.1335 162.381 31.0246C162.521 30.9157 162.687 30.8452 162.863 30.8199H158.734C158.92 30.8541 159.094 30.9342 159.241 31.0531C159.389 31.172 159.505 31.326 159.578 31.5012C159.785 32.0672 159.875 32.6702 159.84 33.2725V45.9873C159.844 46.3374 159.825 46.6874 159.781 47.0348C159.747 47.2964 159.676 47.5517 159.57 47.7927C159.494 47.9621 159.376 48.1095 159.229 48.2211C159.081 48.3328 158.908 48.4051 158.726 48.4314H162.897L162.888 48.4144ZM157.518 45.0079C157.051 45.7223 156.462 46.3479 155.779 46.8559C155.158 47.3451 154.437 47.6884 153.668 47.8608C152.754 47.9924 151.83 48.0465 150.907 48.0226C150.312 48.0837 149.712 47.9744 149.176 47.7075C148.881 47.452 148.746 46.9155 148.746 46.0554V33.2811C148.708 32.6549 148.803 32.0278 149.024 31.4416C149.098 31.2719 149.215 31.125 149.363 31.0158C149.512 30.9065 149.686 30.839 149.869 30.8199H145.689C145.875 30.8533 146.05 30.9332 146.197 31.0522C146.345 31.1712 146.46 31.3256 146.534 31.5012C146.749 32.0651 146.841 32.6693 146.804 33.2725V45.9873C146.806 46.3376 146.783 46.6876 146.736 47.0348C146.709 47.2967 146.641 47.5525 146.534 47.7927C146.457 47.9621 146.34 48.1095 146.192 48.2211C146.045 48.3328 145.872 48.4051 145.689 48.4314H156.708L157.518 45.0079ZM132.062 46.8389C132.396 47.17 132.758 47.472 133.143 47.7416C133.488 47.9829 133.859 48.1856 134.249 48.3463C134.643 48.5062 135.054 48.6232 135.473 48.6954C135.942 48.7725 136.416 48.8095 136.891 48.8061C137.837 48.8261 138.775 48.6286 139.633 48.2287C140.492 47.8289 141.249 47.2371 141.848 46.4982C142.662 45.5446 143.294 44.4475 143.713 43.2621C144.139 42.0654 144.356 40.8034 144.355 39.532C144.365 38.1331 144.098 36.7463 143.57 35.4527C143.067 34.2076 142.323 33.0758 141.383 32.1229C141.105 31.8499 140.8 31.6072 140.471 31.399L139.931 31.7907C140.259 32.0984 140.544 32.451 140.775 32.8382C141.62 34.286 142.033 36.4661 142.033 39.2935C142.049 40.6737 141.948 42.0528 141.729 43.4154C141.57 44.4193 141.259 45.3928 140.809 46.3024C140.415 46.998 139.846 47.577 139.161 47.9813C138.475 48.3857 137.696 48.6013 136.902 48.6064C136.107 48.6116 135.326 48.4062 134.635 48.0108C133.944 47.6154 133.368 47.0439 132.965 46.3535C132.503 45.4859 132.183 44.5482 132.02 43.5772C131.801 42.2976 131.7 41.0006 131.716 39.7023C131.594 37.3942 132.05 35.0925 133.041 33.0085C133.389 32.2835 133.934 31.6729 134.613 31.2478C135.292 30.8227 136.076 30.6005 136.874 30.607C137.306 30.6094 137.735 30.6724 138.149 30.7943L138.242 30.5388C137.825 30.4552 137.401 30.4096 136.976 30.4026C136.106 30.4046 135.245 30.5812 134.443 30.9221C134.035 31.0982 133.647 31.318 133.286 31.5778C132.925 31.8285 132.588 32.1137 132.281 32.4294C131.361 33.3542 130.637 34.4582 130.154 35.6741C129.913 36.2778 129.737 36.9059 129.63 37.5477C129.518 38.243 129.464 38.9467 129.47 39.6512C129.459 41.0422 129.685 42.4248 130.137 43.739C130.544 44.9028 131.201 45.9613 132.062 46.8389ZM141.045 30.4026H138.749C138.394 31.2542 137.904 32.4294 137.356 33.6473C138.538 32.5487 141.045 30.4026 141.045 30.4026Z" fill="#323232"/>
<path d="M97.6636 22.6704C96.6235 22.6919 95.589 22.5127 94.6156 22.1424C93.8047 21.8235 93.0954 21.2876 92.5639 20.5925C92.1826 20.1071 91.9194 19.5383 91.7955 18.9318C91.5917 17.8258 91.5068 16.7008 91.5422 15.5764V7.1113C91.579 6.50537 91.4869 5.8985 91.2721 5.33142C91.1957 5.15711 91.0793 5.00363 90.9325 4.88368C90.7857 4.76374 90.6126 4.68075 90.4277 4.6416H94.7C94.5181 4.66316 94.3448 4.73172 94.1969 4.84063C94.049 4.94954 93.9315 5.09512 93.8557 5.26329C93.6355 5.8528 93.5406 6.48241 93.5771 7.1113V16.0874C93.5771 18.225 93.9401 19.7664 94.6494 20.6776C95.3586 21.5889 96.6082 22.0743 98.3222 22.0743C99.0105 22.0824 99.6962 21.9877 100.357 21.7933C100.651 21.7177 100.934 21.6062 101.201 21.4611C101.459 21.3194 101.708 21.1601 101.944 20.9842C102.538 20.4404 102.965 19.7373 103.177 18.9574C103.314 18.3981 103.404 17.8284 103.447 17.2541C103.506 16.5302 103.532 15.6956 103.532 14.7674V8.80603C103.576 7.83154 103.436 6.85745 103.118 5.93607C103.013 5.64893 102.845 5.38985 102.625 5.17874C102.405 4.96762 102.141 4.81009 101.851 4.71825H105.474C105.199 4.82766 104.95 4.99525 104.745 5.20973C104.539 5.42422 104.382 5.6806 104.283 5.96161C103.994 6.92116 103.872 7.92368 103.92 8.92526V14.81C103.949 16.0815 103.861 17.3529 103.658 18.6082C103.535 19.3145 103.268 19.9873 102.873 20.584C102.345 21.2807 101.638 21.8194 100.83 22.1424C99.8181 22.5239 98.7433 22.706 97.6636 22.6789" fill="#323232"/>
<path d="M119.776 22.466L108.436 5.96162V18.5997C108.399 19.4547 108.552 20.3073 108.884 21.0949C109.003 21.3606 109.176 21.5976 109.393 21.79C109.61 21.9824 109.866 22.1258 110.142 22.2106V22.2702H106.385V22.185C106.904 21.9467 107.331 21.5427 107.601 21.0353C107.758 20.7278 107.866 20.3973 107.921 20.056C107.992 19.6425 108.026 19.2236 108.023 18.8041V7.25608C108.059 6.60969 107.922 5.96531 107.626 5.39103C107.518 5.19371 107.366 5.02375 107.184 4.89393C107.001 4.76412 106.791 4.67784 106.571 4.6416H109.872L120.004 19.4087V9.70023C120.068 8.45757 119.919 7.21303 119.565 6.02123C119.469 5.69842 119.297 5.40402 119.063 5.16359C118.829 4.92316 118.54 4.74398 118.222 4.6416H121.599C121.391 4.82218 121.209 5.03147 121.059 5.26329C120.876 5.52388 120.734 5.81105 120.637 6.11491C120.387 7.2317 120.29 8.37799 120.35 9.52139V22.466H119.776Z" fill="#323232"/>
<path d="M123.762 22.2702C123.943 22.2409 124.115 22.1675 124.262 22.0562C124.409 21.9449 124.527 21.7991 124.606 21.6314C124.711 21.3905 124.779 21.135 124.809 20.8735C124.859 20.5268 124.882 20.1764 124.876 19.826V7.1113C124.913 6.50536 124.821 5.8985 124.606 5.33142C124.531 5.1559 124.416 5.00136 124.268 4.88116C124.121 4.76097 123.947 4.67874 123.762 4.6416H127.983C127.802 4.66473 127.629 4.7339 127.482 4.84263C127.334 4.95135 127.216 5.09609 127.139 5.26329C126.919 5.8528 126.824 6.48241 126.86 7.1113V19.809C126.826 20.4252 126.915 21.0421 127.122 21.6229C127.207 21.7833 127.327 21.922 127.474 22.0282C127.62 22.1345 127.789 22.2056 127.966 22.2361L123.762 22.2702Z" fill="#323232"/>
<path d="M135.938 22.6702L130.872 7.18768C130.683 6.5941 130.432 6.02298 130.12 5.48443C129.707 4.77759 129.462 4.71797 129.318 4.63281H133.54C133.318 4.70173 133.124 4.83867 132.983 5.02456C132.887 5.13141 132.813 5.25644 132.765 5.39239C132.717 5.52835 132.696 5.67252 132.704 5.81657C132.708 5.96306 132.728 6.10867 132.763 6.25089L132.907 6.80445L137.348 20.5837L141.181 7.80936L141.291 7.25581C141.291 7.1451 141.291 7.05993 141.291 6.97477C141.3 6.86994 141.3 6.7645 141.291 6.65967C141.295 6.19291 141.166 5.73486 140.919 5.33966C140.811 5.16653 140.674 5.01377 140.514 4.8883C140.398 4.7904 140.27 4.70744 140.134 4.64133H143.756C143.518 4.78924 143.297 4.96348 143.098 5.16082C142.841 5.37857 142.611 5.62741 142.414 5.90173C141.96 6.64865 141.608 7.4535 141.367 8.29478L137.078 22.6702H135.938Z" fill="#323232"/>
<path d="M144.93 22.2697C145.114 22.2449 145.289 22.1722 145.437 22.0588C145.585 21.9453 145.701 21.795 145.774 21.6225C145.877 21.3833 145.948 21.1312 145.985 20.8731C146.035 20.5233 146.06 20.1704 146.061 19.8171V7.11087C146.101 6.49015 146.006 5.86807 145.782 5.2884C145.703 5.12234 145.584 4.97825 145.437 4.86849C145.29 4.75873 145.119 4.68657 144.938 4.6582H156.666L156.801 7.74959C156.665 7.31734 156.463 6.90928 156.201 6.54029C155.925 6.18973 155.58 5.89993 155.188 5.68867C154.437 5.26285 153.044 5.05847 150.916 5.05847H150.165C149.798 5.05488 149.431 5.07479 149.067 5.11808C148.84 5.12826 148.622 5.20853 148.442 5.34802C148.303 5.49022 148.209 5.67109 148.172 5.86751C148.111 6.14712 148.083 6.43291 148.087 6.71913V12.3654H150.62C151.185 12.3703 151.749 12.3362 152.309 12.2632C152.711 12.2173 153.105 12.12 153.483 11.9736C154.04 11.6984 154.47 11.2161 154.682 10.6281V14.7073H154.631C154.459 14.1671 154.107 13.7036 153.635 13.3958C152.771 13.064 151.845 12.933 150.924 13.0126H148.071V19.9193C148.071 20.7709 148.223 21.3415 148.543 21.6225C149.207 21.9136 149.935 22.0252 150.654 21.9461C151.573 21.9602 152.492 21.9261 153.407 21.8439C153.673 21.8268 153.938 21.7927 154.2 21.7417C154.448 21.7013 154.692 21.6356 154.926 21.5459C155.188 21.4445 155.442 21.325 155.686 21.1882C155.97 21.02 156.233 20.82 156.472 20.592C157.009 20.075 157.492 19.5043 157.915 18.8888L157.156 22.2953L144.93 22.2697Z" fill="#323232"/>
<path d="M165.886 4.57327C165.082 4.5054 164.277 4.67089 163.564 5.05018C163.314 5.28313 163.122 5.5713 163.002 5.89199C162.882 6.21268 162.837 6.55712 162.871 6.89819V13.626H163.015C163.184 13.6686 163.327 13.7026 163.446 13.7197C163.583 13.7337 163.722 13.7337 163.859 13.7197H164.906C166.494 13.8338 168.077 13.4501 169.44 12.6211C169.952 12.2238 170.358 11.7046 170.622 11.1101C170.886 10.5155 170.999 9.86422 170.952 9.2146C170.99 8.57071 170.89 7.92602 170.659 7.32478C170.427 6.72354 170.069 6.18 169.609 5.73147C168.564 4.86747 167.235 4.43261 165.886 4.51366V4.57327ZM173.586 23.7177C172.838 23.51 172.134 23.1665 171.509 22.7043C170.726 22.1008 170.025 21.3965 169.423 20.6093C168.691 19.6683 168.022 18.6781 167.422 17.6457C166.749 16.5006 166.184 15.2946 165.734 14.0433L165.692 13.9241H164.729L163.175 13.873H162.871V19.7747C162.828 20.3908 162.926 21.0087 163.159 21.5801C163.231 21.7531 163.347 21.9039 163.495 22.0174C163.643 22.131 163.818 22.2034 164.003 22.2274H159.781C159.966 22.2034 160.141 22.131 160.289 22.0174C160.437 21.9039 160.553 21.7531 160.626 21.5801C160.857 21.0052 160.958 20.3855 160.921 19.7662V7.12813C160.965 6.50372 160.867 5.87749 160.634 5.29715C160.554 5.13151 160.435 4.98779 160.288 4.87811C160.141 4.76842 159.97 4.696 159.79 4.66695L164.94 4.39443H165.784C167.702 4.29571 169.605 4.77924 171.247 5.78257C171.85 6.1601 172.345 6.68902 172.684 7.31752C173.023 7.94602 173.194 8.65255 173.181 9.3679C173.184 9.89807 173.077 10.423 172.866 10.9086C172.655 11.3943 172.345 11.8297 171.956 12.1868C171.463 12.6351 170.89 12.9848 170.268 13.2172C169.501 13.5282 168.698 13.74 167.878 13.8474H167.65L167.735 14.0603C168.241 15.3037 168.748 16.4534 169.255 17.4668C169.715 18.4371 170.228 19.381 170.791 20.2942C171.237 20.9887 171.722 21.6569 172.243 22.2955C172.944 23.1471 173.62 23.7773 173.62 23.7773" fill="#323232"/>
<path d="M181.083 22.6702C179.98 22.6764 178.884 22.4802 177.85 22.0911C176.863 21.7193 175.95 21.1712 175.156 20.4731L176.001 17.3476H176.186C176.443 18.7341 177.095 20.0153 178.061 21.0351C178.493 21.4677 179.005 21.8094 179.569 22.0404C180.133 22.2714 180.737 22.3871 181.345 22.3807C182.395 22.4256 183.42 22.0524 184.199 21.3417C184.563 20.9936 184.85 20.5715 185.041 20.1032C185.232 19.6348 185.322 19.131 185.305 18.625C185.343 17.6906 185.026 16.7768 184.418 16.0702C183.396 15.153 182.198 14.4573 180.898 14.0263C180.675 13.9529 180.458 13.8647 180.248 13.7623C179.06 13.3753 177.963 12.7496 177.022 11.9228C176.646 11.5031 176.344 11.0222 176.127 10.5006C175.924 9.98306 175.824 9.43044 175.832 8.87397C175.815 8.25209 175.931 7.63384 176.171 7.0609C176.411 6.48796 176.771 5.97365 177.225 5.55265C178.213 4.66231 179.507 4.19763 180.83 4.25818C181.246 4.25732 181.661 4.2915 182.071 4.36038C182.497 4.43019 182.915 4.5385 183.321 4.68399C184.187 5.00697 185.019 5.41785 185.803 5.91033L185.128 8.64403H184.993C184.727 7.53619 184.17 6.52117 183.38 5.70594C183.014 5.34332 182.579 5.05792 182.102 4.86638C181.625 4.67484 181.115 4.58099 180.602 4.59032C179.682 4.54447 178.778 4.84835 178.069 5.44194C177.746 5.73609 177.49 6.09833 177.321 6.50303C177.152 6.90773 177.073 7.345 177.09 7.7839C177.081 8.59333 177.384 9.37458 177.934 9.96405C178.828 10.7561 179.862 11.3715 180.982 11.778L181.674 12.0676C183.071 12.5515 184.376 13.2715 185.533 14.1966C185.942 14.6011 186.262 15.0888 186.47 15.6273C186.68 16.2233 186.786 16.8515 186.783 17.4839C186.801 18.1861 186.669 18.884 186.397 19.5305C186.124 20.1769 185.718 20.7569 185.204 21.231C184.089 22.2457 182.626 22.7806 181.126 22.7213" fill="#323232"/>
<path d="M189.012 22.2697C189.193 22.2385 189.363 22.1642 189.51 22.0532C189.657 21.9421 189.776 21.7974 189.856 21.631C189.962 21.3904 190.03 21.1347 190.059 20.8731C190.105 20.5259 190.127 20.1759 190.126 19.8256V7.11087C190.158 6.50519 190.066 5.89942 189.856 5.33098C189.78 5.15823 189.663 5.00674 189.516 4.88954C189.369 4.77234 189.196 4.69295 189.012 4.6582H193.233C193.051 4.67976 192.878 4.74832 192.73 4.85723C192.582 4.96614 192.465 5.11172 192.389 5.27989C192.165 5.86859 192.067 6.49837 192.102 7.12791V19.8085C192.07 20.4254 192.162 21.0423 192.372 21.6225C192.456 21.7837 192.576 21.923 192.723 22.0294C192.869 22.1358 193.038 22.2064 193.216 22.2357L189.012 22.2697Z" fill="#323232"/>
<path d="M202.251 4.79486C201.307 4.70765 200.356 4.86598 199.49 5.25474C199.229 5.48065 199.027 5.76859 198.903 6.09266C198.779 6.41674 198.737 6.76677 198.781 7.11127V20.107C198.753 20.3796 198.783 20.655 198.869 20.915C198.955 21.1749 199.094 21.4134 199.279 21.6144C199.892 21.9255 200.58 22.0554 201.263 21.9891C203.94 21.9891 205.865 21.3419 206.979 20.0559C208.094 18.77 208.668 16.6068 208.668 13.6006C208.668 10.5944 208.136 8.4909 207.089 7.02611C206.531 6.27872 205.798 5.68333 204.954 5.29376C204.111 4.90419 203.185 4.73272 202.26 4.79486H202.251ZM195.674 22.2701C195.858 22.2462 196.033 22.1738 196.182 22.0602C196.33 21.9466 196.446 21.7958 196.518 21.6229C196.623 21.3836 196.697 21.1317 196.738 20.8735C196.784 20.5235 196.807 20.1706 196.805 19.8175V7.09424C196.849 6.4769 196.756 5.85753 196.535 5.28028C196.455 5.11465 196.336 4.97092 196.189 4.86124C196.042 4.75156 195.871 4.67914 195.691 4.65008L199.338 4.53086H201.289C202.312 4.51294 203.335 4.58991 204.345 4.7608C205.109 4.90121 205.846 5.15974 206.532 5.52725C207.183 5.86472 207.78 6.29813 208.305 6.8132C208.859 7.38783 209.326 8.04218 209.69 8.7549C210.495 10.2732 210.908 11.9722 210.889 13.6943C210.946 14.8519 210.763 16.0089 210.351 17.0911C209.94 18.1733 209.309 19.157 208.499 19.9793C206.673 21.5843 204.298 22.4063 201.88 22.2701H195.674Z" fill="#323232"/>
<path d="M232.68 4.79493C231.785 4.7071 230.884 4.86605 230.071 5.2548C229.82 5.48738 229.627 5.77729 229.51 6.10029C229.392 6.42328 229.353 6.76997 229.396 7.11134V20.1071C229.368 20.3776 229.396 20.651 229.477 20.9103C229.558 21.1696 229.692 21.4093 229.869 21.6144C230.443 21.9245 231.095 22.0549 231.743 21.9892C234.276 21.9892 236.091 21.3419 237.155 20.056C238.219 18.77 238.743 16.6069 238.743 13.6007C238.743 10.5945 238.236 8.49096 237.248 7.02618C236.74 6.29052 236.053 5.69892 235.253 5.30819C234.454 4.91746 233.567 4.74071 232.68 4.79493ZM226.449 22.2702C226.623 22.2368 226.786 22.16 226.923 22.047C227.06 21.934 227.167 21.7882 227.234 21.623C227.326 21.3809 227.391 21.1296 227.429 20.8735C227.478 20.5238 227.504 20.1709 227.505 19.8175V7.09431C227.545 6.4778 227.456 5.85959 227.243 5.28035C227.171 5.11847 227.061 4.97659 226.923 4.86684C226.785 4.75709 226.622 4.68275 226.449 4.65015L229.894 4.53093H231.743C232.714 4.51275 233.683 4.58975 234.639 4.76086C236.074 5.03751 237.389 5.7543 238.405 6.81327C238.931 7.39362 239.372 8.0476 239.714 8.75497C240.479 10.2856 240.867 11.9801 240.845 13.6944C240.905 14.8408 240.736 15.9877 240.349 17.0672C239.962 18.1468 239.364 19.137 238.591 19.9793C237.753 20.7666 236.766 21.3753 235.69 21.7689C234.613 22.1626 233.469 22.3331 232.326 22.2702H226.449Z" fill="#323232"/>
<path d="M243.268 22.2697C243.451 22.2426 243.625 22.169 243.772 22.0558C243.92 21.9426 244.037 21.7935 244.112 21.6225C244.218 21.3849 244.286 21.132 244.315 20.8731C244.376 20.5246 244.404 20.171 244.399 19.8171V7.11087C244.439 6.49015 244.344 5.86807 244.12 5.2884C244.041 5.12234 243.922 4.97825 243.775 4.86849C243.628 4.75873 243.457 4.68657 243.276 4.6582H254.987L255.24 7.73256H255.122C254.966 7.3102 254.753 6.91178 254.489 6.5488C254.214 6.19634 253.869 5.90617 253.475 5.69718C252.724 5.27137 251.322 5.06698 249.195 5.06698H248.452C248.097 5.05942 247.741 5.07364 247.388 5.10956C247.161 5.12134 246.944 5.20145 246.763 5.3395C246.621 5.48092 246.524 5.66176 246.484 5.85899C246.427 6.13904 246.402 6.42475 246.408 6.71061V12.3569H248.941C249.506 12.3621 250.07 12.3279 250.63 12.2547C251.032 12.2099 251.427 12.1126 251.804 11.9651C252.361 11.6899 252.791 11.2076 253.003 10.6196V14.6988H252.952C252.78 14.1586 252.428 13.6951 251.956 13.3873C251.095 13.0559 250.172 12.9249 249.254 13.0041H246.392V19.9107C246.392 20.7624 246.544 21.333 246.864 21.614C247.529 21.9025 248.256 22.0139 248.975 21.9376C249.894 21.9519 250.813 21.9178 251.728 21.8354C251.994 21.8183 252.259 21.7842 252.521 21.7332C252.77 21.6938 253.013 21.6282 253.247 21.5373C253.509 21.436 253.763 21.3165 254.007 21.1797C254.291 21.0115 254.554 20.8115 254.793 20.5835C255.329 20.0684 255.81 19.4975 256.228 18.8803L256.405 18.9654L255.476 22.2953L243.268 22.2697Z" fill="#323232"/>
<path d="M220.58 22.2696H224.725C224.571 22.1952 224.428 22.0976 224.303 21.9801C224.147 21.8477 224.018 21.6856 223.923 21.5031C223.56 20.877 223.277 20.2076 223.079 19.5103L218.444 4.25781H217.278L213.057 17.9604C212.774 19.0261 212.351 20.0487 211.799 21.0007C211.449 21.5491 210.963 21.9954 210.389 22.2952H214.095C213.751 22.1742 213.455 21.9442 213.251 21.6394C213.031 21.2449 212.923 20.7971 212.939 20.3449L212.989 19.7062L213.141 18.9909L217.16 5.96106L221.086 19.7573L221.179 20.0724C221.247 20.3109 221.306 20.4982 221.34 20.66C221.367 20.7946 221.381 20.9315 221.382 21.0688C221.388 21.3439 221.292 21.6114 221.112 21.8182C220.976 22.0083 220.792 22.1583 220.58 22.2526" fill="#323232"/>
<path d="M236.716 74.5852H240.861C240.711 74.5115 240.572 74.4169 240.448 74.3042C240.289 74.1741 240.16 74.0116 240.068 73.8273C239.702 73.1998 239.418 72.5271 239.223 71.8259L234.588 56.5479H233.423L229.201 70.259C228.936 71.3237 228.521 72.3446 227.969 73.2907C227.621 73.8412 227.135 74.2881 226.559 74.5852H230.265C229.919 74.4728 229.621 74.2445 229.421 73.938C229.204 73.5426 229.099 73.0949 229.117 72.6435L229.159 72.0048L229.303 71.2894L233.322 58.3022L237.256 72.0899L237.349 72.4136C237.411 72.6062 237.462 72.8024 237.501 73.0012C237.53 73.1328 237.547 73.2667 237.552 73.4014C237.558 73.6791 237.461 73.9491 237.282 74.1594C237.142 74.3475 236.956 74.4946 236.741 74.5852" fill="#323232"/>
<path d="M191.113 75.0791C190.076 75.0999 189.045 74.9207 188.074 74.5511C187.266 74.2351 186.559 73.702 186.031 73.0097C185.644 72.5106 185.378 71.9274 185.254 71.3064C185.054 70.1999 184.972 69.0751 185.009 67.951V59.4348C185.042 58.8319 184.95 58.2287 184.739 57.6634C184.661 57.4899 184.545 57.3371 184.398 57.2173C184.251 57.0975 184.079 57.0141 183.895 56.9736H188.167C187.985 56.9968 187.813 57.0659 187.665 57.1747C187.517 57.2834 187.4 57.4281 187.322 57.5953C187.102 58.1818 187.007 58.8087 187.044 59.4348V68.5046C187.044 70.6422 187.407 72.1836 188.116 73.0948C188.825 74.0061 190.075 74.4915 191.789 74.4915C192.48 74.499 193.168 74.4043 193.832 74.2104C194.11 74.127 194.379 74.0158 194.634 73.8783C194.891 73.7306 195.139 73.5685 195.377 73.3929C195.976 72.8534 196.405 72.1487 196.61 71.366C196.752 70.8079 196.842 70.2377 196.88 69.6628C196.939 68.9389 196.965 68.1043 196.965 67.1846V61.1636C197.01 60.1919 196.869 59.2205 196.551 58.3022C196.452 58.0102 196.287 57.7457 196.068 57.5298C195.85 57.3139 195.584 57.1526 195.293 57.0588H198.923C198.647 57.1696 198.399 57.3397 198.195 57.5574C197.99 57.7751 197.836 58.0351 197.741 58.3192C197.452 59.2756 197.329 60.2755 197.378 61.2743V67.1931C197.407 68.4618 197.319 69.7304 197.117 70.9828C196.995 71.6897 196.728 72.3629 196.331 72.9586C195.809 73.6669 195.101 74.2152 194.288 74.5426C193.275 74.9291 192.196 75.1114 191.113 75.0791Z" fill="#323232"/>
<path d="M159.173 75.0791C158.135 75.1005 157.104 74.9213 156.133 74.5511C155.322 74.2376 154.612 73.7042 154.081 73.0097C153.695 72.5106 153.429 71.9274 153.305 71.3064C153.109 70.1994 153.027 69.075 153.06 67.951V59.4348C153.092 58.8319 153 58.2287 152.79 57.6634C152.713 57.4891 152.597 57.3357 152.45 57.2157C152.303 57.0958 152.13 57.0128 151.945 56.9736H156.201C156.019 56.9952 155.846 57.0637 155.698 57.1727C155.55 57.2816 155.432 57.4272 155.356 57.5953C155.132 58.181 155.034 58.808 155.069 59.4348V68.5046C155.069 70.6421 155.432 72.1836 156.15 73.0948C156.868 74.0061 158.109 74.4915 159.814 74.4915C160.505 74.4996 161.194 74.4049 161.858 74.2104C162.135 74.127 162.404 74.0157 162.66 73.8783C162.919 73.7306 163.17 73.5686 163.411 73.3929C164.005 72.849 164.432 72.146 164.644 71.366C164.779 70.8067 164.866 70.237 164.906 69.6628C164.965 68.9389 164.999 68.1043 164.999 67.1846V61.1636C165.041 60.1913 164.898 59.2198 164.576 58.3022C164.474 58.0137 164.306 57.7534 164.086 57.542C163.866 57.3305 163.6 57.1738 163.31 57.0843H166.932C166.657 57.1966 166.409 57.3673 166.205 57.5847C166.001 57.8022 165.846 58.0614 165.75 58.3447C165.465 59.3021 165.342 60.3012 165.387 61.2999V67.1931C165.42 68.4618 165.332 69.7309 165.125 70.9828C165.007 71.6907 164.74 72.3646 164.34 72.9586C163.819 73.6688 163.111 74.2176 162.297 74.5426C161.286 74.9291 160.211 75.1114 159.131 75.0791" fill="#323232"/>
<path d="M199.785 74.6782C199.969 74.6534 200.144 74.5807 200.292 74.4673C200.44 74.3538 200.556 74.2034 200.629 74.031C200.732 73.7888 200.803 73.5339 200.841 73.273C200.895 72.9266 200.92 72.5762 200.917 72.2255V59.5194C200.958 58.9013 200.863 58.2818 200.638 57.7054C200.558 57.5398 200.439 57.396 200.292 57.2864C200.145 57.1767 199.974 57.1042 199.794 57.0752H211.521L211.656 60.1666C211.501 59.7442 211.288 59.3458 211.023 58.9828C210.744 58.6346 210.4 58.3452 210.01 58.1312C209.258 57.7139 207.865 57.5095 205.729 57.5095H204.986C204.62 57.5042 204.253 57.5212 203.889 57.5606C203.663 57.5733 203.448 57.6567 203.272 57.7991C203.124 57.9358 203.026 58.1188 202.994 58.3186C202.933 58.5982 202.904 58.884 202.909 59.1702V64.7228H205.442C206.007 64.7277 206.571 64.6935 207.131 64.6206C207.533 64.5723 207.927 64.4722 208.304 64.3225C208.848 64.0554 209.271 63.5895 209.486 63.0195V67.0903C209.308 66.5532 208.954 66.0936 208.482 65.7873C207.62 65.4505 206.693 65.3166 205.771 65.3955H202.918V72.3022C202.918 73.1538 203.07 73.7244 203.39 74.0054C204.049 74.3043 204.775 74.419 205.493 74.3376C206.414 74.3518 207.336 74.3177 208.254 74.2354C208.549 74.2354 208.819 74.1758 209.047 74.1332C209.291 74.0857 209.531 74.0202 209.765 73.9373C210.028 73.8363 210.282 73.7138 210.525 73.5711C210.81 73.4056 211.076 73.2085 211.319 72.9835C211.855 72.4678 212.336 71.897 212.754 71.2802L212.002 74.6867L199.785 74.6782Z" fill="#323232"/>
<path d="M127.933 56.9566C127.133 56.8904 126.33 57.0558 125.62 57.4335C125.369 57.6652 125.176 57.9532 125.055 58.2742C124.935 58.5953 124.891 58.9403 124.928 59.2815V65.9753H125.063L125.493 66.0689C125.631 66.0827 125.769 66.0827 125.907 66.0689H126.962C128.547 66.183 130.128 65.7992 131.488 64.9704C132.001 64.574 132.409 64.0552 132.674 63.4606C132.94 62.866 133.054 62.2142 133.008 61.5639C133.044 60.9202 132.943 60.2762 132.711 59.6753C132.48 59.0744 132.123 58.5306 131.665 58.0807C130.618 57.2154 129.285 56.7805 127.933 56.8629V56.9566ZM135.642 76.067C134.894 75.861 134.19 75.5175 133.565 75.0535C132.779 74.4503 132.076 73.746 131.471 72.9586C130.741 72.0175 130.075 71.0273 129.478 69.9949C128.805 68.8499 128.24 67.6439 127.79 66.3926L127.748 66.2733H126.785L125.24 66.2222H124.961V72.2176C124.918 72.8337 125.016 73.4516 125.248 74.0231C125.319 74.197 125.435 74.3487 125.583 74.4625C125.732 74.5763 125.908 74.648 126.093 74.6703H121.871C122.055 74.6432 122.228 74.5696 122.376 74.4564C122.524 74.3432 122.64 74.1941 122.715 74.0231C122.939 73.4463 123.037 72.8276 123.002 72.2091V59.52C123.047 58.8955 122.949 58.2692 122.715 57.689C122.638 57.5211 122.52 57.3755 122.373 57.2654C122.225 57.1553 122.053 57.0843 121.871 57.0588L127.013 56.7863H127.857C129.775 56.6865 131.678 57.1701 133.32 58.1744C133.933 58.5444 134.439 59.0703 134.787 59.6995C135.136 60.3287 135.314 61.0392 135.304 61.7597C135.307 62.291 135.199 62.8169 134.988 63.3038C134.777 63.7907 134.468 64.2278 134.08 64.5871C133.583 65.0277 133.011 65.3739 132.391 65.6091C131.625 65.9229 130.822 66.1348 130.002 66.2393H129.774L129.858 66.4607C130.365 67.6955 130.872 68.8452 131.37 69.8672C131.829 70.8397 132.345 71.7838 132.915 72.6946C133.326 73.3783 133.771 74.0406 134.249 74.6788C134.95 75.5305 135.634 76.1606 135.634 76.1606" fill="#323232"/>
<path d="M220.631 75.0794C219.525 75.0876 218.427 74.8943 217.389 74.5088C216.403 74.13 215.492 73.5794 214.695 72.8822L215.54 69.7568H215.717C215.981 71.1428 216.634 72.423 217.6 73.4443C218.031 73.878 218.543 74.2205 219.107 74.4516C219.671 74.6826 220.275 74.7977 220.884 74.7899C221.933 74.8458 222.962 74.4816 223.746 73.7764C224.109 73.4273 224.394 73.0047 224.583 72.5365C224.773 72.0683 224.861 71.565 224.844 71.0598C224.892 70.1312 224.59 69.2187 224 68.5049C222.975 67.5863 221.774 66.8906 220.47 66.461C220.352 66.4184 220.141 66.3418 219.829 66.197C218.634 65.808 217.533 65.1729 216.595 64.332C216.222 63.9137 215.919 63.436 215.7 62.9183C215.385 62.074 215.321 61.1553 215.516 60.2748C215.711 59.3944 216.156 58.5905 216.798 57.9618C217.776 57.076 219.055 56.6034 220.369 56.6418C220.782 56.6424 221.194 56.6737 221.602 56.7355C222.043 56.807 222.478 56.9152 222.902 57.0591C223.773 57.3783 224.608 57.7894 225.393 58.2854L224.709 61.0191H224.574C224.318 59.9092 223.763 58.8923 222.97 58.0811C222.601 57.7189 222.165 57.434 221.687 57.2425C221.209 57.051 220.698 56.9569 220.183 56.9654C219.263 56.9187 218.359 57.2227 217.65 57.8171C217.328 58.1099 217.073 58.4707 216.903 58.8739C216.734 59.2771 216.655 59.7129 216.671 60.1505C216.651 60.9567 216.938 61.74 217.473 62.3392C218.373 63.1279 219.409 63.7428 220.53 64.1531L221.222 64.4427C222.617 64.9248 223.919 65.6449 225.072 66.5717C225.486 66.9724 225.806 67.4612 226.009 68.0024C226.109 68.28 226.188 68.5647 226.246 68.8541C226.284 69.179 226.295 69.5066 226.279 69.8334C226.297 70.5368 226.165 71.2359 225.893 71.8837C225.621 72.5314 225.214 73.1129 224.701 73.5891C223.584 74.5984 222.121 75.1298 220.622 75.0709" fill="#323232"/>
<path d="M96.4218 56.9565C95.6672 56.9006 94.9106 57.0322 94.2181 57.3398C93.973 57.5434 93.7832 57.8066 93.6665 58.1045C93.5498 58.4024 93.5101 58.7253 93.5511 59.043V66.154L94.6572 66.2903H95.2482H95.7548C97.2755 66.4 98.7887 65.9922 100.052 65.1321C100.547 64.7033 100.936 64.165 101.189 63.5592C101.443 62.9534 101.553 62.2967 101.513 61.6404C101.55 60.9975 101.45 60.354 101.22 59.7532C100.99 59.1524 100.635 58.6083 100.179 58.1573C99.1249 57.285 97.7828 56.847 96.4218 56.931V56.9565ZM90.4355 74.5851C90.6206 74.5662 90.797 74.4968 90.9458 74.3842C91.0946 74.2717 91.2101 74.1203 91.2799 73.9464C91.3771 73.7057 91.4451 73.4541 91.4825 73.1969C91.5368 72.8505 91.5622 72.5001 91.5585 72.1494V59.4688C91.5854 58.8515 91.4907 58.235 91.2799 57.6548C91.2034 57.4797 91.0871 57.3252 90.9404 57.2039C90.7938 57.0826 90.6208 56.9978 90.4355 56.9565L93.1712 56.7947L94.6825 56.7181H95.7041C97.7423 56.6063 99.7697 57.085 101.547 58.0977C102.161 58.4645 102.673 58.9823 103.035 59.6029C103.397 60.2234 103.597 60.9263 103.616 61.646C103.635 62.3656 103.474 63.0785 103.146 63.7179C102.818 64.3574 102.335 64.9025 101.741 65.3024C100.103 66.2721 98.2157 66.7259 96.3205 66.6054H95.6113C95.2651 66.6054 95.0793 66.6054 95.0371 66.6054L93.5511 66.418V72.2261C93.5148 72.8439 93.6098 73.4623 93.8297 74.04C93.9031 74.2092 94.0202 74.3553 94.1687 74.4632C94.3172 74.571 94.4918 74.6367 94.6741 74.6532L90.4355 74.5851Z" fill="#323232"/>
<path d="M112.59 56.8198C111.789 56.8069 111.001 57.0243 110.318 57.4465C109.634 57.8688 109.084 58.4785 108.732 59.2043C107.837 60.7543 107.389 62.994 107.389 65.8555C107.373 67.1481 107.475 68.4395 107.693 69.7133C107.86 70.6795 108.182 71.6116 108.647 72.4726C109.061 73.1597 109.644 73.7269 110.34 74.1189C111.036 74.5109 111.821 74.7142 112.618 74.709C113.414 74.7039 114.196 74.4904 114.887 74.0895C115.578 73.6886 116.154 73.1139 116.559 72.4215C117.014 71.5201 117.325 70.5513 117.479 69.5515C117.705 68.1954 117.809 66.8216 117.792 65.4467C117.792 62.6364 117.361 60.4732 116.508 59.034C116.124 58.3338 115.554 57.7557 114.862 57.3645C114.17 56.9733 113.383 56.7847 112.59 56.8198ZM112.59 74.9764C112.11 74.9807 111.63 74.9437 111.155 74.8656C110.727 74.7986 110.307 74.6814 109.906 74.5165C109.513 74.3523 109.136 74.1498 108.783 73.9118C108.397 73.6403 108.032 73.3385 107.693 73.0091C106.828 72.1275 106.167 71.0628 105.76 69.8922C105.301 68.5825 105.072 67.202 105.084 65.8129C105.079 65.1084 105.132 64.4047 105.245 63.7094C105.357 63.0679 105.535 62.44 105.777 61.8358C106.273 60.6252 107.005 59.5276 107.93 58.6082C108.242 58.2949 108.581 58.01 108.943 57.7566C109.313 57.5043 109.706 57.2876 110.117 57.1093C110.938 56.7657 111.819 56.5892 112.709 56.5898C113.549 56.5906 114.381 56.7465 115.166 57.0497C115.538 57.1975 115.896 57.377 116.238 57.5862C116.573 57.7922 116.885 58.035 117.167 58.3101C118.133 59.2745 118.897 60.4252 119.414 61.6937C119.93 62.9622 120.188 64.3225 120.173 65.6937C120.178 66.9654 119.961 68.2282 119.531 69.4238C119.101 70.6043 118.46 71.6954 117.64 72.6429C117.027 73.3859 116.26 73.9847 115.394 74.3972C114.513 74.7957 113.556 74.9962 112.59 74.9849" fill="#323232"/>
<path d="M141.382 74.6103C141.564 74.5879 141.737 74.5191 141.885 74.4103C142.033 74.3014 142.15 74.1563 142.227 73.9886C142.44 73.4181 142.532 72.8088 142.497 72.2002V58.3784C142.516 58.1236 142.461 57.8688 142.337 57.646C142.246 57.5579 142.136 57.4916 142.016 57.4518C141.896 57.412 141.769 57.3998 141.644 57.416C140.557 57.3734 139.477 57.6078 138.503 58.0973C137.64 58.6489 136.911 59.3879 136.367 60.2605L137.212 56.9902H149.868L150.712 60.2605C150.254 59.3318 149.515 58.5742 148.601 58.0973C147.63 57.6095 146.553 57.3752 145.469 57.416C145.343 57.3985 145.214 57.41 145.092 57.4498C144.971 57.4897 144.86 57.5567 144.768 57.646C144.624 57.8612 144.559 58.1199 144.582 58.3784V72.2002C144.544 72.8161 144.642 73.4329 144.87 74.0056C144.946 74.1721 145.063 74.3156 145.212 74.4217C145.36 74.5278 145.533 74.5928 145.714 74.6103H141.382Z" fill="#323232"/>
<path d="M175.08 75.241C173.984 75.2612 172.899 75.0189 171.913 74.5341C171.444 74.2716 171.002 73.9605 170.596 73.6059C170.148 73.2082 169.739 72.7691 169.372 72.2944C168.778 71.4814 168.322 70.575 168.021 69.6118C167.3 67.18 167.377 64.5782 168.241 62.1941C168.707 60.9547 169.419 59.8244 170.334 58.8728C170.694 58.5209 171.08 58.1991 171.491 57.9105C171.919 57.6285 172.371 57.3862 172.842 57.1866C173.824 56.7993 174.87 56.6028 175.924 56.6075C176.853 56.6172 177.774 56.793 178.643 57.127C179.61 57.5073 180.531 57.9988 181.387 58.5918L180.737 61.317C180.266 60.0837 179.49 58.9928 178.482 58.1489C177.568 57.3723 176.41 56.947 175.215 56.9482C174.381 56.922 173.556 57.1244 172.827 57.5338C172.099 57.9432 171.494 58.5443 171.077 59.2731C170.14 60.7975 169.659 63.0287 169.659 65.8987C169.659 68.7687 170.157 71.1021 171.12 72.6435C171.568 73.3956 172.21 74.0117 172.977 74.4268C173.743 74.842 174.607 75.0409 175.476 75.0025C176.541 75.0539 177.593 74.755 178.474 74.1509C178.851 73.8789 179.156 73.5177 179.362 73.0989C179.568 72.6801 179.669 72.2167 179.656 71.7493V66.9121C179.657 66.6419 179.623 66.3728 179.555 66.1116C179.488 65.873 179.385 65.6461 179.251 65.4388C179.07 65.2406 178.835 65.1013 178.575 65.0386L178.128 64.9193H182.113C181.922 65.0116 181.761 65.1562 181.648 65.3366C181.443 65.6992 181.341 66.1116 181.353 66.5289V71.2809C181.332 71.7235 181.434 72.1631 181.648 72.5499C181.712 72.6723 181.8 72.7796 181.908 72.8648C182.016 72.95 182.14 73.011 182.273 73.0438C181.606 73.41 180.99 73.7251 180.458 73.9721C179.858 74.2483 179.24 74.4844 178.609 74.6789C177.466 75.041 176.277 75.2304 175.08 75.241Z" fill="#323232"/>
<path d="M28.0233 47.1712C28.0136 47.0712 28.0277 46.9704 28.0644 46.8771C28.1011 46.7838 28.1594 46.7006 28.2344 46.6346C28.4566 46.5232 28.705 46.476 28.9521 46.4984C29.3693 46.4718 29.7815 46.6023 30.1088 46.8646C30.2514 46.9988 30.3632 47.1629 30.4361 47.3453C30.509 47.5278 30.5414 47.7241 30.531 47.9206C30.5436 48.1164 30.5078 48.3123 30.4267 48.4907C30.3457 48.6691 30.2219 48.8244 30.0666 48.9425C29.6301 49.1988 29.1264 49.3147 28.6228 49.2747H28.1584H28.0233V47.1712ZM26.9004 46.5154C26.9588 46.516 27.0158 46.5331 27.065 46.5647C27.1143 46.5963 27.1538 46.6412 27.179 46.6943C27.2494 46.8697 27.2783 47.0592 27.2635 47.2478V51.2589C27.2753 51.4447 27.2464 51.6308 27.179 51.804C27.1538 51.8571 27.1143 51.902 27.065 51.9336C27.0158 51.9652 26.9588 51.9823 26.9004 51.9828V52.0935H28.3948V51.9488C28.3358 51.9515 28.2773 51.9358 28.2275 51.9038C28.1776 51.8718 28.1388 51.825 28.1162 51.7699C28.0436 51.598 28.0118 51.4114 28.0233 51.2249V49.4535H28.0656H28.5722H28.8339C28.9853 49.8527 29.1718 50.2375 29.3911 50.6032C29.5895 50.9328 29.8095 51.2486 30.0497 51.5485C30.2474 51.7996 30.4774 52.023 30.7336 52.2128C30.9687 52.3902 31.2274 52.5336 31.502 52.6386V52.2809C31.3042 52.174 31.1247 52.036 30.97 51.8721C30.8294 51.7108 30.6996 51.5401 30.5816 51.3611C30.4381 51.1227 30.2692 50.8246 30.0919 50.5095C29.9146 50.1944 29.7626 49.8197 29.6022 49.4365C29.871 49.3998 30.1346 49.3312 30.3874 49.2321C30.5937 49.1514 30.7849 49.0363 30.9531 48.8914C31.0844 48.7746 31.1887 48.6302 31.2587 48.4684C31.3287 48.3065 31.3628 48.1312 31.3584 47.9547C31.3594 47.7189 31.3 47.4869 31.1861 47.281C31.0723 47.0752 30.9077 46.9024 30.7083 46.7794C30.1588 46.4568 29.5279 46.3029 28.893 46.3366H28.6228H28.1584L26.9004 46.3962V46.5154Z" fill="#323232"/>
<path d="M25.7348 42.6407L26.2921 42.3427L26.8325 42.6407L26.7227 42.0191L27.1618 41.5847L26.5538 41.4996L26.2921 40.9375L26.0219 41.4996L25.3887 41.5847L25.8362 42.0191L25.7348 42.6407Z" fill="#323232"/>
<path d="M74.8078 40.0771C74.7903 40.1143 74.7675 40.1487 74.7403 40.1793L74.6305 40.256C74.5116 40.3229 74.3836 40.3717 74.2506 40.4008L70.6875 41.3546V41.6782L73.8453 42.913C74.0232 42.9799 74.1909 43.0716 74.3434 43.1856C74.4005 43.233 74.4515 43.2874 74.4954 43.3474C74.5319 43.4026 74.5604 43.4628 74.5798 43.5262H74.6727L74.7234 42.5809H74.6389C74.6258 42.6184 74.6058 42.6531 74.5798 42.6831C74.5569 42.7172 74.5246 42.7438 74.487 42.7598C74.4041 42.8045 74.3106 42.8252 74.2168 42.8194H74.0901H73.9719L71.3123 41.7293L74.3012 40.9543H74.4279C74.4582 40.9456 74.4904 40.9456 74.5207 40.9543C74.5481 40.9543 74.5751 40.9598 74.6003 40.9706C74.6254 40.9814 74.6482 40.9973 74.6671 41.0172C74.686 41.0371 74.7008 41.0606 74.7104 41.0864C74.7201 41.1122 74.7245 41.1397 74.7234 41.1672H74.8078L74.8754 40.1027L74.8078 40.0771Z" fill="#323232"/>
<path d="M34.6182 51.9493C34.5611 51.9478 34.5054 51.9312 34.4565 51.9014C34.4077 51.8715 34.3674 51.8293 34.3396 51.779C34.2732 51.6055 34.2444 51.4196 34.2551 51.234V47.2313C34.2436 47.0449 34.2754 46.8582 34.348 46.6863C34.3693 46.6327 34.407 46.5873 34.4556 46.5567C34.5041 46.5261 34.5611 46.5118 34.6182 46.516V46.4053H33.1406V46.516C33.1978 46.5174 33.2532 46.5359 33.2999 46.5693C33.3465 46.6027 33.3822 46.6494 33.4024 46.7033C33.4701 46.8705 33.499 47.0512 33.4868 47.2313V51.2595C33.5004 51.3641 33.5004 51.47 33.4868 51.5746C33.4846 51.6521 33.4643 51.7279 33.4277 51.796C33.4062 51.8484 33.37 51.8933 33.3234 51.9251C33.2769 51.9569 33.2221 51.9742 33.166 51.9749V52.0856H34.6182V51.9493Z" fill="#323232"/>
<path d="M72.9243 47.5884C72.796 47.5635 72.6642 47.5635 72.5359 47.5884C72.4061 47.6058 72.2803 47.6462 72.1644 47.7076C71.9215 47.8733 71.7123 48.0843 71.548 48.3293C71.5134 48.372 71.4823 48.4176 71.4552 48.4656C71.2823 48.7243 71.0615 48.9469 70.805 49.1213C70.6207 49.1953 70.4153 49.1953 70.2309 49.1213C70.1265 49.0943 70.0292 49.0444 69.9461 48.9753C69.8629 48.9061 69.7958 48.8193 69.7496 48.721C69.6974 48.6194 69.6659 48.5082 69.6572 48.3941C69.6485 48.28 69.6627 48.1653 69.699 48.0568C69.7325 47.9242 69.7924 47.8 69.8751 47.6916C69.9579 47.5832 70.0617 47.4931 70.1802 47.4266C70.4553 47.2719 70.7699 47.2037 71.0837 47.2307L71.1343 47.137L70.4589 46.7197C70.2443 46.8625 70.0582 47.0444 69.9101 47.2563C69.762 47.4717 69.6507 47.7106 69.5808 47.9631C69.4693 48.3023 69.4935 48.6721 69.6483 48.9936C69.7206 49.1407 69.8237 49.2702 69.9506 49.3732C70.0774 49.4761 70.2249 49.55 70.3829 49.5897C70.4587 49.5963 70.535 49.5963 70.6108 49.5897H70.8219C70.9534 49.5743 71.08 49.5307 71.1934 49.462C71.4782 49.261 71.7219 49.0066 71.9111 48.7125L72.0124 48.5763C72.1688 48.3556 72.3633 48.1652 72.5866 48.0142C72.6628 47.9821 72.7446 47.9656 72.8272 47.9656C72.9098 47.9656 72.9916 47.9821 73.0678 48.0142C73.1576 48.0334 73.2418 48.0733 73.3136 48.131C73.3854 48.1886 73.4429 48.2624 73.4815 48.3463C73.5527 48.5386 73.5527 48.7502 73.4815 48.9425C73.4537 49.0528 73.4043 49.1563 73.3361 49.247C73.268 49.3377 73.1825 49.4137 73.0847 49.4705C72.8624 49.6012 72.6071 49.6633 72.3502 49.6493V49.7345L72.9496 50.0922C73.1156 49.9376 73.2656 49.7664 73.3971 49.5812L73.5575 49.3087C73.5575 49.2235 73.6166 49.1298 73.6504 49.0361C73.7448 48.7321 73.7206 48.4031 73.5829 48.1164C73.5179 47.9859 73.4265 47.8707 73.3145 47.7782C73.2025 47.6858 73.0724 47.6182 72.9327 47.5799" fill="#323232"/>
<path d="M71.2879 54.5973C71.1622 54.5889 71.0391 54.5571 70.9248 54.5036L68.3918 53.2687C68.3202 53.2366 68.2522 53.1966 68.1892 53.1495C68.1429 53.1245 68.1026 53.0896 68.071 53.0473C68.047 53.0139 68.034 52.9736 68.034 52.9323C68.034 52.8911 68.047 52.8508 68.071 52.8174H67.995L67.5391 53.7797H67.6066C67.6268 53.7427 67.656 53.7116 67.6914 53.6892C67.7269 53.6669 67.7675 53.654 67.8092 53.652C67.9371 53.6659 68.0608 53.7065 68.1723 53.7712L70.7053 55.006C70.827 55.0552 70.9366 55.1308 71.0261 55.2275C71.049 55.2614 71.0612 55.3014 71.0612 55.3424C71.0612 55.3834 71.049 55.4235 71.0261 55.4574H71.1106L71.558 54.5036H71.4989C71.4759 54.5391 71.4446 54.5685 71.4079 54.5893C71.3711 54.61 71.33 54.6215 71.2879 54.6228" fill="#323232"/>
<path d="M68.2817 58.762C68.3992 58.9687 68.4549 59.2054 68.4421 59.4433C68.4054 59.6903 68.3033 59.9227 68.1466 60.1161C68.1466 60.1757 68.0706 60.2013 68.0453 60.2013C67.9959 60.1994 67.9485 60.1815 67.9102 60.1502L65.3772 58.3192C65.261 58.2562 65.1645 58.1619 65.0986 58.0467C65.0757 58.0128 65.0635 57.9727 65.0635 57.9317C65.0635 57.8907 65.0757 57.8506 65.0986 57.8167L65.0479 57.7656L64.4062 58.6172L64.4654 58.6683C64.4874 58.633 64.5189 58.6046 64.5563 58.5865C64.5936 58.5684 64.6353 58.5614 64.6764 58.5661C64.8082 58.6003 64.9317 58.6612 65.0395 58.745L67.5725 60.5675C67.6316 60.5675 67.6653 60.6441 67.6653 60.6782C67.6746 60.6997 67.6794 60.7229 67.6794 60.7463C67.6794 60.7697 67.6746 60.7929 67.6653 60.8144C67.531 61.0238 67.3447 61.194 67.125 61.3084C66.907 61.3922 66.6701 61.4129 66.4411 61.368V61.4787L67.201 61.7768L68.974 59.3156L68.3915 58.762H68.2817Z" fill="#323232"/>
<path d="M63.265 65.3708L61.3991 64.2808L62.3363 63.4291L63.265 65.3708ZM62.0239 62.1687C61.9982 62.0232 62.022 61.8731 62.0914 61.7429L62.0239 61.6748L61.3231 62.3391L61.3907 62.3987C61.423 62.3745 61.46 62.3575 61.4993 62.3487C61.5385 62.3399 61.5792 62.3395 61.6186 62.3476C61.7054 62.376 61.7837 62.4257 61.8466 62.4924L61.9395 62.6031L62.0154 62.7478L62.2603 63.2673L61.2471 64.2297L60.5885 63.855L60.521 63.8124L60.4112 63.7442L60.3437 63.6932C60.3084 63.653 60.2876 63.602 60.2846 63.5484C60.2857 63.4933 60.3034 63.4398 60.3352 63.3951L60.2761 63.3355L59.5078 64.0593L59.5585 64.119H59.6682C59.7158 64.111 59.7642 64.111 59.8118 64.119C59.9619 64.1611 60.1045 64.2272 60.2339 64.3148L63.4086 66.0692L63.645 65.8392L62.2603 62.8756C62.1492 62.6583 62.0696 62.4259 62.0239 62.1858" fill="#323232"/>
<path d="M25.2799 50.9437L25.1448 50.8756C24.9998 51.081 24.8328 51.2695 24.6466 51.4377C24.572 51.5053 24.493 51.5679 24.4102 51.625L24.1738 51.7272C24.0997 51.754 24.0234 51.7739 23.9458 51.7868H23.6841C23.4028 51.8023 23.121 51.8023 22.8398 51.7868C22.6195 51.8082 22.3972 51.7791 22.1896 51.7017C22.0869 51.5624 22.0415 51.3885 22.063 51.2162V49.0872H22.9073C23.194 49.0655 23.4819 49.1062 23.7516 49.2064C23.9015 49.3037 24.0123 49.4516 24.064 49.6237H24.1738V48.2867H24.064C24.0323 48.3797 23.9823 48.4654 23.917 48.5386C23.8518 48.6117 23.7725 48.6709 23.6841 48.7125C23.5675 48.7576 23.4454 48.7863 23.321 48.7976C23.1439 48.8077 22.9663 48.8077 22.7891 48.7976H22.0292V47.0944C22.0186 47.0124 22.0186 46.9294 22.0292 46.8474C22.0358 46.7931 22.0594 46.7424 22.0967 46.7026C22.1488 46.6723 22.2061 46.6521 22.2656 46.643H22.8566C23.3178 46.6072 23.7813 46.6711 24.216 46.8304C24.3352 46.895 24.4389 46.9851 24.52 47.0944C24.6132 47.2155 24.6873 47.3506 24.7395 47.4946H24.883L24.7817 46.4131H20.9062V46.5323C20.9646 46.5329 21.0217 46.5499 21.0709 46.5816C21.1202 46.6132 21.1596 46.6581 21.1849 46.7112C21.246 46.8829 21.2719 47.0655 21.2609 47.2477V51.2673C21.2609 51.3866 21.2609 51.4973 21.2609 51.5909C21.2485 51.6675 21.2257 51.742 21.1933 51.8124C21.1723 51.8668 21.135 51.9133 21.0866 51.9453C21.0381 51.9774 20.981 51.9934 20.9231 51.9912V52.1019H24.9759L25.2799 50.9437Z" fill="#323232"/>
<path d="M28.3273 54.649L28.0571 54.0869L27.7869 54.649L27.1621 54.7427L27.618 55.177L27.5083 55.7901L28.0571 55.5006L28.6059 55.7901L28.5046 55.177L28.9521 54.7427L28.3273 54.649Z" fill="#323232"/>
<path d="M22.046 36.2535L21.7674 35.6914L21.4888 36.2535L20.8809 36.3472L21.3199 36.7815L21.2101 37.4032L21.7674 37.1136L22.3162 37.4032L22.2064 36.7815L22.6539 36.3472L22.046 36.2535Z" fill="#323232"/>
<path d="M21.1082 9.18922C21.1619 9.36331 21.2326 9.53161 21.3192 9.69168C21.5441 10.1707 21.9387 10.5475 22.4253 10.7477C22.807 10.8656 23.2165 10.8546 23.5914 10.7162C23.9663 10.5779 24.2862 10.3198 24.5023 9.98123C24.6655 9.67685 24.7579 9.33904 24.7725 8.99335H24.6712C24.6591 9.13881 24.6279 9.28201 24.5783 9.41916C24.5475 9.53959 24.4929 9.65254 24.4179 9.75129C24.2967 9.96744 24.1145 10.1423 23.8944 10.2537C23.7052 10.3523 23.4953 10.4038 23.2823 10.4038C23.0693 10.4038 22.8594 10.3523 22.6701 10.2537C22.2186 10.0061 21.8554 9.6219 21.6316 9.15515C21.4037 8.76761 21.3005 8.31836 21.3361 7.8692C21.3469 7.69153 21.4031 7.5197 21.4993 7.37045C21.5954 7.22121 21.7283 7.09963 21.8849 7.01758C22.1062 6.88571 22.3697 6.84599 22.6195 6.90687C22.8978 6.97985 23.1515 7.12692 23.3541 7.33268H23.4554L23.3372 6.64287C23.0765 6.60863 22.8126 6.60863 22.5519 6.64287C22.3462 6.67569 22.145 6.73286 21.9525 6.81319C21.7679 6.92171 21.5977 7.05333 21.4459 7.20494C21.382 7.2837 21.3228 7.36617 21.2686 7.45191C21.2208 7.52987 21.1812 7.61264 21.1504 7.69888C21.0387 8.00932 21.0011 8.34191 21.0406 8.66973C21.0499 8.8413 21.0841 9.01058 21.1419 9.17219" fill="#323232"/>
<path d="M65.0136 20.3199C65.3355 20.4348 65.6801 20.4698 66.0183 20.4221V20.3199C65.8751 20.3331 65.7309 20.3331 65.5877 20.3199C65.4651 20.3041 65.3455 20.2696 65.2331 20.2177C65.0058 20.1289 64.8071 19.9786 64.659 19.7833C64.5273 19.6151 64.4397 19.4162 64.4043 19.2048C64.3689 18.9935 64.3868 18.7766 64.4563 18.574C64.612 18.0767 64.9268 17.6455 65.3513 17.3477C65.6909 17.053 66.1127 16.8715 66.5587 16.8282C66.7311 16.8151 66.904 16.8456 67.0618 16.917C67.2196 16.9884 67.3572 17.0984 67.4621 17.237C67.6275 17.4398 67.7091 17.699 67.6901 17.9609C67.6716 18.2512 67.5688 18.5296 67.3946 18.7614L67.4537 18.8636L68.1038 18.6251C68.0901 18.3616 68.0418 18.101 67.9603 17.8502C67.89 17.6368 67.7875 17.4357 67.6563 17.254C67.5251 17.0831 67.3684 16.9338 67.1919 16.8112C67.1084 16.7564 67.0209 16.7081 66.9302 16.6664L66.66 16.5898C66.342 16.5378 66.0167 16.5553 65.7059 16.6409C65.538 16.6816 65.3762 16.7446 65.2246 16.8282C65.0636 16.9173 64.9085 17.0168 64.7603 17.1263C64.3379 17.4343 64.0385 17.8843 63.9159 18.3952C63.8776 18.6359 63.8909 18.8821 63.955 19.1172C64.0191 19.3523 64.1324 19.5707 64.2874 19.7578C64.4696 20.0224 64.7251 20.2268 65.022 20.3454" fill="#323232"/>
<path d="M18.1628 46.5157C18.2175 46.5278 18.2692 46.551 18.3148 46.5838C18.3584 46.6222 18.398 46.665 18.433 46.7116C18.5062 46.8256 18.5444 46.959 18.5427 47.0948C18.5433 47.1544 18.5433 47.214 18.5427 47.2737L18.5005 47.444L17.3185 51.3103L15.9338 47.1289L15.8915 46.95C15.8868 46.9104 15.8868 46.8704 15.8915 46.8308C15.8905 46.7914 15.8975 46.7522 15.912 46.7156C15.9265 46.679 15.9483 46.6457 15.976 46.6179C16.0248 46.5593 16.0946 46.5225 16.1702 46.5157V46.3965H14.6504V46.5157L14.7939 46.6094C14.842 46.6553 14.8845 46.7068 14.9206 46.7627C15.0202 46.9266 15.1023 47.1008 15.1654 47.2822L16.8541 52.2131H17.31L18.7116 47.6313C18.7867 47.3701 18.8976 47.1208 19.0409 46.8904C19.1025 46.8086 19.1733 46.7343 19.252 46.669L19.4799 46.5157V46.3965H18.1628V46.5157Z" fill="#323232"/>
<path d="M57.5243 11.9231L57.4568 11.8295L57.2541 11.9146L57.0684 11.9742C56.9679 11.9928 56.8649 11.9928 56.7644 11.9742C56.6342 11.9654 56.5061 11.9367 56.3845 11.8891C56.1855 11.8077 55.9959 11.7049 55.8188 11.5825C55.6975 11.5245 55.595 11.4329 55.5233 11.3185C55.5233 11.2504 55.5233 11.1397 55.633 10.9949L57.1528 8.55073C57.2158 8.43473 57.3021 8.33322 57.4061 8.25266C57.4397 8.22959 57.4794 8.21726 57.5201 8.21726C57.5607 8.21726 57.6005 8.22959 57.6341 8.25266V8.18453L56.7813 7.66504H56.7306C56.7634 7.69147 56.7896 7.72525 56.8072 7.76368C56.8248 7.80211 56.8333 7.84415 56.832 7.88646C56.8037 8.01415 56.7522 8.13544 56.68 8.24414L55.1686 10.6713C55.1686 10.7394 55.0758 10.799 55.0336 10.8586C55.0004 10.8994 54.9604 10.934 54.9153 10.9608C54.8787 10.9795 54.8382 10.9893 54.7971 10.9893C54.7561 10.9893 54.7156 10.9795 54.6789 10.9608L54.6367 11.0289L56.9079 12.4682L57.5243 11.9231Z" fill="#323232"/>
<path d="M38.6707 77.0888C31.2008 77.0904 23.8982 74.8578 17.6864 70.6731C11.4746 66.4884 6.63263 60.5397 3.77287 53.5792C0.913107 46.6188 0.163997 38.9593 1.62028 31.5694C3.07656 24.1795 6.67281 17.3912 11.9542 12.0629C17.2357 6.73466 23.965 3.10581 31.2913 1.63529C38.6175 0.164772 46.2115 0.918644 53.113 3.80156C60.0144 6.68448 65.9133 11.567 70.0635 17.8315C74.2137 24.0961 76.4289 31.4613 76.4289 38.9957C76.4155 49.093 72.4334 58.773 65.3555 65.9136C58.2776 73.0543 48.6815 77.073 38.6707 77.0888ZM38.6707 9.29945e-07C31.0218 -0.00168339 23.5441 2.28466 17.1836 6.56985C10.823 10.8551 5.86529 16.9466 2.9374 24.074C0.0095116 31.2015 -0.756996 39.0446 0.734828 46.6115C2.22665 54.1784 5.90979 61.1291 11.3184 66.5844C16.727 72.0398 23.6181 75.7548 31.1202 77.2595C38.6222 78.7642 46.3982 77.9911 53.4646 75.0379C60.5309 72.0847 66.5703 67.0841 70.8188 60.6685C75.0672 54.253 77.334 46.7108 77.3323 38.9957C77.3211 28.6569 73.2443 18.7447 65.9963 11.434C58.7482 4.12336 48.921 0.0112719 38.6707 9.29945e-07Z" fill="#323232"/>
<path d="M70.9235 34.5328C70.8706 34.5432 70.8161 34.5432 70.7631 34.5328C70.7257 34.5183 70.6928 34.4942 70.6676 34.4628C70.6424 34.4314 70.6258 34.3939 70.6196 34.354H70.5352L70.8307 37.0536L71.675 37.1643V37.0621L71.4808 36.9429L71.3288 36.8322C71.2402 36.7795 71.165 36.7066 71.1093 36.6193C71.0319 36.5102 70.9721 36.3895 70.932 36.2616C70.8846 36.0511 70.8507 35.8378 70.8307 35.6229C70.7962 35.4946 70.7962 35.3594 70.8307 35.2311C70.9208 35.1496 71.039 35.1068 71.16 35.1119L73.9969 34.7968C74.1248 34.7681 74.2574 34.7681 74.3853 34.7968C74.4249 34.8102 74.4597 34.8352 74.4852 34.8685C74.5108 34.9019 74.5259 34.9421 74.5288 34.9842H74.6048L74.4866 33.9111H74.4106C74.4145 33.9535 74.4063 33.9961 74.3868 34.0339C74.3673 34.0716 74.3375 34.1029 74.3008 34.124C74.1848 34.181 74.0583 34.2129 73.9293 34.2177L71.1177 34.5328H70.9235Z" fill="#323232"/>
<path d="M70.848 23.5984L69.2354 25.0461L68.7035 23.8453L70.848 23.5984ZM67.4032 23.8453C67.2597 23.8156 67.1277 23.7446 67.0233 23.641L66.9473 23.6835L67.3525 24.5352H67.437C67.4069 24.4586 67.4069 24.3733 67.437 24.2967C67.4869 24.2162 67.5608 24.1536 67.6481 24.1179L67.7747 24.0668H67.9267L68.5008 23.9816L69.1003 25.2505L68.543 25.7785H68.4839C68.4567 25.8186 68.4224 25.8533 68.3826 25.8807H68.3151C68.291 25.891 68.2652 25.8963 68.2391 25.8963C68.213 25.8963 68.1871 25.891 68.1631 25.8807C68.1136 25.8652 68.0716 25.8318 68.0449 25.787L67.952 25.8296L68.4164 26.792H68.5008C68.4885 26.7532 68.4885 26.7115 68.5008 26.6727C68.5103 26.6275 68.5274 26.5843 68.5515 26.545C68.6438 26.4107 68.7515 26.2878 68.8723 26.1788L71.4982 23.675L71.3462 23.377L68.1209 23.8113C67.8799 23.8433 67.6358 23.8433 67.3948 23.8113" fill="#323232"/>
<path d="M60.716 15.5163C60.6878 15.4879 60.6675 15.4525 60.6571 15.4136C60.6467 15.3747 60.6467 15.3338 60.6569 15.2949C60.7041 15.1713 60.7793 15.0605 60.8764 14.9713L62.7761 12.8508C62.8597 12.7461 62.963 12.6593 63.0801 12.5953C63.1145 12.5742 63.1539 12.5631 63.1941 12.5631C63.2343 12.5631 63.2737 12.5742 63.3081 12.5953L63.3587 12.5442L62.5735 11.8203L62.4806 11.9225C62.5133 11.9516 62.537 11.9895 62.549 12.0318C62.561 12.074 62.5607 12.1189 62.5482 12.161C62.4902 12.2766 62.4194 12.3852 62.3371 12.4846L60.4289 14.6051C60.3769 14.6608 60.3205 14.7121 60.2601 14.7584L60.125 14.8521C60.0867 14.8662 60.0453 14.8697 60.0052 14.8622C59.9651 14.8547 59.9277 14.8365 59.897 14.8095L59.8379 14.8776L60.6316 15.5845L60.716 15.5163Z" fill="#323232"/>
<path d="M49.0134 7.32425C49.0618 7.03357 49.1381 6.74834 49.2414 6.47263C49.3918 5.98219 49.6651 5.53924 50.0351 5.18668C50.1651 5.06404 50.327 4.9813 50.502 4.94812C50.6769 4.91494 50.8576 4.9327 51.0229 4.99932C51.193 5.04943 51.346 5.14592 51.4652 5.27815C51.5844 5.41038 51.6651 5.57323 51.6984 5.74875C51.7624 6.24295 51.6954 6.74545 51.5042 7.20502C51.4087 7.50065 51.2843 7.78593 51.1327 8.05664C51.0231 8.25341 50.8834 8.43159 50.719 8.58465C50.5832 8.7036 50.4171 8.78181 50.2395 8.8104C50.0619 8.839 49.88 8.81685 49.7142 8.74646C49.5429 8.69329 49.3893 8.5937 49.2702 8.45855C49.1511 8.3234 49.071 8.15787 49.0388 7.98C49.0048 7.76561 49.0048 7.54715 49.0388 7.33276L49.0134 7.32425ZM48.8868 8.32916L49.0894 8.55058C49.1683 8.61788 49.253 8.67775 49.3427 8.72942C49.4429 8.78349 49.5474 8.82907 49.6551 8.86568C49.8697 8.95142 50.1001 8.98919 50.3306 8.97639C50.5573 8.95926 50.7769 8.88929 50.9723 8.772C51.2303 8.63982 51.4598 8.45748 51.6477 8.23548C51.8325 8.01221 51.9781 7.75876 52.0783 7.48605C52.1916 7.18465 52.2405 6.86253 52.2219 6.54075C52.2044 6.22682 52.124 5.91972 51.9855 5.63804C51.9407 5.55757 51.8899 5.4807 51.8335 5.4081C51.7726 5.33099 51.7047 5.25972 51.6308 5.19519C51.4774 5.06679 51.3032 4.96597 51.1158 4.89712C50.9174 4.82884 50.7091 4.7943 50.4994 4.79493C50.3912 4.8023 50.2838 4.8194 50.1786 4.84603L49.8915 4.93971C49.6121 5.0652 49.3597 5.24456 49.1485 5.46771C49.0492 5.5805 48.9615 5.7032 48.8868 5.83391C48.8123 5.97403 48.7474 6.11915 48.6926 6.26824C48.5761 6.56933 48.5188 6.89038 48.5237 7.21354C48.522 7.50878 48.5884 7.80037 48.7179 8.06516C48.7654 8.16662 48.8219 8.26354 48.8868 8.35471" fill="#323232"/>
<path d="M28.7075 4.70973L29.8727 6.5322L28.64 6.88988L28.7075 4.70973ZM29.0368 8.33764V8.25248C28.954 8.25598 28.8719 8.23528 28.8004 8.19286C28.7387 8.1256 28.6951 8.0435 28.6738 7.95441V7.80964V7.66486V7.08576L30.0162 6.69401L30.3962 7.32421V7.39234L30.4722 7.50305C30.4742 7.5314 30.4742 7.55986 30.4722 7.58821C30.4851 7.63559 30.4851 7.68561 30.4722 7.73299C30.4463 7.7823 30.4046 7.82132 30.354 7.8437V7.92886L31.4431 7.66486V7.5797C31.407 7.58808 31.3695 7.58808 31.3334 7.5797C31.2884 7.56006 31.2482 7.53104 31.2152 7.49454C31.0992 7.38567 30.9971 7.26266 30.9112 7.12834L28.8764 4.0625L28.564 4.15618L28.4373 7.43492C28.4403 7.67942 28.409 7.92312 28.3445 8.1588C28.3006 8.2979 28.215 8.41987 28.0996 8.50796V8.60164L29.0368 8.33764Z" fill="#323232"/>
<path d="M58.5965 69.4665C58.4819 69.3939 58.3864 69.2946 58.3178 69.1769L56.9922 66.9457C56.9434 66.867 56.9011 66.7844 56.8656 66.6987C56.8601 66.6307 56.8601 66.5623 56.8656 66.4943C56.8566 66.3588 56.8988 66.2249 56.9838 66.1196L56.9331 66.043L56.131 66.5369V66.605C56.1946 66.5878 56.2609 66.5835 56.3261 66.5922C56.3913 66.601 56.4541 66.6227 56.511 66.6561C56.6554 66.7702 56.776 66.912 56.8656 67.0734L58.2587 69.4069L54.2144 67.627L54.0371 67.7292L55.5569 70.284C55.6949 70.5004 55.8082 70.7318 55.8946 70.9738C55.8986 71.0362 55.8986 71.0988 55.8946 71.1612C55.8839 71.2235 55.864 71.2838 55.8355 71.34L55.8862 71.4082L56.6207 70.9568V70.8887C56.5493 70.914 56.4724 70.9194 56.3981 70.9045C56.3238 70.8895 56.2549 70.8546 56.1986 70.8035C55.9976 70.623 55.8316 70.4064 55.7089 70.1648L54.6197 68.3849L58.2587 69.9604L58.9764 69.5346L58.9257 69.4665C58.8806 69.4918 58.8297 69.5051 58.778 69.5051C58.7263 69.5051 58.6754 69.4918 58.6302 69.4665" fill="#323232"/>
<path d="M42.0821 6.93208C42.0414 6.93254 42.0019 6.91815 41.9708 6.89154C41.9398 6.86494 41.9194 6.82792 41.9133 6.7873C41.8762 6.6594 41.8762 6.52346 41.9133 6.39556L42.0906 4.90522L43.9059 5.10961L43.737 6.62549C43.7271 6.75799 43.6866 6.88632 43.6188 7.00021C43.5975 7.03635 43.5662 7.06535 43.5286 7.08353C43.491 7.10172 43.449 7.10828 43.4077 7.1024V7.17905L44.4716 7.31531V7.23866C44.436 7.22917 44.4019 7.21484 44.3702 7.19608C44.3427 7.17213 44.3198 7.14326 44.3027 7.11092C44.294 7.05448 44.294 6.99703 44.3027 6.94059C44.2984 6.85833 44.2984 6.77589 44.3027 6.69362L44.6573 3.85773C44.6639 3.72246 44.6954 3.58961 44.7502 3.46598C44.7761 3.44212 44.807 3.42439 44.8406 3.41408C44.8742 3.40377 44.9097 3.40113 44.9444 3.40637V3.29566L43.9059 3.1594V3.24456C43.9476 3.24743 43.9875 3.26273 44.0205 3.2885C44.0536 3.31427 44.0783 3.34937 44.0916 3.38933C44.1231 3.52086 44.1231 3.65807 44.0916 3.7896L43.9059 4.91374L42.1075 4.6838L42.2172 3.55114C42.2316 3.41796 42.2687 3.28829 42.327 3.16791C42.3514 3.13339 42.3849 3.10636 42.4236 3.08983C42.4624 3.07329 42.5049 3.0679 42.5465 3.07423V2.99759L41.4911 2.86133V2.94649C41.5319 2.95222 41.5705 2.96859 41.603 2.99398C41.6356 3.01937 41.6611 3.05291 41.6768 3.09127C41.7032 3.22049 41.7032 3.35379 41.6768 3.48301L41.3729 6.31891C41.3784 6.3983 41.3784 6.47798 41.3729 6.55737C41.3554 6.60785 41.3327 6.65636 41.3053 6.70214C41.2952 6.72762 41.2801 6.75077 41.2609 6.77023C41.2417 6.78968 41.2188 6.80503 41.1936 6.81536C41.1683 6.8257 41.1413 6.8308 41.1141 6.83037C41.0869 6.82994 41.06 6.82398 41.0352 6.81285V6.8895L42.0821 7.02576V6.93208Z" fill="#323232"/>
<path d="M34.3808 3.3552C34.5926 3.22624 34.8343 3.15575 35.0816 3.15081C35.1225 3.13584 35.1674 3.13584 35.2083 3.15081C35.2244 3.1977 35.2244 3.24869 35.2083 3.29558L35.4785 6.39549C35.5024 6.52209 35.5024 6.65211 35.4785 6.77872C35.4634 6.81757 35.4382 6.85157 35.4055 6.87707C35.3728 6.90257 35.3338 6.91862 35.2927 6.92349V7.00865L36.3734 6.90646V6.81278C36.331 6.81929 36.2875 6.81308 36.2485 6.79491C36.2095 6.77675 36.1766 6.74742 36.1539 6.71059C36.0937 6.59194 36.0618 6.46067 36.061 6.32736L35.7909 3.22745C35.7803 3.17978 35.7803 3.13035 35.7909 3.08268C35.7909 3.08268 35.8584 3.0401 35.926 3.03158C36.1713 3.0003 36.4204 3.02952 36.6521 3.11674C36.856 3.23367 37.0273 3.40064 37.1502 3.60217L37.2431 3.54255L36.9729 2.76758L33.9587 3.0401L33.832 3.84914H33.9333C34.02 3.62844 34.1627 3.43461 34.3471 3.28707" fill="#323232"/>
<path d="M21.9523 67.0059C21.9971 67.0547 22.0308 67.1127 22.0512 67.1759C22.0716 67.2392 22.0782 67.3061 22.0705 67.3721C22.0405 67.5541 21.9682 67.7263 21.8594 67.8746L20.3903 70.1569L20.2214 65.7115L20.0103 65.5752L18.4061 68.0619C18.2825 68.2811 18.129 68.4818 17.9502 68.6581C17.8958 68.6976 17.8361 68.7291 17.7729 68.7517C17.7141 68.7606 17.6544 68.7606 17.5956 68.7517L17.5449 68.8284L18.2795 69.3053L18.3217 69.2372C18.2696 69.1846 18.2321 69.1192 18.2129 69.0475C18.1936 68.9758 18.1933 68.9003 18.2119 68.8284C18.2922 68.5763 18.415 68.34 18.575 68.1301L19.6895 66.4268L19.8415 70.3869L20.5338 70.8382L20.576 70.7701C20.5342 70.7408 20.5005 70.7011 20.4783 70.6549C20.4561 70.6086 20.4462 70.5574 20.4494 70.5061C20.4625 70.3703 20.5122 70.2408 20.5929 70.1314L22.003 67.9512C22.0524 67.875 22.109 67.8037 22.1718 67.7383C22.2167 67.6812 22.271 67.6322 22.3322 67.5935C22.4499 67.535 22.5834 67.5171 22.7122 67.5424L22.7544 67.4743L21.9523 66.9378V67.0059Z" fill="#323232"/>
<path d="M3.18368 33.7751C3.31138 33.7446 3.44436 33.7446 3.57207 33.7751L6.36678 34.2264L6.59475 34.286C6.64562 34.2975 6.69417 34.3176 6.73828 34.3457C6.77182 34.369 6.79827 34.4012 6.81467 34.4388C6.83107 34.4764 6.83678 34.5179 6.83116 34.5586H6.90715L7.07601 33.494H7.00002C6.99303 33.5349 6.97522 33.5731 6.94846 33.6046C6.92171 33.6361 6.88701 33.6597 6.84805 33.6729C6.72263 33.6981 6.59351 33.6981 6.4681 33.6729L3.6565 33.213C3.5222 33.1985 3.3926 33.1549 3.27655 33.0852C3.2443 33.0635 3.21963 33.032 3.206 32.9954C3.19237 32.9587 3.19047 32.9187 3.20056 32.8809H3.11613L2.94727 33.9454H3.02325C3.03399 33.9049 3.05414 33.8675 3.08204 33.8364C3.10993 33.8053 3.14478 33.7814 3.18368 33.7665" fill="#323232"/>
<path d="M3.96018 40.8781C4.0801 40.8255 4.18898 40.7504 4.28103 40.6567C4.47355 40.4321 4.61478 40.1675 4.69475 39.8817L4.7454 39.7284C4.83454 39.4198 4.98063 39.1308 5.17601 38.8768C5.32674 38.7468 5.51805 38.6744 5.71638 38.6724C5.82549 38.6656 5.93478 38.6826 6.03678 38.7223C6.13878 38.762 6.23109 38.8234 6.3074 38.9024C6.45722 39.0773 6.53832 39.3014 6.53537 39.5326C6.54083 39.6679 6.51977 39.803 6.47341 39.9302C6.42705 40.0573 6.35629 40.174 6.26519 40.2735C6.03448 40.5052 5.74053 40.6624 5.42086 40.7248V40.827L6.18076 41.0314C6.34474 40.8322 6.4707 40.6041 6.55226 40.3586C6.63634 40.1124 6.67358 39.8524 6.66202 39.5922C6.66982 39.4147 6.64248 39.2374 6.58159 39.0708C6.5207 38.9041 6.42749 38.7513 6.3074 38.6213C6.19834 38.5061 6.06734 38.4143 5.92226 38.3514C5.77718 38.2885 5.621 38.2557 5.46308 38.2551C5.38738 38.2457 5.31081 38.2457 5.23511 38.2551C5.16798 38.2659 5.10264 38.286 5.04092 38.3147C4.91272 38.365 4.79732 38.4435 4.70319 38.5447C4.47864 38.8507 4.31519 39.1977 4.22192 39.5666L4.15438 39.7284C4.07377 39.9864 3.94479 40.2264 3.77443 40.4353C3.65123 40.5534 3.48843 40.6203 3.3185 40.6226C3.22708 40.6263 3.13596 40.6099 3.05142 40.5746C2.96689 40.5393 2.89093 40.486 2.82879 40.4183C2.69609 40.2618 2.62411 40.0621 2.62615 39.8562C2.62102 39.7424 2.63855 39.6288 2.67771 39.5221C2.71686 39.4153 2.77685 39.3175 2.85412 39.2345C3.03211 39.0493 3.25694 38.9168 3.50425 38.8513V38.7576L2.8119 38.5958C2.70189 38.7936 2.6114 39.0018 2.54172 39.2175C2.52803 39.3162 2.5252 39.4162 2.53328 39.5155C2.52016 39.6144 2.52016 39.7147 2.53328 39.8136C2.5287 40.1283 2.64347 40.433 2.85412 40.6652C2.95514 40.7712 3.07748 40.8542 3.21291 40.9085C3.34835 40.9629 3.49375 40.9873 3.63934 40.9803C3.75165 40.9666 3.86045 40.932 3.96018 40.8781Z" fill="#323232"/>
<path d="M4.88036 28.9036C4.71634 28.7327 4.59985 28.5212 4.54263 28.2904C4.51666 28.0451 4.54848 27.7971 4.6355 27.5665C4.65054 27.5188 4.68008 27.4771 4.71993 27.4473C4.76723 27.4369 4.81618 27.4369 4.86347 27.4473L7.76794 28.5118C7.89634 28.546 8.01494 28.6102 8.11412 28.6992C8.14161 28.728 8.16084 28.7639 8.16976 28.8028C8.17868 28.8418 8.17696 28.8825 8.16478 28.9206H8.23232L8.59538 27.8987H8.52784C8.51407 27.9391 8.48939 27.9749 8.45658 28.002C8.42377 28.029 8.38412 28.0464 8.34209 28.052C8.20971 28.0518 8.07834 28.0288 7.9537 27.9838L5.06611 26.9363C5.007 26.9363 4.96479 26.8938 4.9479 26.8597C4.93173 26.8157 4.93173 26.7674 4.9479 26.7234C5.01884 26.484 5.14968 26.2669 5.32785 26.0932C5.5128 25.9474 5.73567 25.8586 5.96953 25.8377V25.7185L5.12521 25.6504L4.12891 28.5204L4.80437 28.9887L4.88036 28.9036Z" fill="#323232"/>
<path d="M5.53872 47.4611L4.12025 47.7762C4.05243 47.7976 3.98028 47.801 3.91078 47.7861C3.84127 47.7711 3.77675 47.7384 3.72342 47.691C3.60221 47.5594 3.52537 47.3925 3.5039 47.2141C3.42787 46.9302 3.45481 46.6282 3.57989 46.3625C3.64868 46.2446 3.7414 46.1426 3.85199 46.0634C3.96258 45.9841 4.08852 45.9294 4.22157 45.9026C4.35564 45.8657 4.49669 45.8626 4.63219 45.8938C4.7677 45.925 4.89347 45.9895 4.99835 46.0815C5.241 46.3466 5.39974 46.6787 5.45429 47.0353L5.50495 47.2737C5.50495 47.2737 5.50495 47.3334 5.50495 47.3589L5.53872 47.4611ZM7.44689 47.691C7.48664 47.6967 7.52332 47.7158 7.55093 47.7451C7.57854 47.7745 7.59544 47.8125 7.59887 47.8528H7.69175L7.45534 46.8054H7.37935C7.38864 46.8465 7.38557 46.8896 7.37054 46.929C7.3555 46.9685 7.32918 47.0025 7.29491 47.0268C7.18691 47.1017 7.06218 47.1486 6.93185 47.163L5.6907 47.4441L5.62315 47.0949V47.0183C5.62315 47.0183 5.62315 47.0183 5.62315 46.9586C5.63027 46.9394 5.63027 46.9183 5.62315 46.899C5.87673 46.7316 6.11418 46.5406 6.33238 46.3284C6.52603 46.14 6.70925 45.941 6.8812 45.7323C7.0097 45.5476 7.11465 45.3473 7.1936 45.1362C7.26739 44.9422 7.32666 44.7429 7.3709 44.54L7.11761 44.5911C7.06902 44.7415 7.00088 44.8847 6.91497 45.0169C6.82859 45.1435 6.73261 45.2631 6.6279 45.3746C6.47592 45.5109 6.30705 45.6727 6.07909 45.8515C5.85112 46.0304 5.65692 46.1837 5.41207 46.3625C5.35267 46.1796 5.27039 46.005 5.16722 45.843C5.08011 45.712 4.97163 45.5968 4.84637 45.5024C4.74484 45.4292 4.62951 45.3779 4.50752 45.3515C4.38553 45.3252 4.25947 45.3243 4.13714 45.3491C3.97074 45.3847 3.81666 45.4641 3.69059 45.5793C3.56452 45.6945 3.47097 45.8413 3.41947 46.0048C3.28987 46.438 3.28987 46.9002 3.41947 47.3334V47.5292L3.51234 47.8443L3.74875 48.696H3.82474C3.81753 48.6548 3.82158 48.6124 3.83646 48.5734C3.85134 48.5344 3.87648 48.5002 3.90917 48.4745C4.01829 48.4002 4.1422 48.3508 4.27223 48.3298L7.04162 47.691C7.17521 47.6623 7.3133 47.6623 7.44689 47.691Z" fill="#323232"/>
<path d="M7.87069 21.1631L9.96461 21.6826L9.28915 22.8067L7.87069 21.1631ZM9.97306 23.9223C10.0271 24.0602 10.0446 24.2099 10.0237 24.3567H10.0997L10.5894 23.505L10.505 23.4625C10.4507 23.5259 10.3759 23.5681 10.2939 23.5817C10.2016 23.5791 10.1115 23.5527 10.0322 23.505L9.9224 23.4284L9.80419 23.3092L9.43269 22.8748L10.1335 21.7337L10.868 21.904H10.944H11.0707C11.0988 21.9012 11.127 21.9012 11.1551 21.904C11.1973 21.9333 11.2297 21.9749 11.248 22.0232C11.2691 22.0751 11.2691 22.1332 11.248 22.185L11.324 22.2276L11.8221 21.393V21.3504C11.7959 21.3791 11.7643 21.4022 11.7293 21.4186C11.6844 21.425 11.639 21.425 11.5942 21.4186C11.4373 21.4142 11.2814 21.3914 11.1298 21.3504L7.60051 20.584L7.43164 20.8735L9.58467 23.3262C9.74917 23.5086 9.89355 23.7085 10.0153 23.9223" fill="#323232"/>
<path d="M63.5278 35.4872L64.0766 35.1976L64.6254 35.4872L64.5241 34.8655L64.9716 34.4311L64.3468 34.3375L64.0766 33.7754L63.798 34.3375L63.1816 34.4311L63.6291 34.8655L63.5278 35.4872Z" fill="#323232"/>
<path d="M58.5637 23.8458L59.1125 23.5563L59.6697 23.8458L59.5515 23.2327L59.999 22.7898L59.3911 22.7046L59.1125 22.1426L58.8423 22.7046L58.2344 22.7898L58.665 23.2327L58.5637 23.8458Z" fill="#323232"/>
<path d="M12.7759 36.2105L12.5057 35.6484L12.2271 36.2105L11.6191 36.3042L12.0666 36.7385L11.9653 37.3517L12.5057 37.0621L13.0545 37.3517L12.9532 36.7385L13.3922 36.3042L12.7759 36.2105Z" fill="#323232"/>
<path d="M12.1175 16.6153C12.2418 16.6615 12.3734 16.6846 12.5059 16.6835C12.803 16.647 13.09 16.5515 13.3502 16.4024L13.4937 16.3343C13.7522 16.1765 14.0392 16.0722 14.3381 16.0277C14.5396 16.0368 14.7313 16.1183 14.8784 16.2576C14.9604 16.328 15.0263 16.4154 15.0715 16.5139C15.1167 16.6124 15.1401 16.7197 15.1402 16.8282C15.136 17.0618 15.0422 17.2847 14.8784 17.4499C14.7 17.6554 14.4479 17.781 14.1777 17.7991C13.8603 17.8068 13.5472 17.7242 13.2742 17.5606L13.1898 17.6288L13.612 18.293C13.8652 18.2635 14.1111 18.1885 14.3381 18.0716C14.5692 17.9499 14.7755 17.7852 14.946 17.5862C15.1906 17.3294 15.3294 16.9885 15.3344 16.6324C15.3342 16.4706 15.2994 16.3107 15.2324 16.1638C15.1654 16.0168 15.0677 15.8861 14.946 15.7807C14.8916 15.7294 14.8322 15.6837 14.7687 15.6445C14.7074 15.6064 14.6423 15.575 14.5745 15.5508C14.4515 15.5004 14.3184 15.48 14.1861 15.4912C13.8441 15.547 13.515 15.6653 13.2151 15.8404L13.0631 15.9085C12.8315 16.0406 12.576 16.1246 12.3117 16.1554C12.1384 16.1612 11.9694 16.1003 11.8389 15.9851C11.7684 15.9266 11.7126 15.8521 11.676 15.7678C11.6393 15.6835 11.6228 15.5916 11.6278 15.4997C11.6371 15.2923 11.7211 15.0954 11.8642 14.9461C12.0147 14.777 12.2225 14.6707 12.4468 14.6481C12.705 14.6384 12.9611 14.6971 13.1898 14.8184L13.2658 14.7673L12.8774 14.1797C12.6598 14.2395 12.45 14.3253 12.2526 14.4352C12.161 14.4837 12.0758 14.5438 11.9993 14.614C11.9248 14.6746 11.8543 14.74 11.7882 14.8099C11.566 15.0373 11.439 15.3422 11.4336 15.6615C11.4338 15.8088 11.4656 15.9544 11.5268 16.0881C11.5881 16.2219 11.6772 16.3407 11.7882 16.4365C11.8817 16.5263 11.9943 16.5933 12.1175 16.6324" fill="#323232"/>
<path d="M38.6548 43.433C38.6356 42.742 38.5679 42.0534 38.4521 41.3721C38.3628 41.8352 38.3147 42.3055 38.3086 42.7772C38.3086 43.3904 38.5957 43.8844 38.6548 43.433Z" fill="#323232"/>
<path d="M36.9567 28.3253C36.736 28.2295 36.495 28.1914 36.2559 28.2146C36.2559 28.2146 36.3572 28.3679 36.5007 28.5638C36.6442 28.7597 36.4501 28.8789 36.3572 29.4154C36.2643 29.9519 36.3572 30.1733 36.7034 30.2244C37.0495 30.2755 36.8047 30.0201 36.8553 29.5687C36.906 29.1173 37.0495 29.0151 37.0495 29.0151C37.0495 29.0151 37.5561 29.4154 37.7503 29.2195C37.9445 29.0237 37.3535 28.5127 36.9567 28.3679" fill="#323232"/>
<path d="M33.3086 15.8315L33.7561 16.2659L33.6463 16.8875L34.2036 16.5895L34.7524 16.8875L34.6342 16.2659L35.0901 15.8315L34.4738 15.7464L34.2036 15.1758L33.9249 15.7464L33.3086 15.8315Z" fill="#323232"/>
<path d="M38.6709 8.6268C44.6275 8.62848 50.4498 10.4117 55.4016 13.751C60.3534 17.0903 64.2122 21.8357 66.4902 27.3871C68.7681 32.9385 69.3629 39.0465 68.1992 44.9388C67.0354 50.8311 64.1656 56.243 59.9524 60.4902C55.7393 64.7373 50.3722 67.629 44.5297 68.7994C38.6872 69.9699 32.6319 69.3666 27.1293 67.0659C21.6268 64.7651 16.9242 60.8703 13.6163 55.8738C10.3084 50.8773 8.5437 45.0037 8.54537 38.9956C8.55655 30.9418 11.7346 23.2214 17.3823 17.5281C23.03 11.8347 30.6861 8.63355 38.6709 8.6268ZM38.6709 70.2842C44.8061 70.2842 50.8036 68.4491 55.9049 65.0111C61.0062 61.5731 64.9822 56.6865 67.3301 50.9692C69.6779 45.252 70.2922 38.9609 69.0953 32.8915C67.8984 26.8221 64.944 21.247 60.6057 16.8713C56.2674 12.4955 50.7401 9.51552 44.7227 8.30825C38.7053 7.10097 32.4681 7.72059 26.7998 10.0887C21.1316 12.4569 16.2869 16.4672 12.8783 21.6126C9.46971 26.758 7.65039 32.8073 7.65039 38.9956C7.65933 47.2911 10.9304 55.2442 16.746 61.11C22.5615 66.9758 30.4465 70.2752 38.6709 70.2842Z" fill="#323232"/>
<path d="M16.1283 62.4239C16.1551 62.4532 16.1745 62.4887 16.1848 62.5272C16.1951 62.5658 16.196 62.6063 16.1874 62.6453C16.1342 62.7703 16.0567 62.8833 15.9594 62.9774L14.009 65.0469C13.9213 65.1484 13.8153 65.2322 13.6966 65.2938C13.6591 65.3082 13.6182 65.311 13.5791 65.3019C13.5401 65.2928 13.5045 65.2722 13.4771 65.2427L13.418 65.2938L14.1947 66.0433L14.2454 65.9836C14.2172 65.9517 14.1977 65.913 14.1889 65.8712C14.18 65.8294 14.182 65.786 14.1947 65.7452C14.2407 65.6254 14.3128 65.5177 14.4058 65.4301L16.3647 63.3607C16.4166 63.3049 16.4731 63.2536 16.5335 63.2074C16.5737 63.1696 16.6193 63.138 16.6686 63.1137C16.7079 63.1031 16.7491 63.1023 16.7888 63.1111C16.8285 63.12 16.8654 63.1384 16.8966 63.1648L16.9557 63.1052L16.1874 62.3643L16.1283 62.4239Z" fill="#323232"/>
<path d="M53.2863 42.6407L53.8436 42.3427L54.3924 42.6407L54.2911 42.0191L54.7301 41.5847L54.1222 41.4996L53.8436 40.9375L53.5649 41.4996L52.957 41.5847L53.3961 42.0191L53.2863 42.6407Z" fill="#323232"/>
<path d="M49.2835 71.46L50.4993 71.0342V73.2143L49.2835 71.46ZM50.9721 69.382V69.2969L50.0687 69.612V69.6971C50.1095 69.6894 50.1514 69.6899 50.192 69.6987C50.2326 69.7075 50.271 69.7243 50.3051 69.7482C50.3779 69.8074 50.431 69.8876 50.4571 69.9782V70.1144V70.2677V70.8468L49.1399 71.3067L48.7262 70.685V70.6254C48.6968 70.5946 48.6713 70.5603 48.6502 70.5232C48.6476 70.4977 48.6476 70.472 48.6502 70.4466C48.6334 70.394 48.6334 70.3374 48.6502 70.2848C48.6777 70.2374 48.7152 70.1967 48.76 70.1655V70.0889L47.7637 70.438V70.5232C47.7816 70.5127 47.802 70.5072 47.8228 70.5072C47.8435 70.5072 47.8639 70.5127 47.8819 70.5232C47.9273 70.5393 47.97 70.5623 48.0085 70.5913C48.127 70.6946 48.2294 70.8152 48.3125 70.949L50.4908 73.8531L50.8032 73.7423L50.6597 70.4806C50.6459 70.2349 50.6658 69.9885 50.7188 69.7482C50.7623 69.6084 50.8408 69.4823 50.9468 69.382" fill="#323232"/>
<path d="M9.58344 59.3498C9.39858 59.4166 9.20529 59.4568 9.0093 59.4691C8.93922 59.478 8.8683 59.478 8.79822 59.4691C8.73305 59.4524 8.67052 59.4266 8.61247 59.3924L8.54492 59.4435L9.08529 60.1929L9.15284 60.1418C9.14411 60.1026 9.14411 60.0619 9.15284 60.0226C9.14571 59.9832 9.14571 59.9428 9.15284 59.9034C9.19385 59.8141 9.25449 59.7355 9.33014 59.6735H9.3808C9.3808 59.6735 9.3808 59.6735 9.43146 59.6735L9.55811 59.6224L12.2515 58.6771L10.4447 61.2319L10.3687 61.3341L10.3096 61.4022C10.2598 61.4156 10.2074 61.4156 10.1576 61.4022C10.1028 61.3992 10.0513 61.3748 10.014 61.3341L9.95494 61.3852L10.5713 62.2368L10.6304 62.1857C10.6265 62.1461 10.6265 62.1061 10.6304 62.0665C10.6418 62.0203 10.6559 61.9748 10.6726 61.9302C10.7194 61.802 10.7849 61.6814 10.8668 61.5726L12.9692 58.5238L12.7834 58.2598L9.58344 59.3498Z" fill="#323232"/>
<path d="M40.7894 73.614C40.6612 73.6548 40.5268 73.6721 40.3926 73.6651H39.2189V72.4899C39.2091 72.3529 39.2323 72.2156 39.2865 72.0896C39.3013 72.0486 39.3293 72.0137 39.366 71.9906C39.4027 71.9674 39.4461 71.9573 39.4891 71.9618V71.8682H38.3915V71.9618C38.4334 71.9635 38.4739 71.9772 38.5084 72.0013C38.5428 72.0255 38.5696 72.0591 38.5857 72.0981C38.6334 72.2228 38.6536 72.3565 38.6448 72.4899V73.6651H37.2348C37.1845 73.6734 37.1331 73.6734 37.0828 73.6651C37.044 73.6466 37.011 73.6178 36.9872 73.5818C36.9634 73.5458 36.9497 73.5039 36.9477 73.4607H36.8633V74.5678H36.9562C36.9536 74.5258 36.9635 74.4839 36.9845 74.4475C37.0056 74.4111 37.0368 74.3819 37.0744 74.3634C37.2008 74.3146 37.3362 74.2943 37.4712 74.3038H38.6448V75.4876C38.6538 75.5668 38.6538 75.6468 38.6448 75.726C38.6517 75.7797 38.6517 75.8341 38.6448 75.8878C38.6254 75.9236 38.5975 75.954 38.5636 75.9763C38.5298 75.9986 38.4909 76.0121 38.4506 76.0156V76.1007H39.5482V76.0156C39.5046 76.0169 39.4615 76.0055 39.4241 75.9829C39.3867 75.9603 39.3565 75.9273 39.3372 75.8878C39.2938 75.7591 39.2738 75.6235 39.278 75.4876V74.2527H40.4517C40.5894 74.2425 40.7278 74.2628 40.8569 74.3123C40.896 74.3295 40.9291 74.3582 40.9517 74.3947C40.9743 74.4312 40.9854 74.4737 40.9836 74.5167H41.0596V73.4096H40.9836C40.9799 73.4524 40.9656 73.4935 40.942 73.5292C40.9184 73.565 40.8862 73.5941 40.8485 73.614" fill="#323232"/>
<path d="M27.3136 73.6307C27.2948 73.4951 27.2948 73.3575 27.3136 73.2219L27.4572 69.5089L27.1448 69.3896L25.0508 72.0893C24.9386 72.2415 24.8049 72.3763 24.654 72.4896C24.5929 72.5302 24.5278 72.5645 24.4598 72.5917C24.3953 72.5993 24.3301 72.5993 24.2656 72.5917V72.6684L25.1099 73.0005V72.9239C25.1099 72.9239 25.0424 72.8728 25.034 72.8472C25.01 72.8109 24.9928 72.7705 24.9833 72.728C24.9577 72.6361 24.9577 72.5389 24.9833 72.447C24.9804 72.4272 24.9804 72.4071 24.9833 72.3874C24.9798 72.3648 24.9798 72.3418 24.9833 72.3192L25.0508 72.2255L26.8155 69.9602L26.6804 73.0857V73.239C26.6829 73.2645 26.6829 73.2901 26.6804 73.3156C26.6763 73.3441 26.6647 73.3709 26.6469 73.3934C26.6291 73.4158 26.6057 73.4331 26.5791 73.4434C26.5299 73.4609 26.4763 73.4609 26.4271 73.4434V73.5285L27.415 73.9032V73.8266C27.385 73.7963 27.3595 73.7619 27.339 73.7244C27.3122 73.6865 27.2948 73.6427 27.2883 73.5967" fill="#323232"/>
<path d="M47.3579 54.649L47.0793 54.0869L46.8091 54.649L46.2012 54.7427L46.6402 55.177L46.5389 55.7901L47.0793 55.5006L47.6281 55.7901L47.5268 55.177L47.9743 54.7427L47.3579 54.649Z" fill="#323232"/>
<path d="M52.9902 46.3962L52.7031 47.5203L52.8467 47.58C52.9917 47.2846 53.2135 47.0344 53.4883 46.8561C53.7985 46.6963 54.1454 46.6228 54.4931 46.6432C54.5944 46.6432 54.6451 46.6432 54.6704 46.6943C54.6957 46.7454 54.7211 46.7965 54.7211 46.8902V51.259C54.7285 51.4445 54.6998 51.6296 54.6366 51.804C54.6124 51.8555 54.5741 51.8988 54.5262 51.929C54.4784 51.9592 54.4229 51.9749 54.3664 51.9743V52.085H55.8778V51.9488C55.8213 51.9494 55.7659 51.9337 55.718 51.9035C55.6701 51.8733 55.6318 51.8299 55.6076 51.7784C55.5465 51.6037 55.5206 51.4184 55.5316 51.2334V46.8902C55.5091 46.8268 55.5091 46.7576 55.5316 46.6943C55.5316 46.6943 55.616 46.6432 55.7174 46.6432C56.0691 46.6161 56.4216 46.6837 56.739 46.8391C57.0142 47.0207 57.2358 47.2737 57.3807 47.5714L57.5242 47.5118L57.2371 46.3877L52.9902 46.3962Z" fill="#323232"/>
<path d="M48.6933 49.9819L49.6305 47.0694L50.4749 49.9819H48.6933ZM51.9102 51.7618C51.8044 51.563 51.7168 51.3549 51.6485 51.1401L50.0949 46.2773H49.6305L48.2205 50.6462C48.1318 50.9782 47.9922 51.2943 47.8068 51.5829C47.691 51.7577 47.5265 51.8941 47.334 51.9747V52.0854H48.6765V51.9491C48.5638 51.9231 48.4629 51.8602 48.3894 51.7703C48.3194 51.6584 48.2841 51.5279 48.2881 51.3956V51.1997L48.3387 50.9783L48.5836 50.2033H50.5424L50.8633 51.2338V51.336C50.8837 51.3939 50.8978 51.4538 50.9055 51.5148C50.911 51.5544 50.911 51.5945 50.9055 51.634C50.9062 51.7068 50.879 51.777 50.8295 51.8299C50.7771 51.8872 50.7098 51.9285 50.6353 51.9491V52.0598H52.1297V51.9491C52.0744 51.9389 52.0224 51.9155 51.9778 51.881C51.9246 51.8412 51.8788 51.7922 51.8427 51.7362" fill="#323232"/>
<path d="M60.5895 51.9493C60.5328 51.9462 60.4777 51.929 60.4291 51.8993C60.3805 51.8696 60.3399 51.8283 60.3109 51.779C60.2486 51.6044 60.2199 51.4194 60.2265 51.234V47.2313C60.215 47.0449 60.2468 46.8582 60.3194 46.6863C60.3417 46.6335 60.3796 46.5888 60.4279 46.5583C60.4762 46.5279 60.5326 46.5131 60.5895 46.516V46.4053H59.1035V46.516C59.1628 46.5173 59.2205 46.5356 59.2698 46.5688C59.3192 46.602 59.3581 46.6487 59.3821 46.7033C59.4457 46.8717 59.4744 47.0514 59.4666 47.2313V51.2595C59.4666 51.3787 59.4666 51.4809 59.4666 51.5746C59.4501 51.6502 59.4275 51.7242 59.399 51.796C59.3691 51.847 59.3254 51.8885 59.2732 51.9156C59.2209 51.9427 59.1621 51.9544 59.1035 51.9493V52.06H60.6064L60.5895 51.9493Z" fill="#323232"/>
<path d="M45.0537 51.8043C44.9926 51.6295 44.9668 51.4442 44.9777 51.2592V46.8904C44.9592 46.8265 44.9592 46.7585 44.9777 46.6946C44.9777 46.6946 45.0706 46.6435 45.1719 46.6435C45.516 46.6235 45.8592 46.694 46.1682 46.8478C46.4385 47.0327 46.6566 47.2851 46.8015 47.5802L46.9535 47.5206L46.6579 46.3965H42.4363L42.2168 47.5206L42.3603 47.5802C42.5084 47.2843 42.733 47.0342 43.0105 46.8564C43.3169 46.6944 43.6616 46.6208 44.0068 46.6435C44.0673 46.6245 44.132 46.6245 44.1925 46.6435C44.2051 46.711 44.2051 46.7803 44.1925 46.8478V51.2167C44.202 51.4016 44.1762 51.5866 44.1165 51.7617C44.0923 51.8132 44.054 51.8565 44.0061 51.8867C43.9583 51.9169 43.9028 51.9326 43.8463 51.932V52.0427H45.3408V51.9491C45.2823 51.949 45.2248 51.9331 45.1743 51.9032C45.1239 51.8733 45.0823 51.8303 45.0537 51.7787" fill="#323232"/>
<path d="M58.6734 55.177L58.5637 55.7901L59.1125 55.5006L59.6697 55.7901L59.5515 55.177L59.999 54.7427L59.3911 54.649L59.1125 54.0869L58.8423 54.649L58.2344 54.7427L58.6734 55.177Z" fill="#323232"/>
<path d="M9.65214 53.9847H9.82101C9.86128 53.9839 9.9008 53.9958 9.93408 54.0187C9.96736 54.0416 9.99276 54.0743 10.0068 54.1124H10.0827L8.89225 51.4639L8.04793 51.5831V51.7023C8.22479 51.7337 8.39757 51.7851 8.56297 51.8556C8.62645 51.8813 8.68612 51.9157 8.74027 51.9578L8.89225 52.0856C8.92343 52.1302 8.95726 52.1728 8.99357 52.2133C9.03127 52.2599 9.06251 52.3115 9.08645 52.3666C9.19098 52.5508 9.28404 52.7413 9.36507 52.9372C9.44556 53.0744 9.49191 53.2293 9.50017 53.3885C9.50017 53.4652 9.39885 53.5418 9.22998 53.6185L7.87062 54.2402L7.64265 53.7547L7.60044 53.6525C7.50574 53.4706 7.45102 53.2701 7.44002 53.0649C7.45434 52.9372 7.51438 52.8191 7.60888 52.7328V52.6647L6.70545 53.082V53.1416C6.77357 53.1324 6.84285 53.1383 6.90847 53.1589C6.97408 53.1795 7.03446 53.2143 7.0854 53.2608C7.15372 53.3211 7.21089 53.3932 7.25426 53.4737C7.32326 53.5832 7.38531 53.6969 7.44002 53.8143L7.65954 54.3083L6.55347 54.8278C6.49572 54.8515 6.43649 54.8714 6.37617 54.8874H6.27485C6.25395 54.8788 6.23496 54.8661 6.21901 54.85C6.20306 54.8339 6.19046 54.8148 6.18197 54.7937L6.07221 54.5042L6.00466 54.3424C5.84062 54.0526 5.74256 53.7297 5.71759 53.397C5.72673 53.2997 5.75244 53.2046 5.79358 53.116C5.84778 53.0209 5.91612 52.9347 5.99622 52.8605L5.91179 52.8009L5.23633 53.1841L6.39305 55.739H6.46904C6.44817 55.7044 6.43713 55.6646 6.43713 55.624C6.43713 55.5835 6.44817 55.5437 6.46904 55.5091C6.56318 55.412 6.67897 55.339 6.80677 55.2962L9.33974 54.1039L9.55083 54.0272" fill="#323232"/>
<path d="M16.6674 20.4393H23.5233L23.1011 21.291C22.9407 21.5975 22.7803 21.9126 22.6283 22.2277L22.3075 22.8835C22.0795 23.3774 21.8769 23.8884 21.6742 24.4079C21.6151 24.5527 21.5645 24.706 21.5054 24.8507C21.4462 24.9955 21.3027 25.3873 21.2098 25.7024L21.1339 25.8982C20.6488 27.3322 20.2484 28.7938 19.9349 30.2756C19.8505 30.6673 19.766 31.0846 19.6816 31.5189H19.5887C19.2426 31.4167 19.2426 31.5189 19.4368 32.1747C19.464 32.2706 19.4979 32.3645 19.5381 32.4557C19.4705 32.8475 19.4114 33.2392 19.3523 33.648C18.9615 33.9182 18.5555 34.1656 18.1365 34.3889C17.537 34.7466 17.4864 35.0957 17.4864 35.0957C17.688 34.9659 17.9069 34.8656 18.1365 34.7977C18.7587 34.6901 19.3332 34.3929 19.7829 33.9461C20.3402 33.3414 20.737 33.2903 20.6273 32.9411C20.5175 32.592 20.8299 32.6431 21.3196 33.0433C21.9041 33.5193 22.6214 33.7991 23.3713 33.8439C24.1228 33.8439 27.3227 33.7928 28.0151 33.8439C28.7074 33.895 29.7037 34.193 31.1138 34.2952C32.5238 34.3974 33.6467 33.9461 34.6684 33.9461C35.3303 33.9001 35.994 34.0049 36.6103 34.2526C37.1591 34.457 37.4546 34.0397 37.5644 33.5458C37.6122 32.9791 37.6122 32.4093 37.5644 31.8426C37.5644 31.8426 37.9106 31.4423 38.0626 31.289C38.2145 31.1357 37.8599 31.4934 37.3111 31.5445C36.7623 31.5956 36.4668 31.3912 36.4077 31.1442C36.3486 30.8973 36.2135 30.6418 36.2135 30.6418L35.9095 30.4885C35.9095 30.4885 36.2641 30.2841 35.9686 30.1308C35.6731 29.9775 35.6647 29.9349 35.7153 29.0748C35.766 28.2146 35.766 28.5212 35.462 28.2232C35.1581 27.9251 34.4657 27.6611 35.0145 27.6611C35.5634 27.6611 35.9686 27.9166 36.509 27.8655C37.0494 27.8144 37.3533 27.5163 37.7586 27.9166C38.1639 28.3168 38.1132 29.1259 38.2652 29.3303C38.4172 29.5347 38.7127 29.475 38.7127 29.6794C38.6795 29.9662 38.6288 30.2506 38.5607 30.5311C38.4867 30.8259 38.4695 31.1324 38.51 31.4338C38.5267 31.8734 38.4927 32.3135 38.4087 32.7453C38.4087 33.1966 38.5607 33.5543 38.3159 33.6991C38.071 33.8439 38.2061 34.0993 38.814 34.0568C39.4219 34.0142 41.2625 33.6054 42.1069 34.0057C43.3093 34.3768 44.5564 34.5802 45.8135 34.6103C46.9026 34.7125 48.3464 34.0568 49.2499 34.159C50.9354 34.3061 52.6303 34.3061 54.3158 34.159C55.1601 33.9546 56.2155 33.103 56.3168 33.401C56.4182 33.6991 56.2155 34.0568 56.4604 34.3548C56.7052 34.6529 57.7691 35.1128 57.9126 35.4194C58.0562 35.7259 57.5664 35.8196 56.8657 35.3172C56.1849 34.9014 55.407 34.6751 54.6113 34.6614C53.4516 34.7358 52.2996 34.9038 51.1665 35.1639C50.1111 35.3683 48.4646 35.7685 47.7892 35.5727C46.6357 35.357 45.4666 35.2374 44.2937 35.215C43.1876 35.1639 42.4868 34.7636 41.9802 35.0106C41.4733 35.3412 41.0083 35.733 40.5955 36.1773C40.4013 36.3732 39.8947 36.1773 39.3459 36.024C38.9412 35.8797 38.5683 35.6569 38.2483 35.3683C38.2483 35.3683 38.299 35.8196 37.995 35.8707C37.6911 35.9218 37.6911 36.1262 37.6911 36.1262C37.6911 36.1262 38.2483 35.9218 38.1892 36.3221C38.1301 36.7223 38.4425 37.6847 38.147 37.7358C37.8515 37.7869 38.3918 37.9402 38.7465 37.9913H38.8393C38.7746 37.9509 38.7187 37.8976 38.6751 37.8346C38.6315 37.7716 38.6012 37.7003 38.586 37.6251C38.4341 37.1226 38.2905 36.6201 38.4847 36.3647C38.6789 36.1092 38.586 36.1688 38.9913 36.3136C39.3073 36.4723 39.6421 36.5897 39.9876 36.6627C40.3338 36.7223 40.3338 37.0204 40.0889 37.4207C39.8441 37.8209 39.6837 38.136 39.5317 38.136C39.3797 38.136 39.3881 38.1871 39.4388 38.6896C39.5018 39.095 39.4671 39.5098 39.3375 39.8989C39.2382 40.6638 39.2043 41.436 39.2362 42.2068C39.2362 42.5645 39.4895 42.1131 39.4895 43.0073C39.4895 43.9015 40.2409 45.0342 39.633 45.2386C39.3451 45.3005 39.0454 45.2763 38.7709 45.1689C38.4965 45.0615 38.259 44.8755 38.0879 44.6339C37.7839 44.2336 38.8816 45.8858 39.2362 45.988C39.5908 46.0902 39.6837 45.4344 39.8356 45.741C39.9876 46.0476 40.3338 46.8481 40.0298 47.0014C39.7259 47.1547 39.1348 46.9503 38.586 46.2435C38.2429 45.8038 37.8765 45.383 37.4884 44.9831C37.7968 45.6374 38.1642 46.2617 38.586 46.8481C39.0842 47.4528 39.8356 48.1596 40.1311 47.8019C40.2997 47.6351 40.422 47.4266 40.4858 47.1973C40.4858 47.1973 40.7897 47.4017 40.9417 48.611C41.0937 49.8203 41.786 52.0856 41.7354 52.6902C41.6847 53.2949 41.3892 53.5419 41.1866 52.9457C40.9344 51.9717 40.7677 50.9771 40.6884 49.9736C40.6452 49.4487 40.5634 48.9277 40.4436 48.4151C40.4436 48.4151 40.7897 51.6853 40.5364 52.3922C40.2831 53.099 39.937 53.3034 38.9322 52.7413C37.9275 52.1793 36.3992 51.9408 36.3992 51.532C36.3128 50.4418 36.344 49.3453 36.4921 48.2618C36.6948 47.4102 36.8974 46.3968 37.0494 45.6388C37.1473 45.0915 37.2798 44.551 37.4462 44.0207C37.7129 43.2462 37.7655 42.413 37.5982 41.6106C37.3612 40.7511 37.1918 39.8741 37.0916 38.9877C37.0642 38.4053 36.9474 37.8307 36.7454 37.2844C36.6019 36.7734 36.6441 36.9267 37.0494 36.6287C37.4546 36.3306 37.7417 36.3732 36.948 36.2284C36.1544 36.0836 36.3486 36.2284 35.7491 35.7685C35.58 35.5934 35.3778 35.4541 35.1545 35.3591C34.9312 35.264 34.6912 35.215 34.4488 35.215C33.9507 35.215 31.8483 35.1128 31.1982 35.0617C30.5481 35.0106 29.4504 34.9084 28.6061 34.9084C27.6948 35.0065 26.7768 35.0264 25.8621 34.968C24.6265 34.8812 23.4038 34.6614 22.2146 34.3123C21.556 34.0057 21.5054 34.2612 21.0494 34.457C20.5935 34.6529 17.7312 35.0702 17.7312 35.2235H19.1412C19.0315 36.4328 18.9555 37.6506 18.9555 38.9025H9.95499C9.9876 32.1365 12.3787 25.5977 16.7096 20.4308L16.6674 20.4393ZM19.1835 17.8334C19.2341 17.7823 19.2848 17.7397 19.327 17.6886L20.0193 17.0754L20.2135 16.9051L20.9143 16.326L21.1001 16.1812C22.1722 15.3426 23.3006 14.58 24.4774 13.8989L24.7307 13.7456L25.4652 13.3539L25.7945 13.1835L26.5291 12.8173L26.8584 12.664L27.6183 12.3234L27.8631 12.1786C28.1417 12.0679 28.4119 11.9487 28.7074 11.8465H28.7581C30.776 11.1029 32.8682 10.5832 34.9977 10.2965C34.4611 10.4532 33.934 10.6409 33.4188 10.8586C31.1292 11.8566 29.0705 13.3241 27.3734 15.1678L26.9935 15.5596C26.8499 15.7214 26.7064 15.8747 26.5629 16.045C26.318 16.3345 26.0731 16.6326 25.8367 16.9392V16.8455H25.0346L24.2325 19.3322C24.0721 19.5877 23.9201 19.8347 23.7681 20.0987H16.8869C17.5841 19.2776 18.3284 18.4985 19.1159 17.7653L19.1835 17.8334ZM38.4932 9.99846V20.1413H26.7908L25.8705 17.2543C26.3931 16.5428 26.9569 15.8631 27.5592 15.2189C28.9302 13.764 30.5272 12.5444 32.2874 11.608L33.1317 11.2078C33.4188 11.08 33.7058 10.9693 33.976 10.8586C35.0978 10.4493 36.2668 10.186 37.4546 10.0751H38.4509L38.4932 9.99846ZM22.527 24.3823C22.3739 24.9522 22.1407 25.4971 21.8346 26.0004C21.6565 26.2519 21.4184 26.4539 21.1423 26.588L21.4716 25.5661C21.556 25.3532 21.632 25.1403 21.7164 24.9189C21.8769 24.5101 22.1808 23.7607 22.5101 22.9687C22.8394 22.1766 23.3544 21.2654 23.8104 20.4138L22.527 24.3823ZM26.4531 23.3178L24.8404 24.5867L23.2953 23.3774L24.2494 20.4393H25.5834L26.4531 23.3178ZM25.0093 18.4721L25.5075 20.1753H24.3423L24.756 18.8724L25.0093 18.5062V18.4721ZM38.9998 28.0188C38.5016 27.8655 37.9021 27.2608 37.404 27.1161C36.9608 26.9945 36.5092 26.9062 36.0531 26.8521L36.3064 26.5029C36.0203 26.5718 35.7384 26.6571 35.462 26.7584C34.7106 27.0139 34.3222 26.6477 34.1196 27.065C34.024 27.2205 33.972 27.3992 33.969 27.5821C33.9661 27.765 34.0122 27.9453 34.1027 28.1039C34.3138 28.3509 34.4066 28.6064 34.1618 28.8023C33.9169 28.9981 33.6045 28.9556 33.9591 29.5091C34.5064 30.1126 35.0901 30.6814 35.7069 31.2124C36.1544 31.7063 36.5512 31.7063 36.5512 32.1662C36.5512 32.626 36.4921 33.2733 36.4921 33.2733C35.6804 33.1673 34.8611 33.1331 34.0436 33.1711C33.1862 33.3331 32.321 33.4496 31.4515 33.5202C30.6072 33.6152 29.7536 33.5836 28.9185 33.4266C27.5909 33.2532 26.2549 33.1537 24.9164 33.1285C23.5739 33.0178 23.1265 33.2222 22.6283 32.9241C22.1302 32.626 22.3243 33.0178 21.4294 32.4642C20.7539 32.064 20.2642 31.7063 19.9096 31.5019C19.9096 31.5019 19.9096 31.5019 19.9096 31.4508C20.1865 29.8877 20.5587 28.3434 21.0241 26.8265H23.2869V26.6136C23.1051 26.5979 22.9333 26.5232 22.7972 26.4007C22.6812 26.2054 22.6226 25.981 22.6283 25.7535V25.4213L22.7043 25.0466L23.0167 24.0928L24.908 25.6427L25.2204 25.4043L26.6642 24.2631L27.0272 25.4809L27.0779 25.6513C27.0779 25.779 27.1454 25.8812 27.1623 25.9664C27.168 26.0315 27.168 26.0971 27.1623 26.1622C27.1638 26.2878 27.1186 26.4093 27.0357 26.5029C26.9474 26.6022 26.8283 26.6682 26.6979 26.6902V26.9031H29.2309V26.6562C29.1412 26.6414 29.0568 26.6032 28.9861 26.5455C28.9005 26.4753 28.8264 26.392 28.7665 26.2985C28.5718 25.9649 28.4214 25.607 28.3191 25.234L26.8753 20.4393H38.5185V26.5455C37.9713 26.3603 37.4046 26.2403 36.8298 26.1878C36.585 26.29 37.6742 26.1878 38.1808 26.6817C38.6874 27.1757 39.5317 28.1976 39.0251 28.0528L38.9998 28.0188ZM38.8393 20.4393H46.4383C46.4085 20.6539 46.3916 20.87 46.3876 21.0866C46.3893 21.8034 46.5509 22.5107 46.8604 23.156C47.2764 23.9643 47.799 24.712 48.414 25.3787V25.5491H46.2778L45.8894 24.3313H45.5433L46.2863 26.8861H49.5369C49.0339 25.9759 48.6373 25.01 48.3549 24.0076C48.0987 23.0873 47.9681 22.1361 47.9665 21.1803C47.9533 20.9306 47.9533 20.6805 47.9665 20.4308H52.9396C52.9396 20.6693 52.9396 20.9163 52.9396 21.1803C52.9398 21.648 52.9031 22.115 52.8298 22.5769C52.7592 23.0655 52.6577 23.5491 52.5258 24.0247C52.2465 25.0213 51.8526 25.9817 51.3522 26.8861H54.6029L55.3374 24.3823L55.5654 24.9529C55.6498 25.1658 55.7258 25.3787 55.8018 25.6002C56.8096 28.4913 57.4729 31.493 57.7775 34.5422L57.6171 34.3974C57.1696 33.9375 56.7728 33.6821 56.967 33.3329C57.1612 32.9837 57.3216 33.0774 57.3723 32.5835C57.4229 32.0895 57.4229 31.9788 56.967 32.2769C56.4348 32.6819 55.8254 32.9718 55.177 33.1285C54.3497 33.5171 53.4337 33.673 52.5258 33.5799C50.5248 33.5799 48.5744 33.3329 47.7301 33.5799C47.0478 33.8595 46.3122 33.9817 45.577 33.9375C44.3198 33.7849 43.0713 33.566 41.8367 33.2818C41.0459 33.1155 40.2356 33.0639 39.4304 33.1285C39.0926 33.1285 38.89 32.9837 39.1771 32.5835C39.5616 32.0458 39.8056 31.419 39.8863 30.761C39.8863 30.1052 40.0805 30.6077 40.1396 29.9094C40.1987 29.211 40.3844 28.402 39.9876 27.8484C39.6646 27.4187 39.2772 27.0423 38.8393 26.7328V20.4393ZM38.8393 10.0751H39.8356C43.6632 10.5235 47.1983 12.3608 49.7818 15.2445C50.3227 15.81 50.8302 16.4072 51.3016 17.0329C51.0233 16.9792 50.7405 16.9535 50.4572 16.9562C49.9129 16.9419 49.3714 17.0387 48.865 17.2406C48.3587 17.4426 47.898 17.7456 47.5105 18.1314C46.9558 18.6769 46.5813 19.3818 46.4383 20.1498H38.8393V10.0751ZM60.454 20.1839H54.5438C54.3901 19.4141 54.0071 18.7099 53.4461 18.1655C52.9529 17.6756 52.3419 17.3235 51.6731 17.1436C51.4029 16.7944 51.1327 16.4538 50.8287 16.1216C50.5923 15.8406 50.3559 15.5766 50.1111 15.3211C50.0875 15.286 50.0591 15.2544 50.0266 15.2274C47.953 12.9268 45.3011 11.2348 42.3517 10.3306C49.3745 11.242 55.8156 14.7391 60.4372 20.1498L60.454 20.1839ZM54.1554 23.0794C54.2844 22.8054 54.3889 22.5204 54.4678 22.2277C54.5944 22.4832 54.7211 22.7302 54.8393 22.9942C55.0419 23.4881 55.2446 23.9651 55.3965 24.3568H55.0757L54.6789 25.5491H52.6018V25.3362C53.2178 24.6546 53.7404 23.8927 54.1554 23.0709V23.0794ZM52.6863 19.0001C52.7509 19.1753 52.8045 19.3545 52.8467 19.5366C52.8907 19.7392 52.9245 19.9438 52.948 20.1498H48.0256C48.0734 19.5108 48.2701 18.8922 48.5997 18.3444C48.8071 18.0379 49.0893 17.7907 49.4192 17.6266C49.749 17.4624 50.1153 17.387 50.4826 17.4076C50.9979 17.39 51.5038 17.5491 51.9179 17.8589C52.1797 18.2336 52.433 18.6084 52.6863 19.0001ZM67.3775 38.8769H58.3517C58.3517 38.0253 58.301 37.1056 58.2504 36.2369C58.7147 36.1603 59.0947 36.024 59.1876 35.777C59.2804 35.5301 59.3395 35.5216 58.8329 35.2235C58.529 35.0276 58.3263 34.9169 58.1068 34.7466C57.821 31.707 57.1834 28.7116 56.2071 25.8216L56.1311 25.6172C56.0382 25.3447 55.9369 25.0807 55.8356 24.8082C55.7765 24.6634 55.7258 24.5101 55.6667 24.3568C55.4641 23.8373 55.253 23.3263 55.0335 22.8324L54.7126 22.1852L54.5438 21.8445C54.5904 21.583 54.6158 21.3182 54.6198 21.0525C54.6158 20.8359 54.5989 20.6198 54.5691 20.4053H60.6567C64.9914 25.5699 67.383 32.1102 67.4113 38.8769H67.3775ZM40.3929 38.8769C40.3842 38.8348 40.3842 38.7913 40.3929 38.7492C40.5635 37.9237 40.8123 37.1166 41.1359 36.3391C41.2519 36.0887 41.4458 35.8833 41.6881 35.7541C41.9304 35.625 42.2079 35.5792 42.4784 35.6238C43.2298 35.7259 45.4251 35.6748 46.1765 35.8281C47.1702 36.0936 48.1971 36.2113 49.2245 36.1773C50.3728 36.0836 52.3739 35.3768 53.5728 35.2235C54.7717 35.0702 55.329 35.0702 55.8271 35.5216C56.3951 36.0206 57.1257 36.2905 57.8789 36.2795H57.9886C58.0393 37.1311 58.0815 37.9827 58.0815 38.894L40.3929 38.8769ZM60.6567 57.6126H53.8261C54.791 55.8853 55.5965 54.0723 56.2324 52.1963H55.9791C55.3348 54.0731 54.5208 55.8861 53.5475 57.6126H42.7063C42.6219 57.3486 42.4953 57.0846 42.3433 56.7014C42.0656 56.002 41.9168 55.2574 41.9042 54.5042C41.9042 54.0017 42.453 54.2572 42.4953 53.6526C42.4458 52.8823 42.3128 52.1198 42.0984 51.3787C41.8415 50.2566 41.6581 49.1187 41.5496 47.9723C41.5213 47.39 41.4045 46.8156 41.2034 46.269C41.1037 45.4013 40.9199 44.5456 40.6546 43.7142C40.2996 42.8705 40.1463 41.9545 40.2071 41.0401C40.2071 40.2991 40.2747 39.6604 40.3338 39.192H58.0646C58.0645 41.5985 57.8583 44.0005 57.4482 46.3712H57.6931C58.1018 44.0002 58.3109 41.5986 58.3179 39.192H67.3775C67.3541 45.9622 64.962 52.5068 60.6229 57.6722L60.6567 57.6126ZM44.5807 67.3892C44.5667 67.2814 44.5323 67.1774 44.4794 67.0826L44.4034 66.989C48.0509 65.2857 51.2509 62.1518 53.691 57.9192H60.4456C56.3323 62.7222 50.7661 66.0262 44.6061 67.3211L44.5807 67.3892ZM42.7908 57.8511H53.4124C51.0229 61.9985 47.8736 65.0984 44.2852 66.7164C43.8546 66.1118 43.4409 65.8648 43.2467 65.4135C43.0639 64.2879 42.996 63.1465 43.0441 62.007C43.0441 61.0957 42.9934 60.1419 42.9428 58.9752C42.9401 58.5871 42.8891 58.2008 42.7908 57.8255V57.8511ZM43.804 67.6958C43.9053 67.6192 43.3818 67.781 42.8921 67.253C42.6781 67.0707 42.5022 66.8474 42.3746 66.5959C42.2471 66.3444 42.1704 66.0698 42.1491 65.7882C42.0478 65.0302 41.9549 64.2723 41.8536 63.4207C41.7544 62.5609 41.605 61.7078 41.4061 60.8658C41.1794 60.0331 41.0603 59.1744 41.0515 58.3109C40.9522 57.471 40.7683 56.6435 40.5027 55.8412C40.3507 55.0407 39.8019 54.138 39.8019 53.7718C39.8019 53.4056 40.756 52.9202 40.9079 53.627C41.0884 54.8493 41.3364 56.0605 41.6509 57.2549C42.0654 57.94 42.3034 58.7187 42.3433 59.5202C42.3433 60.4315 42.3433 62.3902 42.4024 63.3014C42.4615 64.2127 42.453 65.72 42.7992 66.1714L43.804 67.4829C43.9929 67.5388 44.1904 67.5591 44.3865 67.5425C44.2078 67.6394 44.0067 67.6865 43.804 67.6788V67.6958ZM42.2757 67.6788L42.4784 67.6106H42.605C42.497 67.6395 42.3869 67.6594 42.2757 67.6703V67.6788ZM38.8393 57.6041V53.8655C38.9125 53.8719 38.9826 53.8983 39.0421 53.9418C39.1016 53.9853 39.1483 54.0443 39.1771 54.1124C39.2615 54.5212 39.9201 56.4885 40.1143 57.2464C40.147 57.37 40.1922 57.4899 40.2494 57.6041H38.8393ZM39.6837 67.9428H38.8393V57.8511H40.3507C40.5225 58.2441 40.5838 58.6772 40.528 59.1029C40.4979 60.0621 40.635 61.0191 40.9333 61.9303C41.1958 62.842 41.3683 63.7777 41.4483 64.7236C41.3795 65.4099 41.4661 66.1029 41.7016 66.7505C41.8705 66.989 42.0647 67.3296 42.1744 67.517C41.3454 67.7443 40.4976 67.8954 39.6414 67.9683L39.6837 67.9428ZM38.5185 57.6041H37.1507C37.1047 56.9851 37.203 56.3639 37.4378 55.7901L38.2821 53.8655H38.5438L38.5185 57.6041ZM38.5185 67.9598H37.6742C37.1631 67.9213 36.6553 67.8473 36.1544 67.7384C36.4499 67.6192 36.4161 67.2955 36.2895 66.742C36.0945 65.8787 36.0602 64.9864 36.1882 64.1105C36.3035 63.1333 36.5215 62.1713 36.8383 61.2405C37.1338 60.4911 37.0325 60.3889 37.0916 58.873C37.0916 58.4898 37.0916 58.1576 37.0916 57.8681H38.4932L38.5185 67.9598ZM35.6562 67.7639C34.8119 67.7639 33.2161 67.6447 33.3512 67.4148C33.6467 67.551 34.1956 67.2104 34.5924 66.759C34.8383 66.5785 35.0288 66.3318 35.1423 66.0472C35.2558 65.7625 35.2876 65.4514 35.2341 65.1495C35.1056 63.2873 35.0746 61.4197 35.1412 59.5543C35.3646 58.2053 35.6806 56.8736 36.0868 55.5687C36.319 54.5625 36.452 53.5355 36.4837 52.5029L37.4884 52.6477C37.5438 53.1781 37.4773 53.7143 37.2942 54.2146C36.7635 55.0548 36.4985 56.0379 36.5343 57.0335C36.6309 58.145 36.5826 59.2645 36.3908 60.3633C36.0483 61.3217 35.8298 62.3207 35.7407 63.3355C35.69 64.3915 35.9349 65.6519 35.9349 66.1544C35.9349 66.6568 35.3438 67.1082 35.2847 67.3722C35.2256 67.6362 35.4114 67.7128 35.69 67.7554L35.6562 67.7639ZM16.8869 57.8511H23.6415C26.1745 62.2795 29.5518 65.5157 33.4357 67.1508C33.2499 67.2615 33.157 67.3466 33.2921 67.4233C26.907 66.1978 21.1233 62.823 16.8869 57.8511ZM34.6177 65.2091C34.6685 65.4836 34.6494 65.7667 34.5623 66.0318C34.4752 66.2968 34.3229 66.5353 34.1196 66.725C33.9932 66.8284 33.8575 66.9196 33.7143 66.9975C29.8557 65.4816 26.47 62.2369 23.9455 57.8511H34.7528C34.5993 58.4453 34.5004 59.0525 34.4573 59.665C34.4066 61.0787 34.5586 64.5022 34.6008 65.2091H34.6177ZM19.2341 38.8769C19.2341 37.6251 19.3101 36.3987 19.4283 35.1894H21.4631C22.72 35.1402 23.9782 35.2402 25.2119 35.4875C26.7321 35.7421 28.2734 35.8448 29.8135 35.7941C31.4093 35.7941 33.309 35.3938 34.4995 35.9985C35.0063 36.3159 35.4407 36.7381 35.774 37.2372C36.1073 37.7363 36.3319 38.3009 36.433 38.894L19.2341 38.8769ZM9.94655 39.1239H18.9808C18.9809 41.5304 19.1871 43.9324 19.5972 46.3031H19.8505C19.4362 43.9329 19.23 41.5306 19.2341 39.1239H36.4752V39.3028C36.6185 40.6775 36.593 42.0647 36.3992 43.4331C36.2557 43.8419 36.0024 43.5353 36.0531 44.2847C36.1037 45.0342 35.6562 47.8615 35.6562 48.8665C35.6562 49.8714 35.7069 51.5406 35.6562 52.3496C35.6997 53.3415 35.6658 54.3352 35.5549 55.3217C35.2735 56.0837 35.0312 56.8597 34.8288 57.6467H23.785C22.8143 55.92 22.0032 54.1069 21.3618 52.2304H21.1085C21.7472 54.1066 22.5555 55.9197 23.5233 57.6467H16.6843C12.3521 52.4772 9.96101 45.9353 9.92966 39.1665L9.94655 39.1239ZM38.6367 68.309C42.7878 68.3149 46.8918 67.4225 50.6717 65.6919C54.4516 63.9614 57.8194 61.4331 60.5479 58.2777C63.2763 55.1222 65.3018 51.4131 66.4877 47.4006C67.6735 43.3882 67.9922 39.1658 67.422 35.0186C66.8519 30.8713 65.4063 26.8957 63.1827 23.3601C60.9592 19.8245 58.0095 16.8112 54.5328 14.5236C51.0561 12.236 47.1333 10.7273 43.0291 10.0995C38.925 9.47167 34.7351 9.73924 30.7423 10.8842L30.5818 10.9352C29.2747 11.3162 27.9965 11.7915 26.7571 12.3575C20.7259 15.1175 15.8126 19.8758 12.8334 25.8419C9.8542 31.8079 8.98851 38.6226 10.3802 45.1535C11.7718 51.6845 15.337 57.5385 20.4834 61.7431C25.6299 65.9477 32.0476 68.2496 38.6705 68.2664" fill="#323232"/>
</svg>