<?xml version="1.0" encoding="utf-8"?>
<!-- Generator: Adobe Illustrator 27.5.0, SVG Export Plug-In . SVG Version: 6.00 Build 0)  -->
<svg version="1.1" id="Layer_1" xmlns="http://www.w3.org/2000/svg" xmlns:xlink="http://www.w3.org/1999/xlink" x="0px" y="0px"
	 viewBox="0 0 136.4 60.4" style="enable-background:new 0 0 136.4 60.4;" xml:space="preserve">
<style type="text/css">
	.st0{fill:#231F20;}
</style>
<g id="Layer_2_00000060019096031165215120000015530690968532874686_">
	<g id="Layer_1-2">
		<path class="st0" d="M38.2,54.5c-0.2,0.2-0.5,0.3-0.8,0.3H37v2.1h-0.3v-4.6h0.7c0.3,0,0.6,0,0.8,0.2c0.2,0.2,0.2,0.5,0.2,0.8v0.5
			C38.4,54.1,38.4,54.3,38.2,54.5z M38.1,53.4c0-0.4,0-0.6-0.2-0.8c-0.1-0.1-0.3-0.1-0.5-0.1H37v2h0.5c0.2,0,0.3,0,0.5-0.2
			c0.1-0.2,0.2-0.3,0.1-0.5L38.1,53.4z"/>
		<path class="st0" d="M40.8,56.5C40.6,56.8,40.3,57,40,57c-0.3,0-0.5-0.1-0.7-0.3c-0.2-0.2-0.2-0.5-0.2-0.8v-2.6
			c0-0.2,0-0.4,0.1-0.5c0.1-0.4,0.5-0.6,0.8-0.5c0.2,0,0.4,0,0.6,0.2c0.3,0.3,0.4,0.6,0.3,1V56C40.9,56.2,40.9,56.4,40.8,56.5z
			 M40.6,53.6c0-0.3,0-0.5-0.1-0.8c0-0.1-0.1-0.2-0.2-0.2c-0.1,0-0.2-0.1-0.3-0.1c-0.1,0-0.2,0-0.3,0.1c-0.2,0.2-0.3,0.4-0.3,0.6
			v2.5c0,0.2,0,0.4,0.1,0.5c0.1,0.3,0.5,0.4,0.8,0.3c0,0,0.1,0,0.1-0.1c0.2-0.2,0.3-0.5,0.2-0.7L40.6,53.6z"/>
		<path class="st0" d="M43.3,56.9l-0.8-2.2H42v2.2h-0.3v-4.6h0.8c0.2,0,0.4,0,0.6,0.2c0.2,0.2,0.3,0.4,0.2,0.6v0.7
			c0,0.1,0,0.2,0,0.3c-0.1,0.2-0.2,0.4-0.4,0.5h-0.2l0.8,2.2L43.3,56.9z M43.1,53.2c0-0.2,0-0.4-0.2-0.5c-0.1-0.1-0.2-0.1-0.3-0.1
			H42v1.8h0.6c0.1,0,0.2,0,0.3,0c0.2-0.1,0.3-0.3,0.3-0.4L43.1,53.2z"/>
		<path class="st0" d="M45,52.6v4.3h-0.3v-4.3h-0.8v-0.3h1.8v0.3H45z"/>
		<path class="st0" d="M47.9,56.5c-0.2,0.3-0.5,0.4-0.8,0.4c-0.3,0-0.5-0.1-0.7-0.3c-0.2-0.2-0.2-0.5-0.2-0.8v-2.6
			c0-0.2,0-0.4,0.1-0.5c0.1-0.4,0.5-0.6,0.8-0.5c0.2,0,0.4,0,0.6,0.2c0.3,0.3,0.4,0.6,0.3,1V56C48,56.2,48,56.4,47.9,56.5z
			 M47.7,53.6c0-0.3,0-0.5-0.1-0.8c0-0.1-0.1-0.2-0.2-0.2c-0.1,0-0.2-0.1-0.3-0.1c-0.1,0-0.2,0-0.3,0.1c-0.2,0.2-0.3,0.4-0.3,0.6
			v2.5c0,0.2,0,0.4,0,0.5c0.1,0.2,0.3,0.4,0.5,0.3c0.1,0,0.2,0,0.3-0.1c0.2-0.2,0.3-0.5,0.2-0.7V53.6z"/>
		<path class="st0" d="M110.7,14.6h3.2c-0.1-0.1-0.2-0.1-0.3-0.2c-0.1-0.1-0.2-0.2-0.3-0.4c-0.3-0.5-0.5-1-0.6-1.5l-3.6-11.6h-0.9
			L105,11.4c-0.2,0.8-0.6,1.6-1,2.3c-0.3,0.4-0.6,0.8-1.1,1h2.8c-0.3-0.1-0.5-0.3-0.7-0.5c-0.2-0.3-0.3-0.7-0.2-1v-0.5l0.1-0.6
			l3.1-9.9l3,10.5l0.1,0.2c0,0.2,0.1,0.3,0.1,0.4c0,0.1,0,0.2,0,0.3c0,0.2-0.1,0.4-0.2,0.6C111,14.5,110.8,14.6,110.7,14.6z"/>
		<path class="st0" d="M74.9,0.9h-1.8c-0.3,0.6-0.6,1.5-1.1,2.5C73,2.5,74.9,0.9,74.9,0.9z"/>
		<path class="st0" d="M68,13.4c0.3,0.3,0.5,0.5,0.8,0.7c0.3,0.2,0.6,0.3,0.8,0.4c0.3,0.1,0.6,0.2,0.9,0.3c0.4,0.1,0.7,0.1,1.1,0.1
			c0.7,0,1.5-0.1,2.1-0.4c0.7-0.3,1.2-0.8,1.7-1.3c0.6-0.7,1.2-1.6,1.5-2.5c0.3-0.9,0.5-1.9,0.5-2.8c0-1.1-0.2-2.1-0.6-3.1
			c-0.4-0.9-0.9-1.8-1.7-2.5C75,2,74.8,1.8,74.5,1.7l0,0L74,2c0.3,0.2,0.5,0.5,0.7,0.8c0.7,1.5,1.1,3.2,1,4.9c0,1.1-0.1,2.1-0.2,3.1
			c-0.1,0.8-0.4,1.5-0.7,2.2c-1,1.7-3.1,2.2-4.8,1.2C69.5,14,69,13.6,68.7,13c-0.4-0.7-0.6-1.4-0.7-2.1c-0.2-1-0.2-2-0.2-2.9
			c-0.1-1.8,0.2-3.5,1-5.1c0.5-1.1,1.7-1.8,2.9-1.8c0.3,0,0.7,0,1,0.1L72.8,1c-0.3-0.1-0.7-0.1-1-0.1c-0.7,0-1.4,0.1-2,0.4
			c-0.3,0.1-0.6,0.3-0.9,0.5c-0.3,0.2-0.5,0.4-0.8,0.7c-0.7,0.7-1.3,1.5-1.6,2.5c-0.2,0.5-0.3,0.9-0.4,1.4C66,6.9,66,7.4,66,8
			c0,1.1,0.2,2.1,0.5,3.1C66.8,12,67.3,12.8,68,13.4z"/>
		<path class="st0" d="M87.5,12.1c-0.4,0.5-0.8,1-1.3,1.4c-0.5,0.4-1,0.6-1.6,0.7c-0.7,0.1-1.4,0.1-2.1,0.1c-0.5,0-0.9,0-1.3-0.2
			c-0.3-0.4-0.4-0.8-0.3-1.2V3.1c0-0.5,0.1-1,0.2-1.4c0.1-0.3,0.3-0.4,0.6-0.5h-3.2l0,0c0.3,0.1,0.5,0.2,0.6,0.5
			c0.2,0.4,0.2,0.9,0.2,1.3v9.7c0,0.3,0,0.5,0,0.8c0,0.2-0.1,0.4-0.2,0.6c-0.1,0.3-0.4,0.4-0.6,0.5h8.5L87.5,12.1z"/>
		<path class="st0" d="M91.6,14.6c-0.3,0-0.5-0.2-0.6-0.5c-0.2-0.4-0.2-0.9-0.2-1.4V3.1c0-0.5,0-1,0.2-1.4c0.1-0.3,0.3-0.4,0.6-0.5
			h-3.2l0,0c0.3,0.1,0.5,0.2,0.6,0.5c0.2,0.4,0.2,0.9,0.2,1.3v9.7c0,0.3,0,0.5,0,0.8c0,0.2-0.1,0.4-0.2,0.6
			c-0.1,0.3-0.3,0.4-0.6,0.5H91.6L91.6,14.6z"/>
		<path class="st0" d="M41,15c1,0,2-0.3,2.9-0.8c0.9-0.6,1.6-1.5,2.1-2.4c-0.3,0.4-0.6,0.7-0.9,1c-0.3,0.3-0.6,0.6-1,0.8
			c-0.7,0.4-1.5,0.7-2.3,0.7c-1.5,0-2.8-0.8-3.6-2c-1-1.5-1.4-3.2-1.4-5c-0.1-1.5,0.3-3.1,1.1-4.4c0.6-1,1.7-1.7,2.9-1.7
			c0.9,0,1.7,0.3,2.4,0.9c0.7,0.7,1.3,1.5,1.6,2.5l0.6-2c-0.7-0.5-1.4-0.8-2.1-1.1C42.6,1.1,41.9,1,41.2,1c-0.7,0-1.4,0.1-2,0.3
			c-0.3,0.1-0.6,0.3-0.8,0.4c-0.3,0.2-0.5,0.3-0.7,0.5C36.9,3,36.3,4,35.9,4.9c-0.2,0.5-0.4,1.1-0.4,1.6c-0.1,0.6-0.2,1.2-0.2,1.8
			c-0.1,1.7,0.5,3.5,1.6,4.8C37.9,14.4,39.4,15.1,41,15z"/>
		<path class="st0" d="M48.5,14.6c-0.3-0.1-0.5-0.3-0.7-0.5c-0.2-0.3-0.3-0.7-0.2-1v-0.5l0.1-0.6l3.1-9.9l3,10.5l0.1,0.2
			c0.1,0.1,0.1,0.3,0.1,0.4c0,0.1,0,0.2,0,0.3c0,0.2-0.1,0.4-0.2,0.6c-0.1,0.1-0.3,0.3-0.4,0.3h3.2c-0.1-0.1-0.2-0.1-0.3-0.2
			c-0.1-0.1-0.2-0.2-0.3-0.4c-0.3-0.5-0.5-1-0.6-1.5L51.8,0.9h-0.9l-3.2,10.4c-0.2,0.8-0.6,1.6-1,2.3c-0.3,0.4-0.6,0.8-1.1,1
			L48.5,14.6z"/>
		<path class="st0" d="M102.4,12.8c-0.3,0.3-0.6,0.6-1,0.8c-0.7,0.4-1.5,0.7-2.3,0.7c-1.5,0-2.8-0.8-3.6-2c-1-1.5-1.5-3.2-1.4-5
			c-0.1-1.5,0.3-3.1,1.1-4.4c0.6-1.1,1.7-1.7,3-1.7c0.9,0,1.7,0.3,2.4,0.9c0.7,0.7,1.3,1.5,1.6,2.5l0.6-2c-0.7-0.5-1.4-0.8-2.2-1.1
			c-0.7-0.3-1.4-0.4-2.1-0.4c-0.7,0-1.4,0.1-2,0.3c-0.3,0.1-0.6,0.3-0.8,0.4c-0.3,0.2-0.5,0.3-0.7,0.6c-0.8,0.7-1.4,1.7-1.8,2.7
			C93,5.4,92.8,6,92.8,6.5c-0.1,0.6-0.2,1.2-0.2,1.8c-0.1,1.7,0.5,3.5,1.6,4.8c1,1.2,2.5,1.9,4.1,1.8c1,0,2-0.3,2.9-0.8
			c0.9-0.6,1.6-1.4,2.2-2.4C103,12.1,102.7,12.5,102.4,12.8z"/>
		<path class="st0" d="M59.4,14.2c-0.1,0.3-0.4,0.4-0.6,0.5H62c-0.3,0-0.5-0.2-0.6-0.5c-0.2-0.4-0.3-0.9-0.2-1.4V2.3
			c0-0.2,0-0.4,0.2-0.6c0.1-0.1,0.3-0.2,0.5-0.2c0.8,0,1.6,0.1,2.4,0.5c0.7,0.4,1.2,1,1.6,1.7l-0.6-2.5h-9.6l-0.6,2.5
			c0.4-0.7,0.9-1.2,1.6-1.7c0.7-0.4,1.6-0.6,2.4-0.5c0.2,0,0.4,0,0.5,0.2c0.1,0.2,0.1,0.4,0.1,0.6v10.5
			C59.6,13.2,59.5,13.7,59.4,14.2z"/>
		<path class="st0" d="M39.4,25.5c0,0.2,0,0.4,0,0.5c0,0.5-0.3,0.8-0.8,1c-0.2,0.1-0.5,0.1-0.7,0.1c-0.4,0-0.7-0.1-1-0.3
			c-0.1-0.1-0.2-0.2-0.3-0.3c-0.3-0.5-0.3-1.1-0.3-1.7v-1c0-0.4,0-0.7,0-1.1c0-0.6,0.1-1.1,0.3-1.6c0.3-0.4,0.8-0.6,1.3-0.5
			c0.4,0,0.8,0.1,1.1,0.4c0.2,0.3,0.3,0.6,0.3,1.3c0,0.1,0,0.3,0,0.4h-0.7c0-0.2,0-0.5,0-0.7c0-0.2-0.1-0.5-0.2-0.6
			c-0.3-0.2-0.8-0.1-1,0.2c-0.1,0.1-0.1,0.2-0.1,0.3c-0.1,0.7-0.1,1.4-0.1,2.1c0,0.5,0,1,0,1.4c0,0.3,0,0.6,0.1,0.8
			c0.1,0.2,0.4,0.3,0.6,0.3c0.2,0,0.3,0,0.4-0.1c0.3-0.2,0.3-0.7,0.3-1.1v-0.5h0.7C39.4,25,39.4,25.2,39.4,25.5z"/>
		<path class="st0" d="M43,26.5c-0.1,0.2-0.3,0.3-0.5,0.4c-0.4,0.1-0.8,0.2-1.2,0.1h-1.1v-6.4h1.6c0.4-0.1,0.8,0.1,1.1,0.4
			c0.3,0.3,0.4,0.7,0.4,1.1c0,0.4-0.1,0.7-0.3,1.1c-0.1,0.1-0.2,0.2-0.4,0.3c-0.1,0.1-0.2,0.1-0.4,0.1c0.2,0,0.4,0.1,0.6,0.2
			c0.3,0.2,0.5,0.6,0.5,1.3C43.4,25.6,43.3,26.1,43,26.5z M42.2,21.5c-0.2-0.1-0.5-0.2-0.8-0.2H41v1.9h0.5c0.1,0,0.3,0,0.4,0
			c0.3-0.1,0.6-0.3,0.6-0.9C42.5,22,42.4,21.7,42.2,21.5L42.2,21.5z M42.5,24.4c-0.1-0.1-0.1-0.2-0.2-0.2C42,24,41.9,24,41.4,24H41
			v2.4h0.5c0.2,0,0.4,0,0.5,0c0.4-0.1,0.6-0.3,0.6-1C42.6,25,42.6,24.7,42.5,24.4L42.5,24.4z"/>
		<path class="st0" d="M46.9,28l-1-0.9c-0.1,0-0.3,0-0.5,0c-0.6,0-1.2-0.5-1.2-1.1c0-0.3,0-0.8,0-1.5s0-1.2,0-1.9
			c0-0.5,0.1-0.9,0.2-1.3c0.3-0.5,0.8-0.7,1.4-0.7c0.6-0.1,1.2,0.3,1.4,0.9c0.1,0.6,0.2,1.2,0.1,1.7c0,0.6,0,1.3,0,1.9
			c0,0.5-0.1,1-0.3,1.5c-0.1,0.2-0.2,0.3-0.4,0.4l0.8,0.7L46.9,28z M46.4,22.2c0-0.2,0-1-0.8-1c-0.2,0-0.5,0.1-0.6,0.3
			c-0.1,0.1-0.1,0.3-0.2,0.5c0,0.6,0,1.2,0,1.8c0,0.5,0,1,0,1.5c0,0.3,0,0.6,0.1,0.9c0.1,0.2,0.4,0.3,0.6,0.3c0.3,0,0.5-0.1,0.6-0.3
			c0.1-0.5,0.2-1,0.1-1.5v-0.9C46.5,23.2,46.5,22.7,46.4,22.2z"/>
		<path class="st0" d="M48.9,21.4v1.9h1.8v0.7h-1.8V27h-0.8v-6.4h2.8v0.7L48.9,21.4z"/>
		<path class="st0" d="M53.3,25.1v-1.1h0.8v1.1H53.3z"/>
		<path class="st0" d="M59.1,26.4c-0.2,0.5-0.7,0.8-1.2,0.7c-0.5,0-1-0.3-1.2-0.8c-0.1-0.2-0.1-0.5-0.1-0.8v-3.5
			c0-0.4,0-0.7,0.2-1.1c0.2-0.3,0.6-0.5,1-0.5c0.5,0,0.9,0.2,1.1,0.7c0.1,0.2,0.1,0.4,0.1,0.6v0.9h-0.4v-0.4c0-0.3,0-0.6-0.1-1
			c-0.1-0.1-0.1-0.2-0.2-0.2C58.1,21,58,21,57.8,21c-0.2,0-0.3,0-0.5,0.1C57.1,21.3,57,21.7,57,22v3.1c0,0.4,0,0.8,0.2,1.2
			c0.1,0.1,0.2,0.2,0.3,0.3c0.1,0.1,0.3,0.1,0.5,0.1c0.1,0,0.3,0,0.4-0.1c0.3-0.2,0.4-0.5,0.4-0.8v-1h0.5v1
			C59.1,26.1,59.1,26.2,59.1,26.4z"/>
		<path class="st0" d="M60.5,21v2.5H62v0.4h-1.5v2.8h1.8V27H60v-6.4h2.3V21H60.5z"/>
		<path class="st0" d="M64.9,27l-1.5-6v6H63v-6.4h0.7l1.5,6.1l-0.1-6.1h0.4V27H64.9z"/>
		<path class="st0" d="M67.7,21v6h-0.4v-6h-1.1v-0.4h2.7V21H67.7z"/>
		<path class="st0" d="M71.8,27l-1.2-3.1h-0.7V27h-0.4v-6.4h1.2c0.3,0,0.6,0.1,0.9,0.2c0.3,0.2,0.4,0.6,0.4,0.9v1c0,0.1,0,0.3,0,0.4
			c-0.1,0.3-0.3,0.5-0.6,0.7c-0.1,0-0.2,0.1-0.2,0.1l1.1,3.1H71.8z M71.5,21.9c0-0.3-0.1-0.6-0.3-0.8C71.1,21,70.9,21,70.8,21h-0.8
			v2.5h0.8c0.1,0,0.3,0,0.4,0c0.3-0.1,0.4-0.4,0.4-0.6V21.9z"/>
		<path class="st0" d="M73.3,21v2.5h1.5v0.4h-1.5v2.8h1.8V27h-2.3v-6.4h2.3V21H73.3z"/>
		<path class="st0" d="M78,21v2.5h1.6v0.4H78V27h-0.4v-6.4h2.2V21H78z"/>
		<path class="st0" d="M82.8,26.5c-0.2,0.4-0.7,0.6-1.1,0.6c-0.4,0-0.7-0.1-1-0.4c-0.2-0.3-0.3-0.7-0.3-1.1v-3.6
			c0-0.2,0-0.5,0.1-0.7c0.2-0.5,0.7-0.8,1.2-0.8c0.3,0,0.6,0.1,0.8,0.2c0.4,0.4,0.6,0.9,0.5,1.4v3.5C83,26,82.9,26.3,82.8,26.5z
			 M82.5,22.4c0-0.4,0-0.7-0.2-1.1c-0.1-0.1-0.2-0.2-0.3-0.3C82,21,81.8,21,81.7,21c-0.2,0-0.3,0-0.5,0.1c-0.3,0.2-0.4,0.5-0.4,0.9
			v3.5c0,0.2,0,0.5,0.1,0.7c0.2,0.4,0.7,0.6,1.2,0.4c0,0,0.1,0,0.1-0.1c0.3-0.2,0.4-0.6,0.4-1V22.4z"/>
		<path class="st0" d="M86.3,27l-1.2-3.1h-0.7V27H84v-6.4h1.2c0.3,0,0.6,0.1,0.9,0.2c0.3,0.2,0.4,0.6,0.3,0.9v1c0,0.1,0,0.3,0,0.4
			c-0.1,0.3-0.3,0.6-0.6,0.7c-0.1,0-0.1,0.1-0.2,0.1l1.1,3.1H86.3z M86,21.9c0-0.3-0.1-0.6-0.3-0.8C85.6,21,85.4,21,85.2,21h-0.8
			v2.5h0.8c0.1,0,0.3,0,0.4,0c0.3-0.1,0.4-0.4,0.4-0.6L86,21.9z"/>
		<path class="st0" d="M91.2,26.8C91,26.9,90.7,27,90.4,27h-1.3v-6.4h1.2c0.5-0.1,0.9,0.3,1,0.7c0,0.1,0,0.2,0,0.3v1
			c0,0.1,0,0.3,0,0.4c-0.1,0.3-0.4,0.5-0.7,0.5c0.2,0,0.5,0.1,0.7,0.2c0.2,0.3,0.3,0.6,0.3,0.9v1.1C91.6,26.2,91.5,26.5,91.2,26.8z
			 M90.9,21.8c0-0.1,0-0.3-0.1-0.4C90.7,21,90.4,21,90.1,21h-0.6v2.4H90c0.1,0,0.3,0,0.4-0.1c0.4-0.1,0.6-0.5,0.5-0.8L90.9,21.8z
			 M91.1,24.8c0-0.1,0-0.3-0.1-0.4c-0.2-0.5-0.7-0.5-1.1-0.5h-0.5v2.9h0.8c0.2,0,0.4,0,0.6-0.1c0.2-0.2,0.2-0.4,0.2-0.9V24.8z"/>
		<path class="st0" d="M92.5,27v-6.4h0.5V27H92.5z"/>
		<path class="st0" d="M96.3,26.5c-0.2,0.4-0.7,0.6-1.1,0.6c-0.4,0-0.7-0.1-1-0.4c-0.2-0.3-0.3-0.7-0.3-1.1v-3.6
			c0-0.2,0-0.5,0.1-0.7c0.2-0.5,0.7-0.8,1.2-0.8c0.3,0,0.6,0.1,0.8,0.2c0.4,0.4,0.5,0.9,0.4,1.4v3.5C96.5,26,96.5,26.3,96.3,26.5z
			 M96.1,22.4c0.1-0.4,0-0.7-0.1-1.1c-0.1-0.1-0.2-0.2-0.3-0.3C95.6,21,95.4,21,95.3,21c-0.2,0-0.3,0-0.5,0.1
			c-0.3,0.2-0.4,0.5-0.4,0.9v3.5c0,0.2,0,0.5,0.1,0.7c0.2,0.4,0.7,0.6,1.2,0.4c0,0,0.1,0,0.1-0.1c0.3-0.2,0.4-0.6,0.4-1L96.1,22.4z"
			/>
		<path class="st0" d="M98.7,21v6h-0.4v-6h-1.1v-0.4h2.7V21H98.7z"/>
		<path class="st0" d="M100.8,21v2.5h1.5v0.4h-1.5v2.8h1.8V27h-2.2v-6.4h2.3V21H100.8z"/>
		<path class="st0" d="M105.8,26.4c-0.3,0.6-1.1,0.9-1.8,0.6c-0.3-0.1-0.5-0.4-0.6-0.6c-0.1-0.3-0.1-0.5-0.1-0.8v-3.5
			c0-0.4,0-0.7,0.2-1.1c0.2-0.3,0.6-0.5,1-0.5c0.5,0,0.9,0.2,1.1,0.7c0.1,0.2,0.1,0.4,0.1,0.6v0.9h-0.4v-0.4c0-0.3,0-0.6-0.1-1
			c-0.1-0.1-0.1-0.2-0.2-0.2c-0.1-0.1-0.3-0.1-0.4-0.1c-0.2,0-0.3,0-0.5,0.1c-0.3,0.2-0.4,0.5-0.4,0.9v3.1c0,0.4,0,0.8,0.2,1.2
			c0.1,0.1,0.1,0.2,0.3,0.3c0.1,0.1,0.3,0.1,0.5,0.1c0.1,0,0.3,0,0.4-0.1c0.3-0.2,0.4-0.5,0.4-0.8v-1h0.4v1
			C105.9,26,105.9,26.2,105.8,26.4z"/>
		<path class="st0" d="M108.9,27v-3.1h-1.7V27h-0.4v-6.4h0.4v2.9h1.7v-2.9h0.4V27H108.9z"/>
		<path class="st0" d="M112.2,27l-1.5-6v6h-0.4v-6.4h0.7l1.5,6.1l-0.1-6.1h0.4V27H112.2z"/>
		<path class="st0" d="M116.3,26.5c-0.2,0.4-0.7,0.6-1.1,0.6c-0.4,0-0.7-0.1-1-0.4c-0.2-0.3-0.3-0.7-0.3-1.1v-3.6
			c0-0.2,0-0.5,0.1-0.7c0.2-0.5,0.7-0.8,1.2-0.8c0.3,0,0.6,0.1,0.8,0.2c0.4,0.4,0.5,0.9,0.5,1.4v3.5C116.5,26,116.5,26.3,116.3,26.5
			z M116.1,22.4c0-0.4,0-0.7-0.2-1.1c-0.1-0.1-0.2-0.2-0.3-0.3c-0.3-0.2-0.6-0.2-0.9,0c-0.3,0.2-0.4,0.5-0.4,0.9v3.5
			c0,0.2,0,0.5,0.1,0.7c0.1,0.3,0.4,0.5,0.8,0.5c0.2,0,0.4-0.1,0.5-0.2c0.3-0.2,0.4-0.6,0.4-1V22.4z"/>
		<path class="st0" d="M117.6,27v-6.4h0.4v6h1.7V27H117.6z"/>
		<path class="st0" d="M122.7,26.5c-0.2,0.4-0.7,0.6-1.1,0.6c-0.4,0-0.7-0.1-1-0.4c-0.2-0.3-0.3-0.7-0.3-1.1v-3.6
			c0-0.2,0-0.5,0.1-0.7c0.2-0.5,0.7-0.8,1.2-0.8c0.3,0,0.6,0.1,0.8,0.2c0.4,0.4,0.5,0.9,0.4,1.4v3.5C123,26,122.9,26.3,122.7,26.5z
			 M122.5,22.4c0-0.4,0-0.7-0.2-1.1c-0.1-0.1-0.2-0.2-0.3-0.3c-0.1-0.1-0.3-0.1-0.4-0.1c-0.2,0-0.3,0-0.5,0.1
			c-0.3,0.2-0.4,0.5-0.4,0.9v3.5c0,0.2,0,0.5,0.1,0.7c0.1,0.3,0.5,0.5,0.8,0.5c0.2,0,0.3-0.1,0.5-0.2c0.3-0.2,0.4-0.6,0.4-1V22.4z"
			/>
		<path class="st0" d="M126.2,27v-0.5c-0.1,0.1-0.1,0.1-0.2,0.2c-0.2,0.2-0.6,0.4-0.9,0.4c-0.4,0-0.8-0.2-1-0.5
			c-0.2-0.4-0.3-0.8-0.2-1.2V22c0-0.4,0.1-0.8,0.3-1.1c0.1-0.1,0.1-0.1,0.2-0.2c0.2-0.2,0.5-0.2,0.8-0.2c0.5-0.1,1,0.3,1.2,0.8
			c0,0.2,0,0.3,0,0.5v0.9H126V22c0-0.2,0-0.5-0.1-0.7c-0.1-0.3-0.4-0.4-0.7-0.4c-0.2,0-0.4,0.1-0.6,0.2c-0.3,0.3-0.3,0.7-0.3,1.1v3
			c0,0.3,0,0.7,0.1,1c0.1,0.3,0.4,0.4,0.7,0.4c0.2,0,0.4-0.1,0.5-0.2c0.3-0.3,0.4-0.6,0.4-1v-1h-0.9v-0.4h1.4V27H126.2z"/>
		<path class="st0" d="M128.8,24.2V27h-0.4v-2.8l-1.3-3.6h0.5l1,3l1-3h0.5L128.8,24.2z"/>
		<path class="st0" d="M38.7,37.9l-0.3-1.9H37l-0.3,1.9h-0.5l1.2-6.4H38l1.2,6.4H38.7z M37.8,32.6c0-0.2-0.1-0.4-0.1-0.6
			c0,0.2,0,0.4-0.1,0.5l-0.5,3h1.2L37.8,32.6z"/>
		<path class="st0" d="M41.7,37.9l-1.5-6v6h-0.4v-6.4h0.7l1.5,6.1v-6.1h0.4v6.4H41.7z"/>
		<path class="st0" d="M46,36.1c0,0.5-0.2,1-0.6,1.4c-0.2,0.2-0.4,0.3-0.6,0.3c-0.2,0-0.3,0.1-0.5,0h-0.8v-6.4H44
			c0.6-0.1,1.2,0.1,1.6,0.5c0.4,0.6,0.5,1.4,0.4,2.1V36.1L46,36.1z M45.6,34.1c0-0.6,0-1.1-0.2-1.6C45.2,32.2,45,32,44.7,32
			c-0.1,0-0.3-0.1-0.5-0.1h-0.3v5.6h0.4c0.3,0,0.6-0.1,0.8-0.2c0.4-0.3,0.5-0.8,0.5-1.7V34.1z"/>
		<path class="st0" d="M49.2,31.9v2.5h1.6v0.4h-1.6v3.1h-0.4v-6.4H51v0.4H49.2z"/>
		<path class="st0" d="M51.6,37.9v-6.4H52v6.4H51.6z"/>
		<path class="st0" d="M54.9,37.9l-1.5-6v6H53v-6.4h0.7l1.5,6.1l-0.1-6.1h0.4v6.4H54.9z"/>
		<path class="st0" d="M57.1,31.9v2.5h1.5v0.4h-1.5v2.7h1.8v0.4h-2.2v-6.4h2.3v0.4H57.1z"/>
		<path class="st0" d="M63.8,37.3c-0.3,0.6-1.1,0.9-1.8,0.6c-0.3-0.1-0.5-0.4-0.6-0.6c-0.1-0.2-0.1-0.5-0.1-0.8V33
			c0-0.4,0-0.7,0.2-1.1c0.2-0.3,0.6-0.5,1-0.5c0.5,0,0.9,0.2,1.1,0.7c0.1,0.2,0.1,0.4,0.1,0.6v0.9h-0.4v-0.4c0-0.3,0-0.7-0.1-1
			C63.2,32.1,63.1,32,63,32c-0.1-0.1-0.3-0.1-0.4-0.1c-0.2,0-0.3,0-0.5,0.1c-0.3,0.2-0.4,0.5-0.4,0.9V36c0,0.4,0,0.8,0.2,1.2
			c0.1,0.1,0.1,0.2,0.3,0.3c0.1,0.1,0.3,0.1,0.5,0.1c0.1,0,0.3,0,0.4-0.1c0.3-0.2,0.4-0.5,0.4-0.8v-1h0.5v1
			C63.9,36.9,63.8,37.1,63.8,37.3z"/>
		<path class="st0" d="M66.9,37.9v-3.2h-1.7v3.2h-0.4v-6.4h0.4v2.9h1.7v-2.9h0.4v6.4H66.9z"/>
		<path class="st0" d="M68.8,31.9v2.5h1.5v0.4h-1.5v2.7h1.8v0.4h-2.2v-6.4h2.3v0.4H68.8z"/>
		<path class="st0" d="M74.4,37.9V32l-1.1,5.9h-0.4L71.8,32v5.9h-0.4v-6.4H72l1.1,5.5l1.1-5.5h0.7l0.1,6.4H74.4z"/>
		<path class="st0" d="M75.9,37.9v-6.4h0.5v6.4H75.9z"/>
		<path class="st0" d="M79.7,37.5C79.4,37.8,79,38,78.6,38c-0.3,0-0.5,0-0.7-0.2c-0.1,0-0.1-0.1-0.2-0.2c-0.1-0.1-0.2-0.3-0.3-0.5
			c-0.1-0.2-0.1-0.3-0.1-0.5v-0.9h0.4v0.5c0,0.1,0,0.3,0,0.4c0,0.5,0.3,0.9,0.8,0.9c0.1,0,0.1,0,0.2,0c0.2,0,0.3,0,0.5-0.1
			c0.2-0.1,0.3-0.4,0.3-0.9c0-0.3-0.1-0.6-0.2-0.9c-0.2-0.3-0.5-0.6-0.7-0.8c-0.3-0.3-0.5-0.5-0.7-0.8c-0.2-0.3-0.4-0.8-0.4-1.2
			c0-0.2,0-0.3,0-0.5c0.1-0.6,0.6-1,1.1-0.9c0,0,0,0,0,0c0.3,0,0.5,0.1,0.8,0.2c0.4,0.3,0.4,0.8,0.4,1.3v0.5h-0.4v-0.6
			c0-0.1,0-0.3,0-0.4c0-0.4-0.4-0.6-0.7-0.6c0,0,0,0,0,0c-0.2,0-0.3,0-0.4,0.1c-0.2,0.1-0.3,0.4-0.3,0.9c0,0.5,0.2,0.9,0.6,1.3
			l0.4,0.5c0.2,0.2,0.4,0.4,0.7,0.7c0.3,0.4,0.4,0.8,0.4,1.3C79.9,36.8,79.9,37.2,79.7,37.5z"/>
		<path class="st0" d="M81.9,31.9v6h-0.5v-6h-1.1v-0.4H83v0.4H81.9z"/>
		<path class="st0" d="M85.9,37.9l-1.2-3.1h-0.7v3.1h-0.4v-6.4h1.2c0.3,0,0.6,0.1,0.9,0.2c0.3,0.2,0.4,0.6,0.3,0.9v1
			c0,0.1,0,0.3,0,0.4c-0.1,0.3-0.3,0.5-0.6,0.7c-0.1,0-0.2,0.1-0.2,0.1l1.2,3.1L85.9,37.9z M85.7,32.7c0-0.3-0.1-0.6-0.3-0.8
			c-0.1-0.1-0.3-0.1-0.5-0.1h-0.8v2.5h0.8c0.1,0,0.3,0,0.4,0c0.3-0.1,0.4-0.4,0.4-0.6L85.7,32.7z"/>
		<path class="st0" d="M88.3,35.1v2.8h-0.4v-2.8l-1.3-3.6h0.5l1,3l1-3h0.5L88.3,35.1z"/>
		<path class="st0" d="M93.2,37.9L93,36.5h-0.9l-0.2,1.4h-0.3l0.8-4.6h0.4l0.8,4.6H93.2z M92.6,34.1c0-0.1-0.1-0.3-0.1-0.4
			C92.5,33.8,92.5,33.9,92.6,34.1l-0.4,2.1H93L92.6,34.1z"/>
		<path class="st0" d="M95.8,37.6C95.6,37.9,95.3,38,95,38c-0.2,0-0.4,0-0.5-0.1c-0.1,0-0.1-0.1-0.1-0.1c-0.1-0.1-0.2-0.2-0.2-0.3
			c0-0.1,0-0.2,0-0.4v-0.7h0.3v0.4c0,0.1,0,0.2,0,0.3c0,0.3,0.2,0.6,0.5,0.6c0,0,0.1,0,0.1,0c0.1,0,0.2,0,0.3-0.1
			c0.2-0.1,0.2-0.3,0.2-0.7c0-0.2,0-0.5-0.2-0.7c-0.1-0.2-0.3-0.4-0.5-0.6c-0.2-0.2-0.4-0.4-0.5-0.6c-0.2-0.2-0.3-0.5-0.2-0.8
			c0-0.1,0-0.2,0-0.3c0-0.4,0.4-0.7,0.8-0.7c0,0,0,0,0,0c0.2,0,0.4,0,0.5,0.1c0.3,0.2,0.3,0.6,0.3,0.9v0.3h-0.3v-0.4
			c0-0.1,0-0.2,0-0.3c0-0.2-0.2-0.4-0.5-0.4c0,0,0,0,0,0c-0.1,0-0.2,0-0.3,0.1c-0.1,0.1-0.2,0.3-0.2,0.6c0,0.3,0.1,0.7,0.4,0.9
			c0.1,0.1,0.2,0.2,0.3,0.3c0.2,0.2,0.3,0.3,0.4,0.5c0.2,0.3,0.3,0.6,0.3,0.9C96,37.2,95.9,37.4,95.8,37.6z"/>
		<path class="st0" d="M98.2,37.6c-0.2,0.2-0.5,0.4-0.7,0.3c-0.2,0-0.4,0-0.5-0.1c-0.1,0-0.1-0.1-0.1-0.1c-0.1-0.1-0.2-0.2-0.2-0.3
			c0-0.1-0.1-0.2-0.1-0.4v-0.7h0.3v0.4c0,0.1,0,0.2,0,0.3c0,0.3,0.2,0.6,0.5,0.6c0,0,0.1,0,0.1,0c0.1,0,0.2,0,0.3-0.1
			c0.2-0.1,0.2-0.3,0.2-0.7c0-0.2,0-0.5-0.2-0.7c-0.1-0.2-0.3-0.4-0.5-0.6c-0.2-0.2-0.4-0.4-0.5-0.6c-0.2-0.2-0.3-0.5-0.2-0.8
			c0-0.1,0-0.2,0-0.3c0-0.4,0.4-0.7,0.8-0.7c0,0,0,0,0,0c0.2,0,0.4,0,0.5,0.1c0.3,0.2,0.3,0.6,0.3,0.9v0.3H98v-0.4
			c0-0.1,0-0.2,0-0.3c0-0.2-0.2-0.4-0.5-0.4c0,0,0,0,0,0c-0.1,0-0.2,0-0.3,0.1c-0.1,0.1-0.2,0.3-0.2,0.6c0,0.3,0.1,0.7,0.4,0.9
			l0.3,0.3c0.2,0.2,0.3,0.3,0.4,0.5c0.2,0.3,0.3,0.6,0.3,0.9C98.4,37.1,98.3,37.4,98.2,37.6z"/>
		<path class="st0" d="M100.8,37.5c-0.2,0.3-0.5,0.4-0.8,0.4c-0.3,0-0.5-0.1-0.7-0.3c-0.2-0.2-0.2-0.5-0.2-0.8v-2.6
			c0-0.2,0-0.3,0.1-0.5c0.1-0.4,0.5-0.6,0.8-0.5c0.2,0,0.4,0.1,0.6,0.2c0.3,0.3,0.4,0.6,0.3,1V37C100.9,37.2,100.8,37.4,100.8,37.5z
			 M100.6,34.5c0-0.3,0-0.5-0.1-0.8c0-0.1-0.1-0.2-0.2-0.2c-0.1,0-0.2-0.1-0.3-0.1c-0.1,0-0.2,0-0.3,0.1c-0.2,0.2-0.3,0.4-0.2,0.6
			v2.5c0,0.2,0,0.3,0,0.5c0.1,0.2,0.3,0.4,0.5,0.4c0.1,0,0.2,0,0.3-0.1c0.2-0.2,0.3-0.5,0.2-0.7L100.6,34.5z"/>
		<path class="st0" d="M103.4,37.4c-0.1,0.3-0.5,0.6-0.8,0.5c-0.4,0-0.7-0.2-0.8-0.5c-0.1-0.2-0.1-0.4-0.1-0.6v-2.5
			c0-0.3,0-0.5,0.2-0.8c0.2-0.2,0.4-0.4,0.7-0.3c0.3,0,0.6,0.2,0.8,0.5c0,0.1,0.1,0.3,0.1,0.4v0.6h-0.3v-0.3c0-0.2,0-0.5-0.1-0.7
			c0-0.1-0.1-0.1-0.2-0.2c-0.1-0.1-0.2-0.1-0.3-0.1c-0.1,0-0.2,0-0.3,0.1c-0.2,0.2-0.3,0.4-0.3,0.6v2.3c0,0.3,0,0.6,0.1,0.9
			c0,0.1,0.1,0.1,0.2,0.2c0.1,0.1,0.2,0.1,0.3,0.1c0.1,0,0.2,0,0.3-0.1c0.2-0.1,0.3-0.3,0.3-0.5v-0.7h0.3V37
			C103.4,37.1,103.4,37.3,103.4,37.4z"/>
		<path class="st0" d="M104.2,37.9v-4.6h0.3v4.6L104.2,37.9z"/>
		<path class="st0" d="M106.8,37.9l-0.2-1.4h-0.9l-0.2,1.4h-0.3l0.8-4.6h0.4l0.8,4.6H106.8z M106.2,34.1l-0.1-0.4
			c0,0.1,0,0.3-0.1,0.4l-0.4,2.2h0.8L106.2,34.1z"/>
		<path class="st0" d="M108.3,33.6v4.3H108v-4.3h-0.8v-0.3h1.8v0.3H108.3z"/>
		<path class="st0" d="M110,33.6v1.8h1v0.3h-1v2h1.3v0.3h-1.6v-4.6h1.6v0.3H110z"/>
		<path class="st0" d="M113.2,37.9v-4.6h0.3v4.3h1.2v0.3L113.2,37.9z"/>
		<path class="st0" d="M116.7,37.9l-0.2-1.4h-0.9l-0.2,1.4H115l0.8-4.6h0.4l0.8,4.6H116.7z M116.1,34.1c0-0.1,0-0.3-0.1-0.4
			C116,33.8,116,33.9,116.1,34.1l-0.4,2.1h0.8L116.1,34.1z"/>
		<path class="st0" d="M119.2,37.7c-0.2,0.1-0.4,0.2-0.6,0.2h-0.9v-4.6h0.8c0.2,0,0.4,0.1,0.6,0.2c0.1,0.2,0.2,0.3,0.2,0.5v0.7
			c0,0.1,0,0.2,0,0.3c-0.1,0.2-0.3,0.4-0.5,0.4c0.2,0,0.3,0.1,0.5,0.2c0.2,0.2,0.2,0.4,0.2,0.7V37C119.5,37.3,119.4,37.5,119.2,37.7
			z M118.9,34.1c0-0.1,0-0.2,0-0.3c-0.1-0.2-0.3-0.2-0.5-0.2H118v1.7h0.3c0.1,0,0.2,0,0.3,0c0.2-0.1,0.4-0.3,0.3-0.6L118.9,34.1z
			 M119.1,36.2c0-0.1,0-0.2,0-0.3c-0.1-0.3-0.4-0.4-0.7-0.4H118v2.1h0.5c0.1,0,0.3,0,0.4-0.1c0.2-0.1,0.2-0.3,0.2-0.6L119.1,36.2z"
			/>
		<path class="st0" d="M121.8,37.5c-0.2,0.3-0.5,0.4-0.8,0.4c-0.3,0-0.5-0.1-0.7-0.3c-0.1-0.2-0.2-0.5-0.2-0.8v-2.6
			c0-0.2,0-0.4,0.1-0.5c0.1-0.4,0.5-0.6,0.8-0.5c0.2,0,0.4,0.1,0.6,0.2c0.3,0.3,0.4,0.6,0.3,1V37C121.9,37.2,121.9,37.4,121.8,37.5z
			 M121.6,34.5c0-0.3,0-0.5-0.1-0.8c0-0.1-0.1-0.2-0.2-0.2c-0.1,0-0.2-0.1-0.3-0.1c-0.1,0-0.2,0-0.3,0.1c-0.2,0.2-0.3,0.4-0.2,0.6
			v2.5c0,0.2,0,0.3,0,0.5c0.1,0.2,0.3,0.4,0.6,0.4c0.1,0,0.2,0,0.3-0.1c0.2-0.2,0.3-0.5,0.2-0.7L121.6,34.5z"/>
		<path class="st0" d="M124.3,37.9l-0.8-2.2H123v2.2h-0.3v-4.6h0.8c0.2,0,0.4,0,0.6,0.2c0.2,0.2,0.3,0.4,0.2,0.6v0.7
			c0,0.1,0,0.2,0,0.3c-0.1,0.2-0.2,0.4-0.4,0.5l-0.2,0l0.8,2.2L124.3,37.9z M124.1,34.2c0-0.2,0-0.4-0.2-0.5
			c-0.1-0.1-0.2-0.1-0.3-0.1h-0.6v1.8h0.6c0.1,0,0.2,0,0.3,0c0.2-0.1,0.3-0.3,0.3-0.5V34.2z"/>
		<path class="st0" d="M126.7,37.9l-0.2-1.4h-0.9l-0.2,1.4H125l0.8-4.6h0.4l0.8,4.6H126.7z M126.1,34.1l-0.1-0.4
			C126,33.8,126,33.9,126.1,34.1l-0.4,2.1h0.8L126.1,34.1z"/>
		<path class="st0" d="M128.2,33.6v4.3h-0.3v-4.3h-0.8v-0.3h1.9v0.3H128.2z"/>
		<path class="st0" d="M131.1,37.5c-0.2,0.3-0.5,0.4-0.8,0.4c-0.3,0-0.5-0.1-0.7-0.3c-0.1-0.2-0.2-0.5-0.2-0.8v-2.6
			c0-0.2,0-0.4,0.1-0.5c0.1-0.4,0.5-0.6,0.8-0.5c0.2,0,0.4,0.1,0.6,0.2c0.3,0.3,0.4,0.6,0.3,1V37C131.3,37.2,131.2,37.4,131.1,37.5z
			 M131,34.5c0-0.3,0-0.5-0.1-0.8c0-0.1-0.1-0.2-0.2-0.2c-0.1-0.1-0.2-0.1-0.3-0.1c-0.1,0-0.2,0-0.3,0.1c-0.2,0.2-0.3,0.4-0.3,0.6
			v2.5c0,0.2,0,0.4,0.1,0.5c0.1,0.2,0.3,0.4,0.6,0.4c0.1,0,0.2,0,0.3-0.1c0.2-0.2,0.3-0.5,0.2-0.7L131,34.5z"/>
		<path class="st0" d="M133.7,37.9l-0.8-2.2h-0.5v2.2h-0.3v-4.6h0.9c0.2,0,0.4,0,0.6,0.2c0.2,0.2,0.3,0.4,0.2,0.6v0.7
			c0,0.1,0,0.2,0,0.3c-0.1,0.2-0.2,0.4-0.4,0.5l-0.2,0l0.8,2.2L133.7,37.9z M133.5,34.2c0-0.2,0-0.4-0.2-0.5
			c-0.1-0.1-0.2-0.1-0.3-0.1h-0.6v1.8h0.6c0.1,0,0.2,0,0.3,0c0.2-0.1,0.3-0.3,0.3-0.5L133.5,34.2z"/>
		<path class="st0" d="M135.4,35.9v2h-0.3v-2l-0.9-2.6h0.3l0.7,2.2l0.7-2.2h0.3L135.4,35.9z"/>
		<rect x="36.6" y="45.6" class="st0" width="49.8" height="1.3"/>
		<rect x="86.3" y="45.6" class="st0" width="49.8" height="1.3"/>
		<path class="st0" d="M10.4,17.7c0,0,0.1,0,0.1,0.1c0,0.1,0,0.1,0,0.2v1.5c0,0.1,0,0.1,0,0.2c0,0-0.1,0.1-0.1,0.1l0,0h0.6l0,0
			c0,0-0.1,0-0.1-0.1c0-0.1,0-0.1,0-0.2v-0.7h0.3c0.1,0.1,0.1,0.3,0.2,0.4c0.1,0.1,0.2,0.2,0.2,0.4c0.1,0.1,0.2,0.2,0.3,0.3
			c0.1,0.1,0.2,0.1,0.3,0.2v-0.1c-0.1,0-0.1-0.1-0.2-0.1l-0.1-0.2c0-0.1-0.1-0.2-0.2-0.3s-0.1-0.3-0.2-0.4c0.1,0,0.2,0,0.3-0.1
			c0.1,0,0.2-0.1,0.2-0.1c0.1-0.1,0.2-0.2,0.1-0.4c0-0.2-0.1-0.4-0.2-0.5c-0.2-0.1-0.4-0.2-0.7-0.2h-0.3L10.4,17.7L10.4,17.7z
			 M10.8,18c0-0.1,0-0.2,0.1-0.2c0.1,0,0.2-0.1,0.3-0.1c0.2,0,0.3,0,0.4,0.1c0.1,0.1,0.2,0.2,0.2,0.4c0,0.2-0.1,0.3-0.2,0.4
			c-0.2,0.1-0.4,0.1-0.6,0.1h-0.2L10.8,18z"/>
		<polygon class="st0" points="9.9,16.3 10.1,16.1 10.3,16.3 10.3,16 10.4,15.9 10.2,15.8 10.1,15.6 10,15.8 9.8,15.9 9.9,16 		"/>
		<path class="st0" d="M28.8,15.3L28.8,15.3L28.8,15.3c0,0-0.1,0-0.1,0.1l-1.4,0.4v0.1l1.2,0.5c0.1,0,0.1,0.1,0.2,0.1
			c0,0,0,0,0.1,0.1c0,0,0,0,0,0.1l0,0v-0.4l0,0l0,0l0,0c0,0-0.1,0-0.1,0h-0.1l0,0l-1-0.4l1.2-0.3h0.1h0.1c0,0,0,0,0,0.1l0,0v-0.4
			L28.8,15.3z"/>
		<path class="st0" d="M13.3,19.8c0,0-0.1,0-0.1-0.1c0-0.1,0-0.1,0-0.2V18c0-0.1,0-0.1,0-0.2c0,0,0.1-0.1,0.1-0.1l0,0h-0.6l0,0
			c0,0,0.1,0,0.1,0.1c0,0.1,0,0.1,0,0.2v1.5c0,0,0,0.1,0,0.1c0,0,0,0.1,0,0.1c0,0-0.1,0.1-0.1,0.1v0L13.3,19.8L13.3,19.8z"/>
		<path class="st0" d="M28,18.1c0,0-0.1,0-0.1,0c0,0-0.1,0-0.1,0c-0.1,0.1-0.2,0.1-0.2,0.2l0,0c-0.1,0.1-0.2,0.2-0.2,0.2
			c-0.1,0-0.1,0-0.2,0c-0.1,0-0.1-0.1-0.2-0.1c0-0.1,0-0.2,0-0.3c0-0.1,0.1-0.2,0.2-0.2c0.1-0.1,0.2-0.1,0.4-0.1l0,0l-0.3-0.2
			C27,17.8,27,17.9,26.9,18c-0.1,0.1-0.1,0.2-0.1,0.3c-0.1,0.1-0.1,0.3,0,0.4c0.1,0.1,0.2,0.2,0.3,0.2h0.1c0,0,0.1,0,0.1,0
			c0.1,0,0.1,0,0.1,0c0.1-0.1,0.2-0.2,0.3-0.3v0c0.1-0.1,0.1-0.2,0.2-0.2c0.1,0,0.1,0,0.2,0c0.1,0,0.1,0.1,0.2,0.1
			c0,0.1,0,0.2,0,0.2c0,0.1-0.1,0.2-0.1,0.2c-0.1,0.1-0.2,0.1-0.3,0.1l0,0L28,19c0.1-0.1,0.1-0.1,0.2-0.2l0.1-0.1c0,0,0-0.1,0-0.1
			c0-0.1,0-0.2,0-0.4C28.2,18.2,28.1,18.2,28,18.1z"/>
		<path class="st0" d="M27.4,20.8c0,0-0.1,0-0.1,0l-1-0.5h-0.1l0,0c0,0,0-0.1,0-0.1l0,0L26,20.6l0,0c0,0,0-0.1,0.1,0
			c0,0,0.1,0,0.1,0l1,0.5c0,0,0.1,0.1,0.1,0.1c0,0,0,0.1,0,0.1l0,0l0.2-0.4l0,0C27.5,20.9,27.5,20.9,27.4,20.8
			C27.4,20.8,27.4,20.8,27.4,20.8z"/>
		<path class="st0" d="M26.3,22.4c0,0.1,0.1,0.2,0.1,0.3c0,0.1-0.1,0.2-0.1,0.3l0,0h0l-1-0.7c0,0-0.1-0.1-0.1-0.1c0,0,0-0.1,0-0.1
			l0,0l-0.2,0.3l0,0c0,0,0.1,0,0.1,0c0.1,0,0.1,0,0.1,0.1l1,0.7l0,0c0,0,0,0,0,0.1c-0.1,0.1-0.1,0.1-0.2,0.2c-0.1,0-0.2,0-0.3,0l0,0
			l0.3,0.1l0.7-0.9l-0.2-0.2L26.3,22.4z"/>
		<path class="st0" d="M23.9,23.7c0-0.1,0-0.1,0-0.2l0,0l-0.3,0.3l0,0c0,0,0.1,0,0.1,0c0,0,0.1,0,0.1,0.1l0,0v0l0.1,0.2l-0.4,0.4
			l-0.2-0.1l0,0l0,0l0,0c0,0,0,0,0,0c0,0,0,0,0-0.1l0,0l-0.3,0.3l0,0l0,0H23l0.2,0.1l1.2,0.7l0.1-0.1L24,24
			C23.9,23.9,23.9,23.8,23.9,23.7z M24.3,24.9l-0.7-0.4l0.4-0.3L24.3,24.9z"/>
		<path class="st0" d="M9.7,19.4L9.7,19.4c-0.1,0.1-0.2,0.2-0.2,0.2l-0.1,0.1H9.3H9.2H9.1H8.8c-0.1,0-0.2,0-0.2,0c0-0.1,0-0.1,0-0.2
			v-0.8h0.3c0.1,0,0.2,0,0.3,0c0.1,0,0.1,0.1,0.1,0.2h0v-0.5H9.2c0,0.1-0.1,0.1-0.1,0.2H9H8.5V18c0,0,0-0.1,0-0.1c0,0,0,0,0-0.1h0.1
			h0.3c0.2,0,0.4,0,0.5,0.1c0,0,0.1,0.1,0.1,0.1c0,0,0.1,0.1,0.1,0.1h0.1v-0.4H8l0,0c0,0,0.1,0,0.1,0.1c0,0.1,0,0.1,0,0.2v1.5
			c0,0,0,0.1,0,0.1s0,0.1,0,0.1c0,0-0.1,0.1-0.1,0.1v0h1.6L9.7,19.4z"/>
		<polygon class="st0" points="10.9,20.8 10.8,20.6 10.7,20.8 10.4,20.9 10.6,21 10.6,21.3 10.8,21.2 11,21.3 11,21 11.1,20.9 		"/>
		<polygon class="st0" points="8.5,13.8 8.4,13.6 8.3,13.8 8,13.9 8.2,14 8.2,14.3 8.4,14.1 8.6,14.3 8.5,14 8.7,13.9 		"/>
		<path class="st0" d="M8.1,3.5c0,0.1,0,0.1,0.1,0.2C8.3,3.9,8.5,4,8.6,4.1c0.2,0.1,0.4,0.1,0.5,0C9.3,4,9.4,4,9.4,3.8
			c0.1-0.1,0.1-0.2,0.1-0.4l0,0c0,0.1,0,0.1,0,0.2L9.5,3.8c0,0.1-0.1,0.1-0.2,0.2C9.1,4,9,4,8.8,4C8.6,3.9,8.5,3.7,8.4,3.5
			C8.3,3.4,8.2,3.2,8.2,3c0-0.1,0.1-0.3,0.2-0.3c0.1,0,0.2,0,0.3,0c0.1,0,0.2,0.1,0.3,0.1l0,0V2.5c-0.1,0-0.2,0-0.3,0
			c-0.1,0-0.2,0-0.2,0.1c-0.1,0-0.1,0.1-0.2,0.1L8.2,2.8v0.1c0,0.1,0,0.2,0,0.4C8.2,3.4,8.1,3.4,8.1,3.5z"/>
		<path class="st0" d="M25,7.8c0.1,0,0.3,0,0.4,0l0,0h-0.2H25c0,0-0.1-0.1-0.1-0.2c-0.1-0.1-0.1-0.3-0.1-0.5
			c0.1-0.2,0.2-0.3,0.3-0.5c0.1-0.1,0.3-0.2,0.5-0.2c0.1,0,0.3,0,0.4,0.2C26,6.7,26,6.8,26,6.9c0,0.1,0,0.2-0.1,0.3l0,0l0.2-0.1
			c0-0.1,0-0.2-0.1-0.3c0-0.1-0.1-0.2-0.1-0.2c0-0.1-0.1-0.1-0.2-0.2l-0.1-0.1h-0.1c-0.1,0-0.2,0-0.4,0c-0.1,0-0.1,0-0.2,0.1
			l-0.2,0.1c-0.2,0.1-0.3,0.3-0.3,0.5c0,0.2,0,0.4,0.1,0.5C24.8,7.6,24.9,7.7,25,7.8z"/>
		<path class="st0" d="M7,17.7L7,17.7L7,17.7c0,0,0,0.1,0,0.1l0,0l0,0v0.1l-0.5,1.5L6.1,18v-0.1c0,0,0,0,0,0c0,0,0-0.1,0-0.1h0.1
			l0,0H5.6l0,0h0.1v0.1c0,0.1,0.1,0.1,0.1,0.2L6.4,20h0.2l0.6-1.8c0-0.1,0.1-0.2,0.1-0.3l0.1-0.1c0,0,0.1,0,0.1-0.1l0,0L7,17.7
			L7,17.7z"/>
		<path class="st0" d="M22.1,4.5L22.1,4.5L22.1,4.5H22h-0.1h-0.1c-0.1,0-0.2-0.1-0.2-0.1c0,0-0.1-0.1-0.1-0.1c0,0,0-0.1,0-0.1
			L22,3.3c0-0.1,0.1-0.1,0.1-0.1c0,0,0.1,0,0.1,0l0,0l-0.4-0.2l0,0c0,0,0,0.1,0,0.1c0,0.1,0,0.1-0.1,0.1l-0.6,0.9v0.1c0,0,0,0,0,0
			c0,0,0,0-0.1,0l0,0l0.9,0.6L22.1,4.5z"/>
		<path class="st0" d="M14.9,0C6.7,0,0,6.7,0,14.9s6.7,14.9,14.9,14.9c8.2,0,14.9-6.7,14.9-14.9c0,0,0,0,0,0C29.7,6.7,23.1,0,14.9,0
			z M14.9,29.4c-8,0-14.5-6.5-14.5-14.5S6.8,0.3,14.9,0.3c8,0,14.5,6.5,14.5,14.5c0,0,0,0,0,0C29.4,22.9,22.9,29.4,14.9,29.4z"/>
		<path class="st0" d="M27.3,13.2L27.3,13.2c-0.1,0-0.1,0-0.1-0.1l0,0l0.1,1l0.3,0.1v-0.1h-0.1l0,0c0,0-0.1,0-0.1-0.1
			c0,0-0.1-0.1-0.1-0.1c0-0.1,0-0.1,0-0.2c0,0,0-0.1,0-0.1c0,0,0.1,0,0.1,0l1.1-0.1c0.1,0,0.1,0,0.2,0c0,0,0.1,0,0,0.1l0,0V13l0,0
			c0,0,0,0.1,0,0.1c0,0-0.1,0-0.1,0l-1.1,0.1L27.3,13.2z"/>
		<path class="st0" d="M25.9,9.1c-0.1,0-0.1,0-0.1-0.1l0,0l0.2,0.3l0,0c0,0,0-0.1,0-0.1c0,0,0,0,0.1-0.1l0,0h0h0.2l0.2,0.5l-0.2,0.2
			l0,0l0,0l0,0c0,0,0,0-0.1,0c0,0,0,0,0,0l0,0l0.2,0.4l0,0c0,0,0,0,0-0.1c0,0,0,0,0-0.1c0,0,0.1-0.1,0.1-0.1l1-1l-0.1-0.1L26.2,9
			C26.1,9.1,26,9.1,25.9,9.1z M27.2,9l-0.6,0.6l-0.2-0.4L27.2,9z"/>
		<path class="st0" d="M23.4,5.9C23.3,5.9,23.3,5.9,23.4,5.9c0-0.1,0-0.2,0.1-0.2l0.7-0.8c0,0,0.1-0.1,0.1-0.1c0,0,0.1,0,0.1,0l0,0
			l-0.3-0.3l0,0c0,0,0,0.1,0,0.1c0,0,0,0.1-0.1,0.1l-0.7,0.8c0,0,0,0-0.1,0.1h0c0,0-0.1,0-0.1,0l0,0L23.4,5.9L23.4,5.9z"/>
		<path class="st0" d="M18.8,3.2L18.8,3.2L19,3.3h0.1c0.1,0,0.2,0,0.3,0c0.1,0,0.2,0,0.2-0.1c0.1-0.1,0.2-0.1,0.3-0.2
			C19.9,3,20,2.9,20,2.8c0-0.1,0.1-0.2,0.1-0.4c0-0.1,0-0.2-0.1-0.3l-0.1-0.1L19.9,2c-0.1,0-0.1-0.1-0.2-0.1c-0.1,0-0.2,0-0.2,0
			h-0.1h-0.1c-0.1,0-0.2,0.1-0.3,0.2c0,0-0.1,0.1-0.1,0.1c0,0.1-0.1,0.1-0.1,0.2c0,0.1-0.1,0.2-0.1,0.4c0,0.1,0,0.2,0.1,0.3
			C18.7,3.1,18.8,3.1,18.8,3.2z M18.9,2.8c0-0.1,0.1-0.2,0.1-0.3C19,2.3,19.1,2.1,19.2,2c0.1-0.1,0.3-0.1,0.4-0.1
			c0.1,0,0.2,0.2,0.3,0.3c0,0.2,0,0.4-0.1,0.5c0,0.1-0.1,0.2-0.1,0.3c0,0.1-0.1,0.1-0.2,0.2c-0.1,0.1-0.3,0.1-0.4,0.1
			C19,3.3,18.9,3.2,18.9,3C18.8,2.9,18.8,2.9,18.9,2.8z"/>
		<path class="st0" d="M11.2,3.2L11.2,3.2L11.2,3.2C11,3.1,11,3.1,11,3V2.7l0.5-0.2l0.2,0.2l0,0l0,0l0,0c0,0,0,0,0,0.1
			c0,0,0,0-0.1,0V3L12,2.9l0,0l0,0l0,0c0,0-0.1-0.1-0.1-0.1l-0.8-1.2H11L11,2.8c0,0.1,0,0.2,0,0.3c0,0.1,0,0.1-0.1,0.1l0,0L11.2,3.2
			z M11,1.8l0.4,0.7L11,2.6V1.8z"/>
		<path class="st0" d="M22.5,26.5c0,0-0.1-0.1-0.1-0.1l-0.5-0.9c0,0,0-0.1,0-0.1c0,0,0-0.1,0-0.1c0,0,0-0.1,0-0.1l0,0l-0.3,0.2l0,0
			c0,0,0.1,0,0.1,0c0.1,0,0.1,0.1,0.1,0.2l0.5,0.9l-1.6-0.7h-0.1l0.6,1c0.1,0.1,0.1,0.2,0.1,0.3v0.1c0,0,0,0,0,0.1l0,0l0.3-0.2l0,0
			c0,0-0.1,0-0.2,0c-0.1-0.1-0.1-0.2-0.2-0.2L21,26.1l1.4,0.6l0.3-0.2l0,0C22.6,26.5,22.6,26.5,22.5,26.5z"/>
		<path class="st0" d="M16.2,2.7C16.2,2.6,16.1,2.6,16.2,2.7c-0.1-0.1-0.1-0.2-0.1-0.2l0.1-0.6L16.9,2l-0.1,0.6c0,0,0,0.1,0,0.1
			c0,0-0.1,0-0.1,0l0,0h0.4l0,0l0,0l0,0c0,0,0,0,0-0.1c0,0,0-0.1,0-0.1l0.1-1.1c0-0.1,0-0.1,0-0.1c0,0,0,0,0.1,0l0,0l-0.4,0l0,0
			c0,0,0.1,0,0.1,0c0,0,0,0.1,0,0.1L17,1.9l-0.7-0.1l0-0.4c0,0,0-0.1,0-0.1c0,0,0.1,0,0.1,0l0,0H16l0,0c0,0,0.1,0,0.1,0.1
			c0,0,0,0.1,0,0.1L16,2.5c0,0,0,0.1,0,0.1s0,0,0,0.1c0,0-0.1,0-0.1,0l0,0L16.2,2.7L16.2,2.7z"/>
		<path class="st0" d="M13.2,1.3c0.1,0,0.2-0.1,0.3-0.1l0,0c0,0,0,0,0,0l0.1,1.2c0,0,0,0.1,0,0.2c0,0,0,0.1-0.1,0.1l0,0h0.4l0,0
			c0,0-0.1,0-0.1,0c0,0,0-0.1,0-0.1l-0.1-1.2c0,0,0,0,0,0h0.1c0.1,0,0.2,0,0.3,0c0.1,0,0.1,0.1,0.2,0.2l0,0l-0.1-0.3L13,1.2l0,0.2
			l0,0C13,1.4,13.1,1.3,13.2,1.3z"/>
		<path class="st0" d="M8.4,25.6c0,0,0.1,0.1,0.1,0.1c0,0.1,0,0.1-0.1,0.2l-0.6,0.9l-0.1-1.7L7.7,25l-0.6,1c0,0.1-0.1,0.2-0.2,0.2
			H6.8H6.8l0,0l0.3,0.2l0,0c0,0,0-0.1,0-0.1c0-0.1,0-0.2,0.1-0.3l0.4-0.6l0.1,1.5L7.9,27l0,0c0,0,0-0.1,0-0.1c0-0.1,0-0.1,0.1-0.1
			l0.5-0.8c0,0,0-0.1,0.1-0.1l0.1-0.1c0,0,0.1,0,0.1,0l0,0L8.4,25.6L8.4,25.6z"/>
		<path class="st0" d="M1.2,12.9c0,0,0.1,0,0.1,0l1.1,0.2h0.1l0,0c0,0,0,0.1,0,0.1l0,0l0.1-0.4l0,0c0,0,0,0.1-0.1,0.1
			c0,0-0.1,0-0.1,0l-1.1-0.2c-0.1,0-0.1,0-0.1-0.1c0,0,0,0,0-0.1l0,0l-0.1,0.4l0,0C1.1,12.9,1.2,12.9,1.2,12.9z"/>
		<path class="st0" d="M1.5,15.6c0,0,0.1,0,0.1-0.1c0.1-0.1,0.1-0.2,0.2-0.3c0,0,0-0.1,0-0.1c0-0.1,0.1-0.2,0.2-0.3
			c0.1,0,0.1-0.1,0.2-0.1c0.1,0,0.2,0,0.2,0.1c0.1,0.1,0.1,0.2,0.1,0.2c0,0.1,0,0.2-0.1,0.3c-0.1,0.1-0.2,0.1-0.3,0.2l0,0l0.3,0.1
			c0.1-0.1,0.1-0.2,0.1-0.2c0-0.1,0-0.2,0-0.3c0-0.1,0-0.3-0.1-0.4c-0.1-0.1-0.2-0.1-0.3-0.1H2H1.9c0,0-0.1,0.1-0.1,0.1
			c-0.1,0.1-0.1,0.2-0.2,0.4v0.1c0,0.1-0.1,0.2-0.1,0.3c0,0-0.1,0.1-0.2,0.1c-0.1,0-0.1,0-0.2-0.1c0,0-0.1-0.1-0.1-0.2
			c0-0.1,0-0.1,0.1-0.2c0.1-0.1,0.2-0.1,0.2-0.1l0,0l-0.3-0.1C1,14.9,1,14.9,1,15c0,0,0,0.1,0,0.1c0,0,0,0.1,0,0.1
			c0,0.1,0,0.2,0.1,0.3C1.2,15.6,1.3,15.7,1.5,15.6C1.5,15.7,1.5,15.6,1.5,15.6z"/>
		<path class="st0" d="M1.9,11c-0.1-0.1-0.1-0.1-0.1-0.2c0-0.1,0-0.2,0-0.3l0,0h0L3,10.9c0.1,0,0.1,0,0.1,0.1c0,0,0,0.1,0,0.1l0,0
			l0.1-0.4l0,0c0,0,0,0.1-0.1,0.1H3.1l-1.1-0.4l0,0 M1.9,10.2C1.9,10.2,2,10.1,2,10c0.1-0.1,0.2-0.1,0.2-0.1l0,0L2,9.8l-0.4,1.1
			l0.3,0.2L1.9,10.2z"/>
		<path class="st0" d="M2.9,18.2C2.9,18.2,2.9,18.2,2.9,18.2L3,18.2l-0.1-0.4l0,0c0,0,0,0.1,0,0.1L2.7,18l-0.5,0.1l0,0V18l0,0l0,0
			l0,0c0.1-0.1,0.2-0.1,0.3-0.2c0.1-0.1,0.1-0.1,0.2-0.2c0.1-0.1,0.1-0.1,0.1-0.2c0-0.1,0-0.2,0-0.3H2.7c0,0.1,0,0.1-0.1,0.2
			l-0.1,0.1l-0.2,0.2l-0.3,0.2c0-0.1-0.1-0.1-0.1-0.2c0,0-0.1-0.1-0.1-0.1c-0.1-0.1-0.2-0.1-0.3-0.1c-0.1,0-0.2,0.1-0.3,0.2
			c0,0.2,0,0.3,0,0.5v0.1v0.1l0.1,0.3l0,0c0,0,0-0.1,0-0.1l0.1-0.1l1.1-0.2C2.7,18.2,2.8,18.1,2.9,18.2z M2.1,18.1l-0.5,0.1
			c0,0-0.1,0-0.1,0c-0.1-0.1-0.1-0.1-0.1-0.2c0-0.1,0-0.2,0-0.3c0.1-0.1,0.1-0.2,0.2-0.2c0.1,0,0.2,0,0.3,0.1
			c0.1,0.1,0.2,0.2,0.2,0.4L2.1,18.1L2.1,18.1L2.1,18.1z"/>
		<path class="st0" d="M3.8,9.1c0,0.1,0,0.1,0,0.2l0,0L4.1,9H4l0,0c0,0-0.1,0-0.1,0l0,0l0,0L3.8,8.8L4,8.4l0.3,0.1h0.1l0,0l0,0
			c0,0,0,0,0,0.1l0,0l0.2-0.4l0,0l0,0H4.4H4.3L2.9,7.8L2.8,8l0.8,0.9C3.7,9,3.8,9.1,3.8,9.1z M3,8.1l0.8,0.2L3.6,8.8L3,8.1z"/>
		<polygon class="st0" points="24.4,13.5 24.6,13.4 24.9,13.5 24.8,13.3 25,13.1 24.8,13.1 24.6,12.9 24.5,13.1 24.3,13.1 
			24.5,13.3 		"/>
		<polygon class="st0" points="22.5,9.1 22.7,9 23,9.1 22.9,8.9 23.1,8.7 22.9,8.7 22.7,8.4 22.6,8.7 22.4,8.7 22.6,8.9 		"/>
		<polygon class="st0" points="4.9,13.8 4.8,13.6 4.7,13.8 4.5,13.9 4.6,14 4.6,14.2 4.8,14.1 5,14.2 5,14 5.2,13.9 		"/>
		<path class="st0" d="M4.7,6.3h0.2c0.1,0,0.2,0,0.3-0.1l0,0c0.1-0.1,0.2-0.1,0.3-0.1c0.1,0,0.1,0,0.2,0.1c0.1,0.1,0.1,0.1,0.1,0.2
			c0,0.1,0,0.2-0.1,0.2C5.6,6.7,5.5,6.8,5.4,6.8c-0.1,0-0.2,0-0.3-0.1l0,0L5.2,7c0.1,0,0.2,0,0.3-0.1c0.1,0,0.2-0.1,0.2-0.2
			c0.1-0.1,0.1-0.2,0.2-0.4c0-0.1,0-0.3-0.2-0.4H5.7H5.6C5.6,6,5.5,6,5.4,6C5.3,6,5.2,6,5.1,6L5,6.1c-0.1,0-0.2,0.1-0.3,0.1
			c-0.1,0-0.1,0-0.2-0.1C4.5,6,4.5,6,4.5,5.9c0-0.1,0-0.2,0.1-0.2c0.1-0.1,0.1-0.1,0.2-0.1c0.1,0,0.2,0,0.3,0.1l0,0L5,5.4
			c-0.1,0-0.2,0.1-0.2,0.1L4.7,5.6L4.6,5.6C4.5,5.7,4.4,5.9,4.4,6c0,0.1,0,0.2,0.1,0.3C4.6,6.3,4.6,6.3,4.7,6.3z"/>
		<path class="st0" d="M14.9,16.6c0-0.3,0-0.5-0.1-0.8c0,0.2-0.1,0.4-0.1,0.5C14.7,16.5,14.9,16.7,14.9,16.6z"/>
		<path class="st0" d="M14.2,10.8c-0.1,0-0.2,0-0.3,0c0,0,0.1,0.1,0.1,0.1c0.1,0.1,0,0.1-0.1,0.3s0,0.3,0.1,0.3s0-0.1,0.1-0.2
			s0.1-0.2,0.1-0.2s0.2,0.1,0.3,0.1S14.4,10.9,14.2,10.8z"/>
		<polygon class="st0" points="12.8,6 13,6.2 12.9,6.4 13.2,6.3 13.4,6.4 13.3,6.2 13.5,6 13.3,6 13.2,5.8 13.1,6 		"/>
		<path class="st0" d="M14.9,26.8c6.6,0,11.9-5.4,11.9-11.9c0-6.6-5.4-11.9-11.9-11.9C8.3,2.9,2.9,8.3,2.9,14.9
			C3,21.5,8.3,26.8,14.9,26.8z M14.9,3.3c6.4,0,11.6,5.2,11.6,11.6c0,6.4-5.2,11.6-11.6,11.6S3.3,21.3,3.3,14.9c0,0,0,0,0,0
			C3.3,8.5,8.5,3.3,14.9,3.3z"/>
		<path class="st0" d="M6.2,23.8C6.2,23.8,6.2,23.9,6.2,23.8c0,0.1-0.1,0.2-0.1,0.2l-0.8,0.8c0,0-0.1,0.1-0.1,0.1c0,0-0.1,0-0.1,0
			l0,0l0.3,0.3l0,0c0,0,0,0,0-0.1c0,0,0.1-0.1,0.1-0.1l0.8-0.8l0.1-0.1l0,0c0,0,0.1,0,0.1,0l0,0L6.2,23.8L6.2,23.8z"/>
		<polygon class="st0" points="20.5,16.3 20.7,16.1 20.9,16.3 20.9,16 21,15.9 20.8,15.8 20.7,15.6 20.6,15.8 20.4,15.9 20.5,16 		
			"/>
		<path class="st0" d="M19.6,26.5L19.6,26.5l-0.4,0.1l0,0c0,0,0.1,0,0.1,0c0,0,0.1,0.1,0.1,0.1V27l-0.5,0.2L18.7,27l0,0l0,0l0,0
			c0,0,0,0,0-0.1l0,0l0,0l-0.4,0.1l0,0h0l0,0l0.1,0.1l0.8,1.1h0.1v-1.2c0-0.1,0-0.2,0-0.3C19.5,26.7,19.5,26.5,19.6,26.5z M19,27.2
			l0.5-0.2v0.8L19,27.2z"/>
		<path class="st0" d="M3.7,22.6c-0.1,0-0.1,0-0.2,0H3.4H3.3l0,0L3.5,23l0,0c0,0,0,0,0,0s0,0,0,0c0,0,0-0.1,0.1-0.1l0,0l0,0l1-0.4
			l-0.7,1l0,0l0,0l0,0H3.8l0,0l0.2,0.3l0,0l0,0c0,0,0,0,0-0.1c0,0,0-0.1,0.1-0.1L5,22.3l-0.1-0.1L3.7,22.6z"/>
		<path class="st0" d="M15.7,28.1h-0.6v-0.4c0-0.1,0-0.1,0-0.2c0,0,0.1,0,0.1,0l0,0h-0.4l0,0c0,0,0.1,0,0.1,0.1c0,0,0,0.1,0,0.1v0.4
			h-0.6c0,0,0-0.1,0-0.1l0,0v0.4l0,0c0,0,0-0.1,0-0.1c0,0,0.1,0,0.1,0h0.5v0.5c0,0,0,0.1,0,0.1c0,0,0,0,0,0.1c0,0,0,0-0.1,0l0,0h0.4
			l0,0c0,0-0.1,0-0.1,0c0,0,0-0.1,0-0.1v-0.5h0.5c0,0,0.1,0,0.1,0c0,0,0,0,0.1,0.1l0,0L15.7,28.1L15.7,28.1
			C15.7,28,15.7,28.1,15.7,28.1z"/>
		<path class="st0" d="M10.5,28.1c0,0,0-0.1,0-0.1l0.1-1.4l-0.1,0l-0.8,1c0,0.1-0.1,0.1-0.2,0.2c0,0-0.1,0-0.1,0H9.3l0,0l0.3,0.1
			l0,0l0,0v0c0,0,0-0.1,0-0.1l0,0l0,0l0,0l0.7-0.9l-0.1,1.2v0l0,0c0,0,0,0,0,0c0,0,0,0-0.1,0l0,0l0.4,0.1l0,0l0,0
			C10.6,28.2,10.5,28.2,10.5,28.1C10.5,28.1,10.5,28.1,10.5,28.1z"/>
		<polygon class="st0" points="18.2,20.8 18.1,20.6 18,20.8 17.8,20.9 17.9,21 17.9,21.3 18.1,21.2 18.3,21.3 18.3,21 18.5,20.9 		
			"/>
		<path class="st0" d="M20.4,17.7l-0.1,0.4h0.1c0.1-0.1,0.1-0.2,0.2-0.3c0.1-0.1,0.2-0.1,0.4-0.1c0,0,0.1,0,0.1,0c0,0,0,0,0,0.1v1.7
			c0,0.1,0,0.1,0,0.2c0,0-0.1,0.1-0.1,0.1v0h0.6v0c0,0-0.1,0-0.1-0.1c0-0.1,0-0.1,0-0.2v-1.6c0,0,0,0,0-0.1c0,0,0,0,0.1,0
			c0.1,0,0.3,0,0.4,0.1c0.1,0.1,0.2,0.2,0.2,0.3h0.1L22,17.7H20.4z"/>
		<path class="st0" d="M20,19.7c0-0.1-0.1-0.2-0.1-0.2l-0.6-1.9h-0.2l-0.5,1.7c0,0.1-0.1,0.2-0.2,0.4c0,0.1-0.1,0.1-0.2,0.1v0h0.5v0
			c0,0-0.1,0-0.1-0.1c0,0,0-0.1,0-0.1v-0.1v-0.1l0.1-0.3h0.8l0.1,0.4l0,0v0.1c0,0,0,0,0,0c0,0,0,0.1,0,0.1c0,0-0.1,0-0.1,0v0h0.6v0
			L20,19.7L20,19.7z M18.8,19.1l0.3-1.1l0.3,1.1L18.8,19.1z"/>
		<path class="st0" d="M23.3,19.8c0,0-0.1,0-0.1-0.1c0-0.1,0-0.1,0-0.2V18c0-0.1,0-0.1,0-0.2c0,0,0.1-0.1,0.1-0.1l0,0h-0.6l0,0
			c0,0,0.1,0,0.1,0.1c0,0.1,0,0.1,0,0.2v1.5c0,0,0,0.1,0,0.1s0,0.1,0,0.1c0,0-0.1,0.1-0.1,0.1v0L23.3,19.8L23.3,19.8z"/>
		<path class="st0" d="M17.3,19.8c0-0.1,0-0.1,0-0.2v-1.7c0,0,0,0,0-0.1c0,0,0,0,0.1,0c0.1,0,0.3,0,0.4,0.1c0.1,0.1,0.2,0.2,0.2,0.3
			h0.1L18,17.7h-1.7l-0.1,0.4h0.1c0.1-0.1,0.1-0.2,0.2-0.3c0.1-0.1,0.2-0.1,0.4-0.1c0,0,0.1,0,0.1,0c0,0,0,0,0,0.1v1.7
			c0,0.1,0,0.1,0,0.2c0,0-0.1,0.1-0.1,0.1v0h0.6v0C17.4,19.8,17.4,19.8,17.3,19.8z"/>
		<polygon class="st0" points="22.6,21 22.5,21.3 22.7,21.2 23,21.3 22.9,21 23.1,20.9 22.9,20.8 22.7,20.6 22.6,20.8 22.4,20.9 		
			"/>
		<path class="st0" d="M3.7,20.6L3.7,20.6c0.1,0,0.1,0,0.1,0c0,0,0,0,0,0l0,0l-0.5-1H3.1l0,0l0.2,0.1h0.1l0.1,0v0v0.1
			c0,0.1,0.1,0.1,0.1,0.2c0,0.1,0.1,0.1,0.1,0.2c0,0,0,0.1-0.1,0.1L3,20.7l-0.1-0.2l0,0c0-0.1-0.1-0.2-0.1-0.2c0,0,0-0.1,0.1-0.1
			l0,0l-0.3,0.2l0,0c0.1,0,0.1,0,0.1,0c0,0,0.1,0,0.1,0.1c0,0,0,0.1,0.1,0.1l0.1,0.2l-0.4,0.2H2.5l0,0l0,0v-0.1v-0.1
			c-0.1-0.1-0.1-0.2-0.1-0.4c0,0,0-0.1,0-0.1c0,0,0-0.1,0.1-0.1l0,0L2,20.3l0.4,1l0,0c0,0,0-0.1,0-0.1c0,0,0.1-0.1,0.1-0.1l1-0.5
			L3.7,20.6z"/>
		<path class="st0" d="M14.9,26c6.2,0,11.2-5,11.2-11.1s-5-11.2-11.1-11.2c-1,0-2.1,0.1-3.1,0.4l0,0h-0.1c-0.5,0.1-1,0.3-1.5,0.5
			l0,0c-5.6,2.5-8.2,9.1-5.7,14.7C6.4,23.4,10.5,26,14.9,26z M3.9,14.9h3.4c0,0.9,0.1,1.8,0.2,2.7h0.1c-0.2-0.9-0.2-1.8-0.2-2.7H14
			V15c0.1,0.5,0.1,1,0,1.6c-0.1,0.2-0.1,0-0.1,0.3s-0.2,1.4-0.2,1.8s0,1,0,1.3c0,0.4,0,0.8,0,1.1c-0.1,0.3-0.2,0.6-0.3,0.9H9.1
			c-0.4-0.7-0.7-1.4-0.9-2.1H8.1C8.3,20.6,8.6,21.3,9,22H6.4C4.7,20,3.8,17.5,3.9,14.9L3.9,14.9z M7.4,14.8c0-0.5,0-0.9,0.1-1.4h0.8
			c0.5,0,1,0,1.4,0.1c0.6,0.1,1.2,0.1,1.8,0.1c0.6-0.1,1.2-0.1,1.8,0.1c0.4,0.3,0.6,0.7,0.7,1.1L7.4,14.8z M13.4,24.8
			c0,0.2,0,0.4-0.2,0.6L13,25.5c-1.6-0.7-2.9-1.9-3.8-3.5h4.2c-0.1,0.2-0.1,0.5-0.1,0.7C13.2,23.3,13.3,24.6,13.4,24.8L13.4,24.8z
			 M6.5,22.1h2.6c0.8,1.6,2.1,2.8,3.8,3.5c-0.1,0-0.1,0.1,0,0.1C10.4,25.3,8.1,24,6.5,22.1z M13.7,25.8L13.7,25.8
			c-0.3,0-0.9,0-0.9-0.1l0,0c0.1,0.1,0.3-0.1,0.5-0.2c0.2-0.1,0.3-0.4,0.2-0.6c0-0.7,0-1.4,0-2.1c0.1-0.5,0.2-1,0.4-1.5
			C14,20.8,14,20.4,14,20h0.4c0,0.2,0,0.4-0.1,0.6c-0.2,0.3-0.3,0.7-0.3,1.1c0.1,0.4,0.1,0.8,0,1.2c-0.1,0.4-0.2,0.8-0.2,1.1
			c0,0.4,0,0.7,0.1,1.1c0,0.2-0.2,0.4-0.2,0.5S13.6,25.8,13.7,25.8z M14.8,25.9h-0.3c-0.2,0-0.4,0-0.6-0.1c0.1,0,0.1-0.2,0.1-0.4
			c-0.1-0.3-0.1-0.7,0-1c0-0.4,0.1-0.7,0.3-1.1c0.1-0.3,0.1-0.3,0.1-0.9c0-0.1,0-0.3,0-0.4h0.5L14.8,25.9z M14.8,21.9h-0.5
			c0-0.2,0-0.5,0.1-0.7l0.3-0.7h0.1L14.8,21.9z M15.2,25.9h-0.3v-3.8h0.6c0.1,0.2,0.1,0.3,0.1,0.5c0,0.4,0,0.7,0.1,1.1
			c0.1,0.3,0.2,0.7,0.3,1.1c0,0.3,0,0.5,0.1,0.8c0.1,0.1,0.1,0.2,0.2,0.3C15.9,25.8,15.6,25.9,15.2,25.9L15.2,25.9z M14.9,22v-1.5
			c0.1,0,0.1,0,0.1,0.1c0,0.1,0.3,0.9,0.4,1.2c0,0.1,0,0.1,0.1,0.1L14.9,22z M16.3,25.9L16.3,25.9h0.1H16.3z M16.9,25.9
			c0,0-0.2,0-0.4-0.2c-0.2-0.1-0.3-0.3-0.3-0.6c0-0.3-0.1-0.6-0.1-0.9s-0.1-0.5-0.2-1c-0.1-0.3-0.1-0.7-0.1-1c0-0.3-0.1-0.6-0.2-0.9
			c-0.1-0.3-0.3-0.6-0.3-0.8s0.4-0.3,0.4,0s0.2,1.1,0.3,1.4c0.2,0.3,0.3,0.6,0.3,0.9c0,0.4,0,1.1,0,1.5c0,0.4,0,0.7,0.1,1.1l0.4,0.5
			c0.1,0,0.1,0,0.2,0C17,25.8,16.9,25.8,16.9,25.9L16.9,25.9z M16.5,22.1h4.1c-0.8,1.5-2,2.6-3.5,3.4c-0.2-0.2-0.3-0.3-0.4-0.5
			c-0.1-0.4-0.1-0.9-0.1-1.3c0-0.4,0-0.7,0-1.2C16.5,22.4,16.5,22.2,16.5,22.1L16.5,22.1z M17.2,25.7L17.2,25.7v-0.1l0,0
			c1.5-0.8,2.8-2,3.6-3.5h2.6C21.7,24,19.5,25.2,17.2,25.7L17.2,25.7z M23.3,22h-2.6c0.4-0.7,0.7-1.4,0.9-2.1h-0.1
			c-0.2,0.7-0.6,1.4-0.9,2.1h-4.2l-0.1-0.4c-0.1-0.3-0.2-0.6-0.2-0.9c0-0.2,0.2-0.1,0.2-0.3c0-0.3-0.1-0.6-0.2-0.9
			c-0.1-0.4-0.2-0.9-0.2-1.3c0-0.2-0.1-0.4-0.1-0.7c0-0.3-0.1-0.7-0.2-1c-0.1-0.3-0.2-0.7-0.2-1c0-0.3,0-0.5,0.1-0.7h6.8
			c0,0.9-0.1,1.8-0.2,2.7h0.1c0.2-0.9,0.2-1.8,0.2-2.7h3.5C25.9,17.5,25,20,23.3,22z M15.5,14.9L15.5,14.9c0.1-0.4,0.2-0.7,0.3-1
			c0.1-0.2,0.3-0.3,0.5-0.3c0.3,0.1,1.1,0,1.4,0.1c0.4,0.1,0.8,0.2,1.2,0.1c0.4,0,1.2-0.3,1.7-0.4s0.7,0,0.9,0.1
			c0.2,0.2,0.5,0.3,0.8,0.3l0,0c0,0.3,0,0.7,0,1L15.5,14.9z M25.9,14.9h-3.5c0-0.3,0-0.7,0-1c0.2,0,0.3-0.1,0.4-0.2s0-0.1-0.1-0.2
			c-0.1-0.1-0.2-0.1-0.3-0.2c-0.1-1.2-0.4-2.3-0.7-3.4l0,0c0,0,0-0.1,0-0.1l-0.1-0.3l-0.1-0.2c-0.1-0.2-0.2-0.4-0.2-0.6l-0.1-0.2
			c0-0.1-0.1-0.1-0.1-0.2c0-0.1,0-0.2,0-0.3c0-0.1,0-0.2,0-0.2h2.4C25,9.7,25.9,12.2,25.9,14.9L25.9,14.9z M20.3,7.2l0.1,0.2
			c0,0.1,0,0.2,0,0.2h-1.9c0-0.2,0.1-0.5,0.3-0.7c0.2-0.2,0.4-0.4,0.7-0.4c0.2,0,0.4,0.1,0.5,0.2L20.3,7.2z M20.8,8.8
			C20.9,8.7,21,8.6,21,8.5c0,0.1,0.1,0.2,0.1,0.3l0.2,0.5h-0.1L21,9.8h-0.8V9.7C20.4,9.4,20.7,9.1,20.8,8.8z M23.2,7.7H21
			c-0.1-0.3-0.2-0.6-0.4-0.8c-0.2-0.2-0.4-0.3-0.7-0.4c-0.1-0.1-0.2-0.3-0.3-0.4l0,0l-0.3-0.3l0,0l0,0c-0.8-0.9-1.8-1.5-3-1.9
			C19,4.3,21.5,5.6,23.2,7.7z M14.9,3.8h0.4c1.5,0.2,2.8,0.9,3.8,2c0.2,0.2,0.4,0.4,0.6,0.7h-0.3c-0.4,0-0.8,0.1-1.1,0.4
			c-0.2,0.2-0.4,0.5-0.4,0.8h-2.9V3.8z M14.9,7.8h2.9c0,0.1,0,0.2,0,0.2c0,0.3,0.1,0.5,0.2,0.8c0.2,0.3,0.4,0.6,0.6,0.9v0.1h-0.8
			l-0.1-0.5h-0.1l0.3,1h1.3c-0.2-0.3-0.4-0.7-0.5-1.1c-0.1-0.4-0.1-0.7-0.1-1.1c0-0.1,0-0.2,0-0.3h1.9c0,0.1,0,0.2,0,0.3
			c0,0.2,0,0.4,0,0.5c0,0.2-0.1,0.4-0.1,0.6c-0.1,0.4-0.3,0.8-0.5,1.1H21l0.3-1c0,0.1,0.1,0.1,0.1,0.2l0.1,0.2
			c0.4,1.1,0.6,2.2,0.8,3.4l-0.1-0.1c-0.2-0.2-0.3-0.3-0.2-0.4s0.1-0.1,0.1-0.3s0-0.2-0.1-0.1c-0.2,0.2-0.4,0.3-0.7,0.3
			c-0.3,0.1-0.7,0.2-1,0.2c-0.6-0.1-1.2-0.1-1.8,0c-0.3,0.1-0.5,0.1-0.8,0.1c-0.5-0.1-1-0.1-1.4-0.2c-0.3,0-0.6,0-0.9,0
			c-0.1,0-0.2-0.1-0.1-0.2c0.1-0.2,0.2-0.4,0.3-0.7c0-0.2,0.1-0.1,0.1-0.3s0.1-0.6-0.1-0.8c-0.1-0.2-0.3-0.3-0.5-0.4L14.9,7.8z
			 M15,10.7c-0.2-0.1-0.4-0.3-0.6-0.4c-0.2,0-0.3-0.1-0.5-0.1l0.1-0.1l-0.3,0.1c-0.3,0.1-0.4,0-0.5,0.1c-0.1,0.1-0.1,0.3,0,0.4
			c0.1,0.1,0.1,0.2,0,0.3s-0.2,0.1-0.1,0.3c0.2,0.2,0.4,0.5,0.7,0.7c0.2,0.2,0.3,0.2,0.3,0.4s0,0.4,0,0.4c-0.3,0-0.6,0-0.9,0
			c-0.3,0-0.6,0.1-1,0.1c-0.3,0-0.7,0-1,0c-0.5-0.1-1-0.1-1.5-0.1c-0.5,0-0.7,0-0.9-0.1s-0.1,0-0.5-0.2L7.7,12l0,0l0,0
			c0.1-0.6,0.2-1.2,0.4-1.8H9v-0.1c-0.1,0-0.1,0-0.2-0.1c0-0.1-0.1-0.2-0.1-0.2V9.7V9.5l0.1-0.4l0.7,0.6l0.1-0.1l0.6-0.4l0.1,0.5
			v0.1c0,0,0,0.1,0,0.1c0,0,0,0.1,0,0.1c0,0.1-0.1,0.2-0.2,0.2v0.1h1v-0.1c0,0-0.1,0-0.1-0.1l0-0.1C11,9.9,11,9.7,10.9,9.6l-0.6-1.8
			h4.5v2.3c-0.2-0.1-0.4-0.1-0.7-0.1c-0.1,0,0.3,0,0.5,0.2S15.2,10.7,15,10.7z M9.6,7l0.2,0.6H9.4l0.2-0.5C9.6,7.1,9.6,7.1,9.6,7z
			 M10.2,8.9L9.6,9.3L9,8.9l0.4-1.1h0.5L10.2,8.9z M8.7,9.3C8.6,9.5,8.5,9.7,8.4,9.9c-0.1,0.1-0.2,0.2-0.3,0.2
			c0-0.1,0.1-0.3,0.1-0.4l0.1-0.2c0.1-0.1,0.2-0.4,0.3-0.7c0.1-0.3,0.3-0.7,0.5-1L8.7,9.3z M14.8,3.8v3.8h-4.5L10,6.6
			c0.2-0.3,0.4-0.5,0.7-0.8l0,0c0.5-0.6,1.1-1,1.8-1.4l0,0l0.3-0.2l0,0l0.3-0.1l0,0C13.6,4,14,3.9,14.5,3.9L14.8,3.8z M7.4,6.8
			L7.4,6.8l0.3-0.2l0.1-0.1L8,6.2l0.1-0.1c0.4-0.3,0.8-0.6,1.3-0.9l0.1-0.1l0.3-0.2L9.9,5l0.3-0.1l0.1-0.1l0.3-0.1l0.1-0.1L11,4.5
			l0,0c0.4-0.1,0.7-0.2,1.1-0.3S13,4,13.5,3.9C13.3,4,13,4,12.9,4.1l0,0c-0.9,0.4-1.7,0.9-2.3,1.6l0,0l-0.1,0.2l0,0l-0.2,0.2l0,0
			L9.9,6.4l0,0H9.6L9.3,7.4L9.1,7.7H6.5C6.8,7.4,7.1,7.1,7.4,6.8L7.4,6.8z M6.4,7.8H9L8.9,8.2C8.8,8.3,8.7,8.4,8.7,8.5L8.5,8.8
			C8.4,8.9,8.4,9.1,8.3,9.3c0,0.1-0.1,0.1-0.1,0.2c0,0.1-0.1,0.2-0.1,0.3v0.1l0,0c-0.2,0.5-0.3,1.1-0.5,1.7l0,0
			c0,0.1-0.1,0.3-0.1,0.5l0,0c-0.1,0-0.1,0-0.1,0.2c0,0,0,0.1,0,0.1s0,0.3-0.1,0.4C7.3,13,7.1,13.1,7,13.1c-0.2,0.1-0.2,0.3-0.2,0.3
			c0.1-0.1,0.2-0.1,0.3-0.2c0.2,0,0.5-0.1,0.6-0.3C7.8,12.7,8,12.7,8,12.5s0.1-0.1,0.3,0c0.2,0.2,0.5,0.3,0.8,0.3c0.3,0,1.5,0,1.8,0
			S11.5,13,12,13c0.5,0,0.9-0.1,1.4-0.1c0.3,0,0.5,0,0.8,0.1c0.2,0.1,0.3-0.1,0.4-0.3c0-0.2,0-0.4,0-0.6l0.2-0.2
			c-0.1,0.1-0.2,0.1-0.3,0.1c-0.2,0-0.3-0.1-0.4-0.1l-0.1-0.2l-0.1-0.1c0,0,0.1-0.1,0-0.1s-0.1-0.1-0.1-0.4s0-0.2-0.1-0.3
			s-0.4-0.2-0.2-0.2s0.4,0.1,0.6,0.1s0.3-0.1,0.5,0s0.1,0.5,0.2,0.5s0.2,0,0.2,0.1c0,0.1,0,0.2-0.1,0.3c0,0.1,0,0.2,0,0.4
			c0,0.2,0,0.3,0,0.5c0,0.2,0.1,0.3,0,0.4s0,0.1,0.2,0.1c0.4-0.1,0.9-0.1,1.3,0c0.5,0.1,0.9,0.2,1.4,0.2c0.4,0,1-0.2,1.3-0.2
			c0.7,0.1,1.3,0.1,2,0c0.3-0.1,0.7-0.4,0.8-0.3s0,0.2,0.1,0.4s0.5,0.3,0.6,0.4s-0.1,0.1-0.4,0c-0.3-0.2-0.6-0.2-0.9-0.2
			c-0.4,0-0.9,0.1-1.3,0.2c-0.4,0.1-0.9,0.2-1.3,0.1c-0.5-0.1-1-0.1-1.5-0.1c-0.4,0-0.7-0.2-0.9-0.1c-0.2,0.1-0.4,0.3-0.5,0.4
			c-0.1,0.1-0.3,0-0.5-0.1c-0.2,0-0.3-0.1-0.4-0.2c0,0,0,0.2-0.1,0.2s-0.1,0.1-0.1,0.1s0.2-0.1,0.2,0.1s0.1,0.5,0,0.5
			s0.1,0.1,0.2,0.1l0,0c0,0-0.1-0.1-0.1-0.1c-0.1-0.2-0.1-0.4,0-0.5s0-0.1,0.2,0c0.1,0.1,0.3,0.1,0.4,0.1c0.1,0,0.1,0.1,0,0.3
			s-0.2,0.3-0.2,0.3s0,0,0,0.2c0,0.2,0,0.3,0,0.5c0,0.3,0,0.6,0,0.9c0,0.1,0.1,0,0.1,0.3s0.3,0.8,0.1,0.9c-0.2,0-0.5,0-0.6-0.2
			c0.1,0.2,0.3,0.4,0.4,0.5c0.1,0,0.2-0.2,0.2-0.1s0.2,0.4,0.1,0.5s-0.4,0-0.6-0.3s-0.4-0.5-0.4-0.5c0.1,0.2,0.3,0.5,0.4,0.7
			c0.2,0.2,0.5,0.5,0.6,0.4c0.1-0.1,0.1-0.1,0.1-0.2c0,0,0.1,0.1,0.2,0.5s0.3,1.3,0.3,1.5s-0.1,0.3-0.2,0.1
			c-0.1-0.4-0.2-0.8-0.3-1.2c0-0.2-0.1-0.4-0.1-0.6c0.1,0.5,0.1,1,0,1.5c-0.1,0.3-0.2,0.3-0.6,0.1s-1-0.3-1-0.5c0-0.4,0-0.8,0-1.2
			c0.1-0.3,0.2-0.7,0.2-1c0-0.2,0.1-0.4,0.1-0.6c0.1-0.3,0.1-0.6,0.1-0.9c-0.1-0.3-0.2-0.7-0.2-1c0-0.2,0-0.4-0.1-0.7
			C14,14,14,14,14.1,13.9s0.3-0.1,0-0.1s-0.2,0-0.5-0.2c-0.1-0.1-0.3-0.2-0.5-0.2L12,13.3c-0.2,0-0.7-0.1-1-0.1c-0.4,0-0.7,0-1.1,0
			c-0.5,0-1-0.1-1.4-0.3c-0.2-0.1-0.3,0-0.4,0.1s-1.3,0.3-1.2,0.3h0.6c0,0.5-0.1,0.9-0.1,1.4H3.8C3.8,12.2,4.8,9.7,6.4,7.8L6.4,7.8z
			"/>
	</g>
</g>
</svg>
