<?xml version="1.0" encoding="utf-8"?>
<!-- Generator: Adobe Illustrator 26.5.0, SVG Export Plug-In . SVG Version: 6.00 Build 0)  -->
<svg version="1.1" id="Layer_1" xmlns="http://www.w3.org/2000/svg" xmlns:xlink="http://www.w3.org/1999/xlink" x="0px" y="0px"
	 viewBox="0 0 400 150" style="enable-background:new 0 0 400 150;" xml:space="preserve">
<style type="text/css">
	.st0{fill:#ADA371;}
</style>
<g>
	<g>
		<g>
			<path class="st0" d="M119.52,62.84c0-1.82-0.25-3.29-0.76-4.41c-0.51-1.11-1.67-1.67-3.5-1.67h-0.61v-1.82h16.42
				c1.91,0,3.91,0.1,6.02,0.3c2.11,0.2,4.04,0.67,5.81,1.4c1.76,0.73,3.22,1.8,4.38,3.22c1.16,1.42,1.73,3.32,1.73,5.72
				c0,0.85-0.17,1.72-0.52,2.61c-0.35,0.89-0.87,1.73-1.58,2.52c-0.71,0.79-1.59,1.5-2.64,2.13c-1.05,0.63-2.29,1.12-3.71,1.49
				c1.99,0.2,3.64,0.6,4.96,1.19c1.32,0.59,2.37,1.31,3.16,2.16c0.79,0.85,1.35,1.81,1.67,2.89c0.32,1.07,0.49,2.2,0.49,3.37
				c0,2.31-0.53,4.2-1.58,5.65c-1.05,1.46-2.43,2.59-4.13,3.4c-1.7,0.81-3.63,1.36-5.78,1.64c-2.15,0.28-4.3,0.43-6.44,0.43h-13.38
				V62.84z M131.07,57.37c-0.49,0-0.95,0.02-1.4,0.06c-0.45,0.04-0.83,0.1-1.16,0.18c-0.41,0.08-0.77,0.14-1.09,0.18v15.32h4.56
				c2.47,0,4.51-0.59,6.11-1.76c1.6-1.17,2.4-3.2,2.4-6.08c0-1.5-0.27-2.76-0.82-3.77s-1.26-1.82-2.13-2.43
				c-0.87-0.61-1.88-1.04-3.01-1.31C133.4,57.5,132.25,57.37,131.07,57.37z M131.99,92.63c3.36,0,5.93-0.73,7.69-2.19
				s2.64-3.53,2.64-6.2c0-5.59-3.45-8.39-10.34-8.39h-4.56v16.17c0.36,0.12,0.77,0.22,1.22,0.3c0.81,0.2,1.82,0.3,3.04,0.3H131.99z"
				/>
			<path class="st0" d="M157.7,74.39c0-1.82-0.25-3.29-0.76-4.41c-0.51-1.11-1.67-1.67-3.5-1.67h-0.61v-1.82h7.3
				c1.05,0,1.93,0.13,2.64,0.4c0.71,0.26,1.28,0.7,1.7,1.31c0.43,0.61,0.72,1.42,0.88,2.43c0.16,1.01,0.24,2.27,0.24,3.77v20.67
				h-7.9V74.39z M165,59.8c0,1.05-0.32,1.88-0.97,2.49c-0.65,0.61-1.44,0.91-2.37,0.91c-1.54,0-2.69-0.47-3.43-1.4
				c-0.75-0.93-1.13-2.01-1.13-3.22c0-1.05,0.32-1.88,0.97-2.49c0.65-0.61,1.44-0.91,2.37-0.91c1.54,0,2.69,0.47,3.43,1.4
				C164.62,57.51,165,58.58,165,59.8z"/>
			<path class="st0" d="M171.32,80.78c0-2.07,0.33-4.01,1-5.84c0.67-1.82,1.63-3.4,2.89-4.74c1.26-1.34,2.79-2.39,4.59-3.16
				c1.8-0.77,3.84-1.16,6.11-1.16c2.27,0,4.31,0.39,6.11,1.16c1.8,0.77,3.33,1.82,4.59,3.16c1.26,1.34,2.22,2.92,2.89,4.74
				c0.67,1.82,1,3.77,1,5.84c0,2.07-0.33,4.01-1,5.84c-0.67,1.82-1.63,3.4-2.89,4.74s-2.79,2.39-4.59,3.16
				c-1.8,0.77-3.84,1.16-6.11,1.16c-2.27,0-4.31-0.39-6.11-1.16c-1.8-0.77-3.33-1.82-4.59-3.16c-1.26-1.34-2.22-2.92-2.89-4.74
				C171.66,84.79,171.32,82.84,171.32,80.78z M192.3,80.78c0-1.74-0.13-3.35-0.4-4.83c-0.26-1.48-0.66-2.77-1.19-3.86
				c-0.53-1.09-1.2-1.94-2.01-2.55c-0.81-0.61-1.74-0.91-2.8-0.91c-1.05,0-1.99,0.3-2.8,0.91c-0.81,0.61-1.48,1.46-2.01,2.55
				c-0.53,1.09-0.92,2.38-1.19,3.86c-0.26,1.48-0.39,3.09-0.39,4.83s0.13,3.35,0.39,4.83c0.26,1.48,0.66,2.77,1.19,3.86
				c0.53,1.09,1.19,1.95,2.01,2.55c0.81,0.61,1.74,0.91,2.8,0.91c1.05,0,1.99-0.3,2.8-0.91c0.81-0.61,1.48-1.46,2.01-2.55
				c0.53-1.09,0.92-2.38,1.19-3.86C192.16,84.13,192.3,82.52,192.3,80.78z"/>
			<path class="st0" d="M249.45,84.73c0,3.69,0.31,6.45,0.94,8.3c0.63,1.84,1.79,2.93,3.5,3.25v1.52c-4.42,0-7.58-1.03-9.48-3.1
				c-1.91-2.07-2.86-5.39-2.86-9.97V63.21l-13.31,31.86h-2.01l-16.29-33.07v33.07h-3.04V54.94h7.42l14.71,29.85l12.46-29.85h7.96
				V84.73z"/>
			<path class="st0" d="M272.73,99.01c-0.61,1.66-1.26,3.02-1.94,4.07c-0.69,1.05-1.42,1.88-2.19,2.49
				c-0.77,0.61-1.61,1.03-2.52,1.28c-0.91,0.24-1.89,0.36-2.95,0.36h-2.43v-2.13c1.05,0,2.02-0.09,2.89-0.27
				c0.87-0.18,1.67-0.5,2.4-0.94s1.38-1.04,1.95-1.79c0.57-0.75,1.07-1.71,1.52-2.89l1.28-3.28l-10.94-23.95
				c-1.34-2.96-3.22-4.58-5.65-4.86v-1.22h5.35c1.82,0,3.42,0.44,4.8,1.31c1.38,0.87,2.41,2.06,3.1,3.56l6.99,15.32l7.42-19.58h3.22
				L272.73,99.01z"/>
			<path class="st0" d="M303.98,68.8c-1.3,0-2.42,0.18-3.37,0.55c-0.95,0.37-1.69,0.81-2.22,1.34c0.04,0.24,0.1,0.53,0.18,0.85
				c0.08,0.29,0.14,0.63,0.18,1.04c0.04,0.41,0.06,0.86,0.06,1.34v21.13h-7.9V74.39c0-0.89-0.05-1.71-0.15-2.46
				c-0.1-0.75-0.3-1.4-0.58-1.95c-0.28-0.55-0.71-0.96-1.28-1.25c-0.57-0.28-1.3-0.42-2.19-0.42h-0.61v-1.82h6.02
				c1.38,0,2.46,0.17,3.25,0.52c0.79,0.35,1.41,0.92,1.85,1.73c0.37-0.32,0.8-0.66,1.31-1c0.51-0.34,1.11-0.65,1.83-0.91
				c0.71-0.26,1.53-0.49,2.46-0.67c0.93-0.18,2.03-0.27,3.28-0.27c3.81,0,6.69,0.88,8.63,2.64c1.94,1.76,2.92,4.61,2.92,8.54v18
				h-7.9V76.92c0-2.97-0.55-5.07-1.64-6.29C307.02,69.41,305.64,68.8,303.98,68.8z"/>
			<path class="st0" d="M338.14,92.94c2.11,0,3.82-0.49,5.14-1.46c1.32-0.97,2.5-2.17,3.56-3.59l1.89,1.4
				c-0.45,0.69-0.98,1.41-1.61,2.16c-0.63,0.75-1.4,1.44-2.31,2.07c-0.91,0.63-1.99,1.15-3.22,1.55c-1.24,0.4-2.69,0.61-4.35,0.61
				c-2.15,0-4.08-0.38-5.81-1.13c-1.72-0.75-3.19-1.79-4.41-3.13c-1.22-1.34-2.15-2.91-2.8-4.71c-0.65-1.8-0.97-3.78-0.97-5.93
				c0-2.43,0.34-4.58,1.03-6.44c0.69-1.86,1.63-3.41,2.83-4.65c1.19-1.24,2.6-2.18,4.23-2.83c1.62-0.65,3.38-0.97,5.29-0.97
				c1.9,0,3.67,0.29,5.29,0.88c1.62,0.59,3.03,1.41,4.23,2.46c1.19,1.05,2.14,2.33,2.83,3.83c0.69,1.5,1.03,3.16,1.03,4.98
				c0,0.45-0.01,0.9-0.03,1.37c-0.02,0.47-0.05,0.88-0.09,1.25c-0.04,0.45-0.08,0.85-0.12,1.22h-18.3c0,4.01,0.62,6.86,1.85,8.54
				C334.55,92.09,336.16,92.94,338.14,92.94z M341.79,79.13c0-2.03-0.13-3.71-0.4-5.05c-0.26-1.34-0.62-2.41-1.06-3.22
				c-0.45-0.81-0.98-1.39-1.61-1.73c-0.63-0.34-1.33-0.52-2.1-0.52c-0.69,0-1.35,0.17-1.98,0.52c-0.63,0.35-1.18,0.92-1.64,1.73
				s-0.84,1.88-1.13,3.22s-0.42,3.02-0.42,5.05H341.79z"/>
		</g>
	</g>
	<path class="st0" d="M81.48,75c9.73-4.03,17.91-11.77,22.26-22.26L91.13,33.87C68.41,33.87,50,52.28,50,75
		c6.56-15.83,21.86-25.38,38-25.39C81.82,64.51,67.14,75,50,75c17.14,0,31.82,10.49,38,25.39C71.86,100.38,56.56,90.83,50,75
		c0,22.72,18.42,41.13,41.13,41.13l12.61-18.87C99.39,86.77,91.21,79.03,81.48,75z"/>
</g>
</svg>
